<svg width="23" height="23" viewBox="0 0 23 23" fill="none" xmlns="http://www.w3.org/2000/svg">
<g clip-path="url(#clip0_65_427)">
<path d="M15.4531 11.1406H12.5119C12.4583 10.9903 12.372 10.8538 12.2591 10.7409C12.1463 10.628 12.0097 10.5417 11.8594 10.4881V6.10937C11.8594 6.01406 11.8215 5.92265 11.7541 5.85526C11.6867 5.78786 11.5953 5.75 11.5 5.75C11.4047 5.75 11.3133 5.78786 11.2459 5.85526C11.1785 5.92265 11.1406 6.01406 11.1406 6.10937V10.4881C10.9691 10.5484 10.8156 10.6512 10.6946 10.7869C10.5736 10.9226 10.489 11.0868 10.4487 11.2641C10.4083 11.4414 10.4136 11.6261 10.464 11.8008C10.5144 11.9755 10.6083 12.1345 10.7369 12.2631C10.8655 12.3917 11.0245 12.4856 11.1992 12.536C11.3739 12.5864 11.5586 12.5917 11.7359 12.5513C11.9132 12.511 12.0774 12.4264 12.2131 12.3054C12.3488 12.1844 12.4516 12.0309 12.5119 11.8594H15.4531C15.5484 11.8594 15.6398 11.8215 15.7072 11.7541C15.7746 11.6867 15.8125 11.5953 15.8125 11.5C15.8125 11.4047 15.7746 11.3133 15.7072 11.2459C15.6398 11.1785 15.5484 11.1406 15.4531 11.1406ZM11.5 11.8594C11.4289 11.8594 11.3594 11.8383 11.3003 11.7988C11.2412 11.7593 11.1952 11.7032 11.168 11.6375C11.1408 11.5719 11.1337 11.4996 11.1475 11.4299C11.1614 11.3602 11.1956 11.2961 11.2459 11.2459C11.2961 11.1956 11.3602 11.1614 11.4299 11.1475C11.4996 11.1337 11.5719 11.1408 11.6375 11.168C11.7032 11.1952 11.7593 11.2412 11.7988 11.3003C11.8383 11.3594 11.8594 11.4289 11.8594 11.5C11.8593 11.5953 11.8214 11.6867 11.7541 11.754C11.6867 11.8214 11.5953 11.8593 11.5 11.8594ZM18.1227 4.91657C18.1164 4.90921 18.114 4.89995 18.107 4.89297C18.1 4.88599 18.0908 4.88358 18.0834 4.87731C16.3355 3.13476 13.9681 2.15625 11.5 2.15625C9.03189 2.15625 6.66445 3.13476 4.91658 4.87731C4.90921 4.88358 4.89995 4.88599 4.89297 4.89297C4.886 4.89995 4.88359 4.9092 4.87731 4.91657C3.13476 6.66445 2.15625 9.03189 2.15625 11.5C2.15625 13.9681 3.13476 16.3355 4.87731 18.0834C4.88359 18.0908 4.886 18.1 4.89297 18.107C4.89995 18.114 4.9092 18.1164 4.91658 18.1227C6.66445 19.8652 9.03189 20.8437 11.5 20.8437C13.9681 20.8437 16.3355 19.8652 18.0834 18.1227C18.0908 18.1164 18.1 18.114 18.107 18.107C18.114 18.1 18.1164 18.0908 18.1227 18.0834C19.8652 16.3355 20.8438 13.9681 20.8438 11.5C20.8438 9.03189 19.8652 6.66445 18.1227 4.91657ZM17.8379 17.3297L17.0907 16.5825C17.0231 16.5162 16.932 16.4793 16.8373 16.4798C16.7427 16.4803 16.652 16.5181 16.5851 16.585C16.5181 16.652 16.4803 16.7426 16.4798 16.8373C16.4793 16.932 16.5163 17.023 16.5825 17.0906L17.3297 17.8379C15.8334 19.2195 13.8943 20.0238 11.8594 20.1068V19.0469C11.8594 18.9516 11.8215 18.8602 11.7541 18.7928C11.6867 18.7254 11.5953 18.6875 11.5 18.6875C11.4047 18.6875 11.3133 18.7254 11.2459 18.7928C11.1785 18.8602 11.1406 18.9516 11.1406 19.0469V20.1068C9.10567 20.0238 7.16662 19.2195 5.6703 17.8379L6.41752 17.0907C6.48378 17.023 6.52068 16.932 6.52021 16.8373C6.51973 16.7427 6.48191 16.652 6.41496 16.5851C6.34802 16.5181 6.25736 16.4803 6.16269 16.4798C6.06801 16.4793 5.97698 16.5162 5.90936 16.5825L5.16212 17.3297C3.78047 15.8334 2.97622 13.8943 2.89321 11.8594H3.95313C4.04844 11.8594 4.13985 11.8215 4.20725 11.7541C4.27464 11.6867 4.3125 11.5953 4.3125 11.5C4.3125 11.4047 4.27464 11.3133 4.20725 11.2459C4.13985 11.1785 4.04844 11.1406 3.95313 11.1406H2.89321C2.97622 9.10567 3.78047 7.16661 5.16212 5.67029L5.90934 6.41751C5.97695 6.48377 6.06799 6.52068 6.16266 6.5202C6.25734 6.51972 6.348 6.4819 6.41494 6.41496C6.48188 6.34801 6.5197 6.25735 6.52018 6.16268C6.52066 6.06801 6.48376 5.97697 6.41749 5.90935L5.6703 5.16211C7.16662 3.78046 9.10567 2.97621 11.1406 2.89321V3.95312C11.1406 4.04844 11.1785 4.13985 11.2459 4.20724C11.3133 4.27464 11.4047 4.3125 11.5 4.3125C11.5953 4.3125 11.6867 4.27464 11.7541 4.20724C11.8215 4.13985 11.8594 4.04844 11.8594 3.95312V2.89321C13.8943 2.97621 15.8334 3.78046 17.3297 5.16211L16.5825 5.90933C16.5486 5.94257 16.5216 5.98221 16.5031 6.02595C16.4846 6.06969 16.4749 6.11667 16.4747 6.16416C16.4744 6.21166 16.4836 6.25873 16.5017 6.30265C16.5197 6.34658 16.5463 6.38648 16.5799 6.42007C16.6135 6.45365 16.6534 6.48024 16.6973 6.49831C16.7413 6.51637 16.7883 6.52555 16.8358 6.52531C16.8833 6.52507 16.9303 6.51542 16.974 6.49691C17.0178 6.4784 17.0574 6.45141 17.0907 6.41749L17.8379 5.67029C19.2195 7.16661 20.0238 9.10567 20.1068 11.1406H19.0469C18.9516 11.1406 18.8602 11.1785 18.7928 11.2459C18.7254 11.3133 18.6875 11.4047 18.6875 11.5C18.6875 11.5953 18.7254 11.6867 18.7928 11.7541C18.8602 11.8215 18.9516 11.8594 19.0469 11.8594H20.1068C20.0238 13.8943 19.2195 15.8334 17.8379 17.3297ZM11.5 0C9.22552 0 7.00211 0.674463 5.11095 1.9381C3.21978 3.20174 1.7458 4.99779 0.87539 7.09914C0.00498273 9.20049 -0.222756 11.5128 0.220974 13.7435C0.664704 15.9743 1.75997 18.0234 3.36828 19.6317C4.97658 21.24 7.02568 22.3353 9.25647 22.779C11.4872 23.2228 13.7995 22.995 15.9009 22.1246C18.0022 21.2542 19.7983 19.7802 21.0619 17.8891C22.3255 15.9979 23 13.7745 23 11.5C22.9965 8.45108 21.7838 5.52804 19.6279 3.37212C17.472 1.21621 14.5489 0.00348693 11.5 0V0ZM11.5 22.2812C9.36767 22.2812 7.28323 21.6489 5.51026 20.4643C3.7373 19.2796 2.35544 17.5958 1.53943 15.6258C0.723422 13.6558 0.509917 11.488 0.925914 9.39668C1.34191 7.30532 2.36873 5.38429 3.87651 3.8765C5.38429 2.36872 7.30533 1.34191 9.39669 0.925909C11.488 0.509912 13.6558 0.723417 15.6258 1.53942C17.5958 2.35543 19.2796 3.73729 20.4643 5.51026C21.6489 7.28323 22.2813 9.36767 22.2813 11.5C22.278 14.3584 21.1411 17.0987 19.1199 19.1199C17.0988 21.1411 14.3584 22.278 11.5 22.2812Z" fill="#5B5B5B"/>
</g>
<defs>
<clipPath id="clip0_65_427">
<rect width="23" height="23" fill="white"/>
</clipPath>
</defs>
</svg>
