<svg width="170" height="465" viewBox="0 0 170 465" fill="none" xmlns="http://www.w3.org/2000/svg">
<path fill-rule="evenodd" clip-rule="evenodd" d="M167.035 196.192L163.39 196.349L153.777 196.761L83.5516 199.776C85.2033 207.118 86.298 214.567 86.8328 222.056L92.5646 221.977L143.813 221.274L169.619 220.919C169.197 212.64 168.335 204.385 167.035 196.192ZM92.25 235.447L87.1988 234.954C87.1145 240.747 86.6953 246.541 85.9387 252.304L92.4864 253.231L123.126 257.569L167.839 263.901C168.773 256.964 169.392 249.996 169.697 243.021L92.25 235.447ZM164.051 284.779C162.654 290.876 161.006 296.931 159.108 302.928L156.964 302.263L87.7014 280.75L80.1028 278.39C81.4612 274.148 82.6241 269.86 83.592 265.54L89.864 267.039L119.96 274.236L164.051 284.779ZM144.286 338.882C146.882 333.839 149.28 328.726 151.479 323.552L149.494 322.715L82.6716 294.521L75.2575 291.393C73.9309 294.5 72.494 297.573 70.9453 300.606L73.0437 301.701L137.341 335.257L144.286 338.882ZM127.826 366.073C123.03 372.891 117.82 379.521 112.195 385.927C27.5738 482.294 -119.146 491.817 -215.513 407.196C-311.88 322.575 -321.402 175.856 -236.781 79.4885C-152.16 -16.8786 -5.44092 -26.4008 90.9261 58.22C92.4028 59.5167 93.8596 60.8284 95.2956 62.154L62.3725 99.6472L99.3045 65.9424C108.104 74.4553 116.092 83.5152 123.263 93.0206L68.9436 136.711L131.178 104.186C137.369 113.493 142.826 123.165 147.543 133.116L74.9761 165.48L154.783 150.113C158.309 159.407 161.224 168.89 163.522 178.5L161.597 178.812L152.1 180.354L81.5273 191.806C73.9434 165.044 58.8116 140.086 36.3548 120.366C-25.6898 65.8845 -120.153 72.0152 -174.635 134.06C-229.117 196.104 -222.986 290.568 -160.941 345.049C-98.8969 399.531 -4.43369 393.401 50.0482 331.356C53.8119 327.07 57.2866 322.629 60.4732 318.057L62.2397 319.317L121.296 361.418L127.826 366.073Z" fill="#D9FF54"/>
</svg>
