<svg width="21" height="22" viewBox="0 0 21 22" fill="none" xmlns="http://www.w3.org/2000/svg">
<path d="M19.25 18.3337H1.75C0.784875 18.3337 0 17.5114 0 16.5003V5.50033C0 4.48924 0.784875 3.66699 1.75 3.66699H19.25C20.2151 3.66699 21 4.48924 21 5.50033V16.5003C21 17.5114 20.2151 18.3337 19.25 18.3337ZM1.75 4.58366C1.26744 4.58366 0.875 4.99478 0.875 5.50033V16.5003C0.875 17.0059 1.26744 17.417 1.75 17.417H19.25C19.7326 17.417 20.125 17.0059 20.125 16.5003V5.50033C20.125 4.99478 19.7326 4.58366 19.25 4.58366H1.75Z" fill="#5B5B5B"/>
<path d="M10.5001 13.379L2.82504 8.17645C2.72757 8.11044 2.65912 8.00658 2.63475 7.8877C2.61039 7.76883 2.63209 7.64468 2.6951 7.54257C2.7581 7.44046 2.85725 7.36876 2.97072 7.34323C3.08419 7.3177 3.20269 7.34044 3.30016 7.40645L10.5001 12.2872L17.7 7.40645C17.7975 7.34044 17.916 7.3177 18.0295 7.34323C18.143 7.36876 18.2421 7.44046 18.3051 7.54257C18.3681 7.64468 18.3898 7.76883 18.3654 7.8877C18.3411 8.00658 18.2726 8.11044 18.1752 8.17645L10.5001 13.379ZM2.62554 15.5831C2.5316 15.5832 2.44011 15.5517 2.36462 15.4931C2.28913 15.4345 2.23364 15.3521 2.20636 15.2579C2.17907 15.1637 2.18145 15.0628 2.21314 14.9702C2.24482 14.8775 2.30413 14.798 2.38229 14.7434L6.31979 11.9934C6.36759 11.96 6.4212 11.9368 6.47757 11.9251C6.53393 11.9134 6.59194 11.9135 6.64829 11.9253C6.70464 11.9371 6.75822 11.9604 6.80597 11.9938C6.85372 12.0273 6.89471 12.0703 6.9266 12.1204C6.95849 12.1705 6.98064 12.2266 6.99181 12.2857C7.00298 12.3447 7.00293 12.4055 6.99168 12.4646C6.98043 12.5236 6.95818 12.5797 6.92622 12.6297C6.89426 12.6798 6.85321 12.7227 6.80541 12.7561L2.86791 15.5061C2.79609 15.5562 2.71179 15.5829 2.62554 15.5831ZM18.3747 15.5831C18.2915 15.5831 18.2071 15.5579 18.1323 15.5061L14.1948 12.7561C14.147 12.7227 14.1059 12.6798 14.074 12.6297C14.042 12.5797 14.0198 12.5236 14.0085 12.4646C13.9973 12.4055 13.9972 12.3447 14.0084 12.2857C14.0196 12.2266 14.0417 12.1705 14.0736 12.1204C14.1055 12.0703 14.1465 12.0273 14.1942 11.9938C14.242 11.9604 14.2956 11.9371 14.3519 11.9253C14.4083 11.9135 14.4663 11.9134 14.5226 11.9251C14.579 11.9368 14.6326 11.96 14.6804 11.9934L18.6179 14.7434C18.6961 14.798 18.7554 14.8775 18.7871 14.9702C18.8187 15.0628 18.8211 15.1637 18.7938 15.2579C18.7666 15.3521 18.7111 15.4345 18.6356 15.4931C18.5601 15.5517 18.4686 15.5832 18.3747 15.5831Z" fill="#5B5B5B"/>
</svg>
