<svg width="27" height="27" viewBox="0 0 27 27" fill="none" xmlns="http://www.w3.org/2000/svg">
<path d="M13.5375 1.25C18.8096 1.27072 23.0831 5.57222 23.0624 10.8376V10.9422C22.9912 14.705 20.729 17.8275 18.8442 19.7839C18.3078 20.3433 17.7368 20.88 17.1481 21.3812C16.7954 21.6821 16.2659 21.6407 15.9646 21.2885C15.6633 20.9353 15.7058 20.4065 16.0585 20.1056C16.6038 19.6409 17.1342 19.1417 17.6331 18.6217C19.3105 16.8814 21.3218 14.1298 21.383 10.9116C21.3998 6.49073 17.8781 2.94396 13.5305 2.9262H13.4999C9.1672 2.9262 5.63364 6.43844 5.61685 10.7685C5.69094 12.9075 6.41405 14.9408 7.70913 16.6466C9.22054 18.6592 11.5134 20.7903 13.6926 22.209C14.0818 22.4615 14.1914 22.9805 13.9375 23.3692C13.7775 23.6158 13.5078 23.75 13.2332 23.75C13.0761 23.75 12.9181 23.7066 12.7758 23.6139C10.4425 22.0955 7.98671 19.8125 6.36762 17.6569C4.86509 15.6768 4.02443 13.3139 3.9375 10.8268C3.95824 5.50908 8.24454 1.25 13.4999 1.25H13.5375ZM13.497 7.30633C15.5033 7.30633 17.1362 8.93617 17.1362 10.9409C17.1362 12.9447 15.5033 14.5745 13.497 14.5745C11.4906 14.5745 9.85771 12.9447 9.85771 10.9409C9.85771 10.4772 10.2341 10.1023 10.6974 10.1023C11.1607 10.1023 11.5371 10.4772 11.5371 10.9409C11.5371 12.0192 12.4162 12.8983 13.497 12.8983C14.5777 12.8983 15.4569 12.0192 15.4569 10.9409C15.4569 9.86158 14.5777 8.98254 13.497 8.98254C13.0337 8.98254 12.6573 8.60764 12.6573 8.14493C12.6573 7.68124 13.0337 7.30633 13.497 7.30633Z" fill="#5B5B5B"/>
</svg>
