<svg width="24" height="24" viewBox="0 0 24 24" fill="none" xmlns="http://www.w3.org/2000/svg">
<path d="M18.2422 20.0005C18.1207 20.0006 18.0023 19.9614 17.905 19.8887C17.8076 19.8159 17.7364 19.7136 17.702 19.5971C17.6677 19.4805 17.672 19.3559 17.7143 19.242C17.7567 19.1281 17.8348 19.0309 17.9369 18.9651C18.4669 18.6159 18.9177 18.1593 19.2599 17.6249C19.5836 17.1332 19.6946 16.7354 19.5907 16.4414C19.3796 15.8436 18.2429 15.412 17.2766 15.1026C16.8499 14.9645 16.3933 14.9471 15.9573 15.0526C15.5214 15.158 15.1232 15.3821 14.8068 15.7L14.4408 16.0664C14.3753 16.132 14.2945 16.1805 14.2057 16.2074C13.9544 16.2824 12.5756 16.5314 10.0226 13.978C9.97024 13.9258 9.92872 13.8637 9.90036 13.7955C9.87201 13.7272 9.85738 13.654 9.85731 13.5801C9.85724 13.5062 9.87173 13.4329 9.89996 13.3646C9.92819 13.2963 9.96959 13.2342 10.0218 13.1819C10.074 13.1295 10.1361 13.088 10.2043 13.0597C10.2726 13.0313 10.3458 13.0167 10.4197 13.0166C10.4937 13.0165 10.5669 13.031 10.6352 13.0593C10.7035 13.0875 10.7656 13.1289 10.8179 13.1811C12.4927 14.8562 13.4729 15.0917 13.7954 15.1191L14.0114 14.9031C14.4739 14.4391 15.0556 14.112 15.6922 13.9578C16.3289 13.8036 16.9958 13.8284 17.6193 14.0294C18.8812 14.4336 20.2597 14.9571 20.6512 16.0649C20.8788 16.708 20.7262 17.4404 20.2012 18.2399C19.773 18.907 19.2094 19.4768 18.5471 19.9124C18.456 19.9704 18.3502 20.001 18.2422 20.0005ZM15.5396 20.755C12.9648 20.755 10.0087 19.2662 7.37094 16.6281C7.31722 16.5762 7.27437 16.5142 7.24489 16.4455C7.21541 16.3769 7.19989 16.3031 7.19924 16.2284C7.19859 16.1537 7.21282 16.0796 7.24111 16.0105C7.26939 15.9414 7.31116 15.8786 7.36397 15.8258C7.41679 15.7729 7.47959 15.7312 7.54872 15.7029C7.61785 15.6746 7.69192 15.6604 7.76661 15.661C7.84129 15.6617 7.91511 15.6772 7.98373 15.7067C8.05236 15.7362 8.11443 15.779 8.16632 15.8327C10.6556 18.3224 13.5176 19.7372 15.8126 19.6232C15.8866 19.6185 15.9608 19.6286 16.0308 19.653C16.1008 19.6774 16.1652 19.7156 16.2203 19.7653C16.2753 19.815 16.3198 19.8752 16.3511 19.9424C16.3825 20.0096 16.4001 20.0824 16.4028 20.1565C16.4104 20.3055 16.3584 20.4514 16.2584 20.562C16.1584 20.6727 16.0186 20.7392 15.8696 20.7467C15.7604 20.752 15.6502 20.755 15.5396 20.755Z" fill="#5B5B5B"/>
<path d="M7.76967 16.793C7.6958 16.7931 7.62266 16.7785 7.55444 16.7502C7.48622 16.7219 7.42427 16.6803 7.37217 16.628C4.53417 13.7904 3.00342 10.4956 3.27754 7.81475C3.35542 6.99984 3.61973 6.21377 4.05 5.51734C4.48028 4.82091 5.06499 4.2328 5.75892 3.7985C6.56029 3.2735 7.29267 3.12088 7.93392 3.3485C9.04167 3.74 9.56554 5.1185 9.96942 6.38038C10.1707 7.00383 10.1956 7.67082 10.0414 8.30755C9.88722 8.94429 9.5599 9.52597 9.09567 9.98825L8.87404 10.2103C8.90104 10.5001 9.11967 11.4853 10.8177 13.1818C10.9201 13.2878 10.9768 13.4299 10.9755 13.5774C10.9743 13.7249 10.9151 13.866 10.8108 13.9703C10.7065 14.0746 10.5654 14.1337 10.418 14.135C10.2705 14.1363 10.1284 14.0796 10.0223 13.9771C7.46929 11.4245 7.71754 10.0449 7.79292 9.79438C7.81957 9.70547 7.86804 9.62464 7.93392 9.55925L8.30029 9.19288C8.61793 8.87641 8.84184 8.47825 8.94727 8.04245C9.0527 7.60664 9.03553 7.15016 8.89767 6.7235C8.58829 5.75675 8.15667 4.62013 7.55929 4.409C7.26492 4.30513 6.86667 4.41613 6.37542 4.73938C5.82003 5.0807 5.35189 5.54682 5.00818 6.10073C4.66447 6.65464 4.45466 7.28107 4.39542 7.93025C4.15504 10.2778 5.56467 13.2324 8.16604 15.8334C8.24476 15.912 8.29837 16.0123 8.3201 16.1214C8.34182 16.2306 8.33068 16.3437 8.28809 16.4465C8.24549 16.5494 8.17336 16.6372 8.08081 16.699C7.98826 16.7608 7.87946 16.7938 7.76817 16.7938L7.76967 16.793Z" fill="#5B5B5B"/>
</svg>
