<svg width="207" height="83" viewBox="0 0 207 83" fill="none" xmlns="http://www.w3.org/2000/svg">
<rect width="207" height="71" rx="5" fill="#252525"/>
<path d="M34.5 83L20 71H49L34.5 83Z" fill="#252525"/>
<path fill-rule="evenodd" clip-rule="evenodd" d="M22.9568 17.9494L23.2065 18.1829L23.865 18.799L28.6759 23.2989C28.0994 23.7088 27.5558 24.1601 27.0496 24.6485L26.6464 24.2929L23.0421 21.113L21.2271 19.5118C21.7746 18.9616 22.352 18.44 22.9568 17.9494ZM25.8268 25.2492L26.2172 25.5235C25.8611 25.9317 25.5287 26.3604 25.2223 26.8075L24.6983 26.472L22.2458 24.902L18.6669 22.6109C19.0341 22.0712 19.4256 21.5486 19.8398 21.0447L25.8268 25.2492ZM17.6314 24.2949C17.3497 24.8044 17.0885 25.3263 16.8487 25.8595L17.043 25.9442L23.3186 28.6789L24.0071 28.9789C24.1756 28.6008 24.3608 28.2314 24.562 27.8718L24.0217 27.5929L21.4293 26.255L17.6314 24.2949ZM15.6564 29.2664C15.7868 28.757 15.9357 28.2548 16.1026 27.7604L16.2962 27.8235L22.8158 29.9443L23.5391 30.1796C23.4394 30.4768 23.3496 30.7784 23.2702 31.084L23.0524 31.032L16.3774 29.4385L15.6564 29.2664ZM15.1284 32.1637C15.0435 32.9311 15 33.7106 15 34.5C15 46.3741 24.8497 56 37 56C49.1503 56 59 46.3741 59 34.5C59 22.6259 49.1503 13 37 13C36.8138 13 36.6281 13.0023 36.443 13.0068V17.6266L35.9208 13.0254C34.7622 13.0801 33.6271 13.2224 32.5224 13.4456L33.6582 19.8038L31.261 13.7389C30.2384 14.0082 29.2453 14.3477 28.2875 14.7519L31.4304 21.4367L26.7095 15.4921C25.8775 15.9232 25.0772 16.4049 24.3129 16.9331L24.4303 17.0725L25.0101 17.7599L29.3183 22.8681C31.5312 21.4695 34.1686 20.6575 37 20.6575C44.8228 20.6575 51.1644 26.855 51.1644 34.5C51.1644 42.145 44.8228 48.3425 37 48.3425C29.1772 48.3425 22.8356 42.145 22.8356 34.5C22.8356 33.9719 22.8659 33.4506 22.9248 32.9379L22.7203 32.9176L15.8843 32.2388L15.1284 32.1637Z" fill="#D0FF48"/>
<path d="M136 53.8802V49.1198H136.9C137.549 49.1198 138.02 49.1769 138.313 49.2913C138.734 49.4531 139.062 49.7336 139.298 50.1327C139.536 50.5318 139.655 51.0076 139.655 51.5598C139.655 52.0367 139.561 52.4563 139.372 52.8187C139.185 53.1812 138.941 53.4488 138.64 53.6214C138.341 53.7939 137.921 53.8802 137.38 53.8802H136ZM136.416 53.4304H136.918C137.517 53.4304 137.933 53.3894 138.165 53.3074C138.492 53.1909 138.748 52.9816 138.935 52.6796C139.122 52.3754 139.215 52.0043 139.215 51.5663C139.215 51.1068 139.114 50.7141 138.911 50.3883C138.709 50.0626 138.427 49.8393 138.065 49.7185C137.794 49.6278 137.346 49.5825 136.723 49.5825H136.416V53.4304ZM141.642 49.1198H142.076V53.8802H141.642V49.1198ZM148.467 49.9191L148.131 50.2686C147.889 50.0076 147.623 49.8101 147.335 49.6764C147.048 49.5404 146.767 49.4725 146.494 49.4725C146.153 49.4725 145.829 49.5642 145.52 49.7475C145.213 49.9309 144.975 50.1801 144.806 50.4952C144.637 50.808 144.552 51.1392 144.552 51.4887C144.552 51.8468 144.64 52.1877 144.815 52.5113C144.99 52.8328 145.232 53.0863 145.541 53.2718C145.85 53.4552 146.188 53.5469 146.556 53.5469C147.002 53.5469 147.38 53.4088 147.689 53.1327C147.997 52.8565 148.18 52.4983 148.237 52.0583H146.854V51.5987H148.724C148.72 52.3344 148.52 52.9191 148.125 53.3527C147.731 53.7842 147.205 54 146.544 54C145.741 54 145.106 53.7001 144.638 53.1003C144.278 52.6386 144.098 52.1046 144.098 51.4983C144.098 51.0475 144.201 50.6278 144.408 50.2395C144.615 49.8511 144.898 49.548 145.257 49.3301C145.618 49.11 146.025 49 146.479 49C146.846 49 147.193 49.0734 147.518 49.2201C147.842 49.3646 148.159 49.5976 148.467 49.9191ZM150.696 49.1198H151.13V53.8802H150.696V49.1198ZM152.904 49.5825V49.1198H155.285V49.5825H154.317V53.8802H153.875V49.5825H152.904ZM158.889 49.1198L160.912 53.8802H160.446L159.765 52.3139H157.894L157.216 53.8802H156.732L158.783 49.1198H158.889ZM158.836 50.1294L158.09 51.8544H159.573L158.836 50.1294ZM162.797 49.1198H163.233V53.4207H164.9V53.8802H162.797V49.1198ZM176.605 50.0032L176.263 50.2913C176.073 50.0216 175.846 49.8177 175.581 49.6796C175.317 49.5394 175.027 49.4692 174.71 49.4692C174.364 49.4692 174.044 49.561 173.749 49.7444C173.454 49.9256 173.225 50.1705 173.062 50.479C172.9 50.7853 172.819 51.1305 172.819 51.5146C172.819 52.0949 173.001 52.5793 173.363 52.9676C173.726 53.356 174.184 53.5502 174.737 53.5502C175.345 53.5502 175.854 53.2891 176.263 52.767L176.605 53.0518C176.388 53.3538 176.118 53.5879 175.793 53.754C175.471 53.918 175.11 54 174.71 54C173.952 54 173.353 53.7228 172.914 53.1683C172.546 52.7001 172.363 52.1348 172.363 51.4725C172.363 50.7756 172.584 50.1899 173.029 49.7152C173.476 49.2384 174.034 49 174.704 49C175.11 49 175.476 49.0885 175.802 49.2654C176.128 49.4402 176.396 49.6861 176.605 50.0032ZM178.709 49.1198H179.574C180.056 49.1198 180.382 49.1413 180.553 49.1844C180.811 49.2492 181.02 49.3884 181.182 49.6019C181.343 49.8134 181.424 50.0744 181.424 50.3851C181.424 50.644 181.368 50.8716 181.255 51.0679C181.145 51.2643 180.987 51.4132 180.78 51.5146C180.574 51.6138 180.289 51.6645 179.925 51.6667L181.485 53.8802H180.948L179.391 51.6667H179.143V53.8802H178.709V49.1198ZM179.143 49.5858V51.2039L179.89 51.2104C180.179 51.2104 180.392 51.1801 180.53 51.1198C180.669 51.0593 180.777 50.9633 180.854 50.8317C180.933 50.698 180.972 50.5491 180.972 50.3851C180.972 50.2255 180.933 50.0809 180.854 49.9515C180.776 49.8199 180.672 49.726 180.544 49.6699C180.417 49.6138 180.204 49.5858 179.907 49.5858H179.143ZM183.567 49.1198H186.054V49.589H184.001V51.0777H186.036V51.5437H184.001V53.411H186.036V53.8802H183.567V49.1198ZM187.767 49.1198H188.212L189.094 52.5502L190.339 49.1198H190.428L191.658 52.5502L192.557 49.1198H193L191.755 53.8802H191.672L190.386 50.2783L189.074 53.8802H188.991L187.767 49.1198Z" fill="white"/>
<path d="M87 23V42H91V23H87Z" fill="white"/>
<path d="M88.5 22C89.8807 22 91 20.8807 91 19.5C91 18.1193 89.8807 17 88.5 17C87.1193 17 86 18.1193 86 19.5C86 20.8807 87.1193 22 88.5 22Z" fill="white"/>
<path d="M104 28.3301H99.7901V36.5236C99.7901 37.2292 99.9486 37.7412 100.265 38.0599C100.582 38.3558 101.046 38.5265 101.657 38.572C102.291 38.5947 103.072 38.5834 104 38.5378V41.8494C101.193 42.1908 99.179 41.9518 97.9568 41.1325C96.7346 40.2903 96.1235 38.7541 96.1235 36.5236V28.3301H93V24.7796H96.1235V21.0925L99.7901 20V24.7796H104V28.3301Z" fill="white"/>
<path d="M152 28.3301H147.79V36.5236C147.79 37.2292 147.949 37.7412 148.265 38.0599C148.582 38.3558 149.046 38.5265 149.657 38.572C150.291 38.5947 151.072 38.5834 152 38.5378V41.8494C149.193 42.1908 147.179 41.9518 145.957 41.1325C144.735 40.2903 144.123 38.7541 144.123 36.5236V28.3301H141V24.7796H144.123V21.0925L147.79 20V24.7796H152V28.3301Z" fill="white"/>
<path d="M169.346 24.4449H173V41.5551H169.346V39.0913C167.97 41.0304 165.996 42 163.425 42C161.102 42 159.117 41.1331 157.47 39.3992C155.823 37.6426 155 35.5095 155 33C155 30.4677 155.823 28.3346 157.47 26.6008C159.117 24.8669 161.102 24 163.425 24C165.996 24 167.97 24.9582 169.346 26.8745V24.4449ZM160.177 36.9354C161.192 37.962 162.466 38.4753 164 38.4753C165.534 38.4753 166.808 37.962 167.823 36.9354C168.838 35.8859 169.346 34.5741 169.346 33C169.346 31.4259 168.838 30.1255 167.823 29.0989C166.808 28.0494 165.534 27.5247 164 27.5247C162.466 27.5247 161.192 28.0494 160.177 29.0989C159.162 30.1255 158.654 31.4259 158.654 33C158.654 34.5741 159.162 35.8859 160.177 36.9354Z" fill="white"/>
<path d="M131.67 24.4114C133.56 24.4114 135.088 25.04 136.253 26.2971C137.418 27.5543 138 29.28 138 31.4743V42H134.44V31.8514C134.44 30.5714 134.11 29.5886 133.451 28.9029C132.791 28.2171 131.89 27.8743 130.747 27.8743C129.495 27.8743 128.484 28.2857 127.714 29.1086C126.945 29.9086 126.56 31.1429 126.56 32.8114V42H123V18H126.56V27.0514C127.637 25.2914 129.341 24.4114 131.67 24.4114Z" fill="white"/>
<path d="M110.561 29.1673C110.561 29.7376 110.877 30.1939 111.509 30.5361C112.164 30.8555 112.947 31.1407 113.86 31.3916C114.795 31.6198 115.731 31.8935 116.667 32.2129C117.602 32.5323 118.386 33.0798 119.018 33.8555C119.673 34.6084 120 35.5665 120 36.73C120 38.3726 119.345 39.6616 118.035 40.597C116.749 41.5323 115.123 42 113.158 42C111.427 42 109.942 41.6464 108.702 40.9392C107.462 40.2319 106.561 39.251 106 37.9962L109.263 36.1483C109.871 37.7909 111.17 38.6122 113.158 38.6122C115.146 38.6122 116.14 37.9734 116.14 36.6958C116.14 36.1483 115.813 35.7034 115.158 35.3612C114.526 35.019 113.743 34.7338 112.807 34.5057C111.895 34.2548 110.971 33.9696 110.035 33.6502C109.099 33.3308 108.304 32.8061 107.649 32.076C107.018 31.3232 106.702 30.3764 106.702 29.2357C106.702 27.6616 107.31 26.3954 108.526 25.4373C109.766 24.4791 111.298 24 113.123 24C114.573 24 115.86 24.3194 116.982 24.9582C118.129 25.5741 119.006 26.4411 119.614 27.5589L116.421 29.3042C115.813 28.0038 114.713 27.3536 113.123 27.3536C112.398 27.3536 111.789 27.5133 111.298 27.8327C110.807 28.1293 110.561 28.5741 110.561 29.1673Z" fill="white"/>
<path d="M176 19.4545V42H180V18L176 19.4545Z" fill="white"/>
<path fill-rule="evenodd" clip-rule="evenodd" d="M185.162 42C189.731 42 193 38.0916 193 33.2703C193 28.449 189.731 25 185.162 25C180.593 25 178 28.449 178 33.2703C178 38.0916 180.593 42 185.162 42ZM184.438 38.3571C187.331 38.3571 189.4 35.9842 189.4 33.057C189.4 30.1298 187.331 28.0357 184.438 28.0357C181.545 28.0357 179.2 30.1298 179.2 33.057C179.2 35.9842 181.545 38.3571 184.438 38.3571Z" fill="white"/>
<path d="M73.2667 28.1448C72.7778 28.6197 72.1889 28.8571 71.5 28.8571C70.8111 28.8571 70.2222 28.6197 69.7333 28.1448C69.2444 27.6698 69 27.0978 69 26.4286C69 25.7378 69.2333 25.1657 69.7 24.7124C70.1889 24.2375 70.7889 24 71.5 24C72.1889 24 72.7778 24.2375 73.2667 24.7124C73.7556 25.1873 74 25.7594 74 26.4286C74 27.0978 73.7556 27.6698 73.2667 28.1448ZM73.2667 40.2876C72.7778 40.7625 72.1889 41 71.5 41C70.8111 41 70.2222 40.7625 69.7333 40.2876C69.2444 39.8127 69 39.2406 69 38.5714C69 37.9022 69.2333 37.3302 69.7 36.8552C70.1889 36.3803 70.7889 36.1429 71.5 36.1429C72.1889 36.1429 72.7778 36.3803 73.2667 36.8552C73.7556 37.3302 74 37.9022 74 38.5714C74 39.2406 73.7556 39.8127 73.2667 40.2876Z" fill="white"/>
</svg>
