<svg width="287" height="108" viewBox="0 0 287 108" fill="none" xmlns="http://www.w3.org/2000/svg">
<path d="M0 39L14.628 4.35169C15.3298 2.69915 16.124 1.56075 17.0106 0.93644C17.934 0.312128 19.2638 0 21 0C22.6623 0 23.9552 0.330508 24.8786 0.991525C25.8391 1.61584 26.6702 2.73586 27.372 4.35169L42 39H34.2982L30.3087 29.25H11.6359L7.70185 39H0ZM19.8918 8.37288L13.5198 24.072H28.4248L22.1082 8.37288C21.7018 7.30789 21.3325 6.77542 21 6.77542C20.6675 6.77542 20.2982 7.30789 19.8918 8.37288Z" fill="white"/>
<path d="M89.9877 1L101.662 32.1229C101.662 32.1596 101.699 32.2514 101.774 32.3983C101.849 32.5085 101.904 32.6003 101.941 32.6737C102.016 32.7104 102.09 32.7655 102.165 32.839C102.277 32.9124 102.388 32.9492 102.5 32.9492C102.612 32.9492 102.705 32.9124 102.779 32.839C102.891 32.7655 102.966 32.7104 103.003 32.6737C103.077 32.6003 103.151 32.5085 103.226 32.3983C103.301 32.2514 103.338 32.1596 103.338 32.1229L115.012 1H123L108.812 35.8136C107.695 38.6045 105.591 40 102.5 40C99.409 40 97.3052 38.6045 96.188 35.8136L82 1H89.9877Z" fill="white"/>
<path d="M128 40L142.628 5.35169C143.33 3.69915 144.124 2.56075 145.011 1.93644C145.934 1.31213 147.264 1 149 1C150.662 1 151.955 1.33051 152.879 1.99152C153.839 2.61584 154.67 3.73586 155.372 5.35169L170 40H162.298L158.309 30.25H139.636L135.702 40H128ZM147.892 9.37288L141.52 25.072H156.425L150.108 9.37288C149.702 8.30789 149.332 7.77542 149 7.77542C148.668 7.77542 148.298 8.30789 147.892 9.37288Z" fill="white"/>
<path d="M213 1.44693V35.4693C213 37.3315 212.452 38.7281 211.355 39.6592C210.259 40.5531 208.841 41 207.101 41C204.228 41 202.091 39.9013 200.693 37.7039L183.961 11.6704C183.507 11.0372 183.205 10.7207 183.054 10.7207C182.524 10.7207 182.26 11.0931 182.26 11.838V40.5531H175V6.30726C175 4.63129 175.53 3.32773 176.588 2.39665C177.685 1.46557 179.178 1 181.069 1C183.98 1 186.079 2.02423 187.364 4.07263L204.209 30.2737C204.247 30.3483 204.303 30.46 204.379 30.6089C204.455 30.7207 204.512 30.8138 204.549 30.8883C204.625 30.9628 204.7 31.0372 204.776 31.1117C204.89 31.1862 205.003 31.2235 205.116 31.2235C205.533 31.2235 205.74 30.9069 205.74 30.2737V1.44693H213Z" fill="white"/>
<path d="M67.2912 39H50.8151C46.9384 39 45 37.05 45 33.15V5.85C45 1.95 46.9384 0 50.8151 0H66.265C68.8875 0 71.168 0.39 73.1063 1.17C75.0447 1.91288 76.5648 2.89714 77.6672 4.12286C78.8074 5.31145 79.7004 6.79714 80.3467 8.58C81.0308 10.3629 81.4677 12.1086 81.6579 13.8171C81.886 15.4886 82 17.3829 82 19.5C82 21.58 81.886 23.4743 81.6579 25.1829C81.4677 26.8914 81.05 28.6371 80.4037 30.42C79.7958 32.2029 78.9592 33.7071 77.8952 34.9329C76.869 36.1214 75.4438 37.1057 73.6194 37.8857C71.8329 38.6286 69.7235 39 67.2912 39ZM63.6425 5.85H55.376C54.2358 5.85 53.4756 6.03573 53.0955 6.40714C52.7155 6.77855 52.5254 7.52143 52.5254 8.63572V30.3643C52.5254 31.4786 52.7155 32.2215 53.0955 32.5929C53.4756 32.9643 54.2358 33.15 55.376 33.15H63.6425C65.8468 33.15 67.6711 32.8343 69.1156 32.2029C70.56 31.5343 71.6432 30.5314 72.3652 29.1943C73.0871 27.8571 73.5816 26.4457 73.8475 24.96C74.1133 23.4743 74.2465 21.6543 74.2465 19.5C74.2465 17.3457 74.1133 15.5257 73.8475 14.04C73.5816 12.5543 73.0871 11.1429 72.3652 9.80571C71.6432 8.46857 70.56 7.48431 69.1156 6.85286C67.6711 6.18429 65.8468 5.85 63.6425 5.85Z" fill="white"/>
<path d="M287 34.15V40H260.818C256.939 40 255 38.05 255 34.15V6.85C255 2.95 256.939 1 260.818 1H286.772V6.85H265.381C264.241 6.85 263.48 7.03573 263.1 7.40714C262.72 7.77855 262.529 8.52143 262.529 9.63572V17.1571H286.201V23.0071H262.529V31.3643C262.529 32.4786 262.72 33.2215 263.1 33.5929C263.48 33.9643 264.241 34.15 265.381 34.15H287Z" fill="white"/>
<path d="M250 40H233.64C230.39 40 227.645 39.5357 225.404 38.6071C223.163 37.6414 221.445 36.2486 220.25 34.4286C219.054 32.5714 218.214 30.5286 217.728 28.3C217.243 26.0714 217 23.4715 217 20.5C217 17.5286 217.243 14.9286 217.728 12.7C218.214 10.4714 219.054 8.44712 220.25 6.62714C221.445 4.76998 223.163 3.37712 225.404 2.44857C227.645 1.48284 230.39 1 233.64 1H249.384V6.85H237.114C232.333 6.85 229.046 7.81573 227.253 9.74714C225.497 11.6414 224.62 15.2257 224.62 20.5C224.62 25.7743 225.497 29.3772 227.253 31.3086C229.046 33.2029 232.333 34.15 237.114 34.15H250V40Z" fill="white"/>
<path d="M126 62H120.187C119.396 62 119 61.64 119 60.92V53H120.24V60.4829C120.24 60.6886 120.28 60.83 120.36 60.9071C120.449 60.9843 120.604 61.0229 120.827 61.0229H126V62Z" fill="white"/>
<path d="M187 62H181.187C180.396 62 180 61.64 180 60.92V53H181.24V60.4829C181.24 60.6886 181.28 60.83 181.36 60.9071C181.449 60.9843 181.604 61.0229 181.827 61.0229H187V62Z" fill="white"/>
<path d="M220 62V54.3629C220 53.4543 220.505 53 221.515 53H226.279C227.181 53 227.824 53.2314 228.206 53.6943C228.588 54.1571 228.779 54.8343 228.779 55.7257C228.779 56.6514 228.598 57.3629 228.235 57.86C227.882 58.3486 227.284 58.5929 226.441 58.5929H224.779V58.6571L229 62H227.176L223.235 58.8371C222.98 58.6314 222.853 58.4429 222.853 58.2714V58.0657C222.853 57.7657 223.059 57.6157 223.471 57.6157H225.985C226.554 57.6157 226.922 57.4614 227.088 57.1529C227.265 56.8443 227.353 56.3686 227.353 55.7257C227.353 55.1086 227.25 54.6629 227.044 54.3886C226.838 54.1143 226.412 53.9771 225.765 53.9771H222.103C221.848 53.9771 221.662 54.0243 221.544 54.1186C221.426 54.2043 221.368 54.3629 221.368 54.5943V62H220Z" fill="white"/>
<path d="M240.5 52C242.168 52 243.332 52.3678 243.994 53.1033C244.665 53.8389 245 55.1378 245 57C245 58.8622 244.665 60.1611 243.994 60.8966C243.332 61.6322 242.168 62 240.5 62C238.841 62 237.676 61.6322 237.006 60.8966C236.335 60.1611 236 58.8622 236 57C236 55.1378 236.335 53.8389 237.006 53.1033C237.676 52.3678 238.841 52 240.5 52ZM237.921 53.9134C237.474 54.4721 237.251 55.5009 237.251 57C237.251 58.4991 237.474 59.5326 237.921 60.1006C238.377 60.6592 239.236 60.9385 240.5 60.9385C241.764 60.9385 242.619 60.6592 243.066 60.1006C243.521 59.5326 243.749 58.4991 243.749 57C243.749 55.5009 243.521 54.4721 243.066 53.9134C242.619 53.3454 241.764 53.0615 240.5 53.0615C239.236 53.0615 238.377 53.3454 237.921 53.9134Z" fill="white"/>
<path d="M164 62L167.674 53.0876C167.831 52.7109 168.006 52.4378 168.199 52.2684C168.392 52.0895 168.659 52 169 52C169.331 52 169.599 52.0895 169.801 52.2684C170.013 52.4473 170.192 52.7203 170.34 53.0876L174 62H172.646L171.555 59.3164H166.431L165.354 62H164ZM168.669 53.709L166.818 58.2429H171.169L169.345 53.709C169.207 53.3889 169.092 53.2288 169 53.2288C168.972 53.2288 168.945 53.2382 168.917 53.2571C168.899 53.2665 168.88 53.2853 168.862 53.3136C168.843 53.3324 168.82 53.3606 168.793 53.3983C168.774 53.436 168.761 53.4689 168.751 53.4972C168.742 53.5254 168.728 53.5631 168.71 53.6102C168.692 53.6573 168.678 53.6902 168.669 53.709Z" fill="white"/>
<path d="M156 57.7314V60.83C156 61.61 155.607 62 154.822 62H151.571C150.871 62 150.278 61.8886 149.792 61.6657C149.314 61.4343 148.947 61.1043 148.691 60.6757C148.435 60.2471 148.256 59.78 148.154 59.2743C148.051 58.7686 148 58.1771 148 57.5C148 56.8229 148.051 56.2314 148.154 55.7257C148.265 55.22 148.448 54.7529 148.704 54.3243C148.969 53.8957 149.353 53.57 149.856 53.3471C150.368 53.1157 150.995 53 151.738 53H155.795V53.9771H152.134C151.042 53.9771 150.287 54.2514 149.869 54.8C149.451 55.34 149.242 56.24 149.242 57.5C149.242 58.7514 149.442 59.6514 149.843 60.2C150.244 60.7486 150.948 61.0229 151.955 61.0229H154.221C154.443 61.0229 154.596 60.98 154.682 60.8943C154.767 60.8 154.81 60.6414 154.81 60.4186V57.7314H156Z" fill="white"/>
<path d="M254.916 60.5254C255.326 60.8644 256.021 61.0339 257 61.0339C257.979 61.0339 258.674 60.8644 259.084 60.5254C259.494 60.1864 259.699 59.6059 259.699 58.7839V53H261V58.8983C261 60.0169 260.66 60.8136 259.979 61.2881C259.298 61.7627 258.305 62 257 62C255.695 62 254.702 61.7627 254.021 61.2881C253.34 60.8136 253 60.0169 253 58.8983V53H254.301V58.7839C254.301 59.6059 254.506 60.1864 254.916 60.5254Z" fill="white"/>
<path d="M212 57.7314V60.83C212 61.61 211.607 62 210.822 62H207.571C206.871 62 206.278 61.8886 205.792 61.6657C205.314 61.4343 204.947 61.1043 204.691 60.6757C204.435 60.2471 204.256 59.78 204.154 59.2743C204.051 58.7686 204 58.1771 204 57.5C204 56.8229 204.051 56.2314 204.154 55.7257C204.265 55.22 204.448 54.7529 204.704 54.3243C204.969 53.8957 205.353 53.57 205.856 53.3471C206.368 53.1157 206.995 53 207.738 53H211.795V53.9771H208.134C207.042 53.9771 206.287 54.2514 205.869 54.8C205.451 55.34 205.242 56.24 205.242 57.5C205.242 58.7514 205.442 59.6514 205.843 60.2C206.244 60.7486 206.948 61.0229 207.955 61.0229H210.221C210.443 61.0229 210.596 60.98 210.682 60.8943C210.767 60.8 210.81 60.6414 210.81 60.4186V57.7314H212Z" fill="white"/>
<path d="M141 62H134.465C133.488 62 133 61.5757 133 60.7271V54.2729C133 53.81 133.125 53.4843 133.374 53.2957C133.623 53.0986 133.987 53 134.465 53H140.94V53.9771H135.079C134.799 53.9771 134.615 54.02 134.525 54.1057C134.436 54.1914 134.391 54.35 134.391 54.5814V56.9086H140.791V57.8857H134.391V60.4057C134.391 60.6371 134.436 60.8 134.525 60.8943C134.615 60.98 134.799 61.0229 135.079 61.0229H141V62Z" fill="white"/>
<path d="M270.253 62H269V54.2086C269 53.7629 269.103 53.45 269.31 53.27C269.525 53.09 269.844 53 270.266 53H274.589C275.487 53 276.111 53.2314 276.461 53.6943C276.82 54.1486 277 54.8343 277 55.7514C277 56.7029 276.825 57.41 276.475 57.8729C276.125 58.3357 275.496 58.5671 274.589 58.5671H270.253V62ZM270.253 57.59H274.145C274.773 57.59 275.186 57.4486 275.384 57.1657C275.59 56.8743 275.694 56.4029 275.694 55.7514C275.694 55.1257 275.59 54.6757 275.384 54.4014C275.177 54.1186 274.764 53.9771 274.145 53.9771H270.859C270.607 53.9771 270.441 54.02 270.36 54.1057C270.288 54.1914 270.253 54.3457 270.253 54.5686V57.59Z" fill="white"/>
<path d="M276 47H1" stroke="#9DA8A9" stroke-linecap="round"/>
<path d="M40.4949 53.2809V53H40L40.245 53.4203L40.4949 53.2809ZM49.4009 68.5513L49.1511 68.6907L49.2338 68.8322H49.4009V68.5513ZM58.3072 53.2809L58.5562 53.141L58.4734 53H58.3072V53.2809ZM70.6664 74.2335L70.9132 74.3778L71 74.2363L70.9155 74.093L70.6664 74.2335ZM66.8498 80.4477L66.6013 80.5893L66.8457 81L67.0965 80.5926L66.8498 80.4477ZM66.8009 80.3657L66.5277 80.4544L66.5375 80.482L66.5524 80.5072L66.8009 80.3657ZM66.6858 80.1134L66.4357 80.2522L66.6858 80.1134ZM55.0604 60.0716L55.3105 59.9329L55.0604 60.0716ZM53.1005 59.5418L53.2423 59.7862L53.1005 59.5418ZM52.5584 61.4566L52.8086 61.3179L52.5584 61.4566ZM56.6739 68.5513V68.8322H57.1672L56.9241 68.4131L56.6739 68.5513ZM40.245 53.4203L49.1511 68.6907L49.6508 68.412L40.7447 53.1422L40.245 53.4203ZM58.3072 53H40.4949V53.5619H58.3072V53ZM70.9155 74.093L58.5562 53.141L58.0581 53.4214L70.4174 74.3734L70.9155 74.093ZM67.0965 80.5926L70.9132 74.3778L70.4197 74.0885L66.603 80.3033L67.0965 80.5926ZM66.5524 80.5072L66.6013 80.5893L67.0982 80.3067L67.0493 80.2246L66.5524 80.5072ZM66.4357 80.2522C66.4742 80.3179 66.5047 80.3853 66.5277 80.4544L67.0735 80.2774C67.039 80.1741 66.993 80.0729 66.936 79.9752L66.4357 80.2522ZM54.8102 60.2099L66.4357 80.2522L66.936 79.9752L55.3105 59.9329L54.8102 60.2099ZM53.2423 59.7862C53.795 59.48 54.497 59.6699 54.8102 60.2099L55.3105 59.9329C54.8408 59.1232 53.7878 58.8383 52.9587 59.2974L53.2423 59.7862ZM52.8086 61.3179C52.4954 60.7779 52.6896 60.0924 53.2423 59.7862L52.9587 59.2974C52.1297 59.7564 51.8384 60.7852 52.3082 61.5949L52.8086 61.3179ZM56.9241 68.4131L52.8086 61.3179L52.3082 61.5949L56.4237 68.6901L56.9241 68.4131ZM49.4009 68.8322H56.6739V68.2704H49.4009V68.8322Z" fill="white"/>
<path d="M72.3265 107.424L72.0829 107.572L72.3333 108L72.5729 107.567L72.3265 107.424ZM81.0412 91.6618L81.2876 91.8042L81.3686 91.6577L81.2842 91.513L81.0412 91.6618ZM63.3268 92.038L63.0793 91.8968L63 92.0426L63.0838 92.1861L63.3268 92.038ZM75.2142 70.2894L75.2148 70H75.0483L74.9667 70.1487L75.2142 70.2894ZM82.5208 70.3027L82.7683 70.4428L83 70.0139L82.5208 70.0133V70.3027ZM82.4743 70.3884L82.6885 70.5776L82.7077 70.5545L82.7219 70.5284L82.4743 70.3884ZM82.314 70.6204L82.5604 70.7634L82.314 70.6204ZM70.8435 91.2543L70.5971 91.1114L70.8435 91.2543ZM71.3754 93.2268L71.5153 92.975L71.3754 93.2268ZM73.3059 92.6833L73.06 92.5404L73.3059 92.6833ZM77.3667 85.3792L77.6097 85.2304L77.3605 84.8045L77.1203 85.2362L77.3667 85.3792ZM72.5729 107.567L81.2876 91.8042L80.7948 91.5194L72.0795 107.282L72.5729 107.567ZM63.0838 92.1861L72.0829 107.572L72.5695 107.276L63.5698 91.8892L63.0838 92.1861ZM74.9667 70.1487L63.0793 91.8968L63.5738 92.1786L75.4612 70.4306L74.9667 70.1487ZM82.5208 70.0133L75.2148 70L75.2137 70.5788L82.5202 70.5921L82.5208 70.0133ZM82.7219 70.5284L82.7683 70.4428L82.2727 70.1626L82.2262 70.2483L82.7219 70.5284ZM82.5604 70.7634C82.5978 70.6957 82.6409 70.6338 82.6885 70.5776L82.2597 70.1991C82.1883 70.2842 82.1237 70.3768 82.0676 70.4775L82.5604 70.7634ZM71.0899 91.3967L82.5604 70.7634L82.0676 70.4775L70.5971 91.1114L71.0899 91.3967ZM71.5153 92.975C70.971 92.6596 70.7807 91.9529 71.0899 91.3967L70.5971 91.1114C70.1338 91.9448 70.4193 93.0045 71.2355 93.4786L71.5153 92.975ZM73.06 92.5404C72.7508 93.0966 72.0591 93.291 71.5153 92.975L71.2355 93.4786C72.0518 93.952 73.0889 93.6603 73.5523 92.8263L73.06 92.5404ZM77.1203 85.2362L73.06 92.5404L73.5523 92.8263L77.6131 85.5221L77.1203 85.2362ZM81.2842 91.513L77.6097 85.2304L77.1237 85.5274L80.7982 91.8099L81.2842 91.513Z" fill="white"/>
<path d="M103.505 52.3886L103.753 52.5314L104 52.1057L103.506 52.1029L103.505 52.3886ZM85.5502 52.2868L85.5513 52.0011L85.3849 52L85.3016 52.144L85.5502 52.2868ZM94.6161 67.7143L94.6155 68H94.7814L94.8646 67.8571L94.6161 67.7143ZM69.9113 67.6943L69.6599 67.8332L69.742 67.98H69.9107L69.9113 67.6943ZM66.6004 61.7574L66.6865 61.4848L66 61.27L66.349 61.8962L66.6004 61.7574ZM67.0315 61.8231V62.1088V61.8231ZM90.5659 61.8231V61.5374V61.8231ZM92.0009 60.3946H91.7139H92.0009ZM90.5659 58.966V59.2517V58.966ZM81.6762 58.966L81.4277 58.8232L81.1791 59.2517H81.6762V58.966ZM103.506 52.1029L85.5513 52.0011L85.5485 52.5726L103.503 52.6743L103.506 52.1029ZM94.8646 67.8571L103.753 52.5314L103.256 52.2457L94.3675 67.5714L94.8646 67.8571ZM69.9107 67.98L94.6155 68L94.6161 67.4286L69.9113 67.4086L69.9107 67.98ZM66.349 61.8962L69.6599 67.8332L70.1621 67.5554L66.8513 61.6185L66.349 61.8962ZM67.0315 61.5374C66.911 61.5374 66.795 61.5191 66.6865 61.4848L66.5143 62.0299C66.6779 62.0814 66.8518 62.1088 67.0315 62.1088V61.5374ZM90.5659 61.5374H67.0315V62.1088H90.5659V61.5374ZM91.7139 60.3946C91.7139 61.026 91.2002 61.5374 90.5659 61.5374V62.1088C91.517 62.1088 92.2879 61.3414 92.2879 60.3946H91.7139ZM90.5659 59.2517C91.2002 59.2517 91.7139 59.7632 91.7139 60.3946H92.2879C92.2879 59.4477 91.517 58.6803 90.5659 58.6803V59.2517ZM81.6762 59.2517H90.5659V58.6803H81.6762V59.2517ZM85.3016 52.144L81.4277 58.8232L81.9247 59.1089L85.7987 52.4297L85.3016 52.144Z" fill="white"/>
</svg>
