<svg width="364" height="159" viewBox="0 0 364 159" fill="none" xmlns="http://www.w3.org/2000/svg">
<path fill-rule="evenodd" clip-rule="evenodd" d="M363.055 87.8457V130.55H354.219V111.957H329.223V130.55H320.367V87.8457H329.223V107.365H354.219V87.8457H363.055Z" fill="white"/>
<path fill-rule="evenodd" clip-rule="evenodd" d="M275.507 130.551H266.732L284.101 87.8467H291.689C286.335 102.128 281.022 116.35 275.507 130.551Z" fill="white"/>
<path fill-rule="evenodd" clip-rule="evenodd" d="M284.805 115.604H300.564L292.574 94.3933L294.969 87.8467H298.129L315.498 130.551H306.723L302.697 120.197H283.135L284.805 115.604Z" fill="white"/>
<path fill-rule="evenodd" clip-rule="evenodd" d="M232.278 124.466H232.882L248.741 87.8457H261.843V130.55H253.008V96.3865H252.404L237.772 130.55H227.407L212.776 96.3865H212.172V130.55H203.316V87.8457H216.439L232.278 124.466Z" fill="white"/>
<path fill-rule="evenodd" clip-rule="evenodd" d="M171.915 92.4183V130.55H163.08V87.8457H198.442V92.4183H171.915Z" fill="white"/>
<path fill-rule="evenodd" clip-rule="evenodd" d="M59.4316 126.904H61.2631C62.4908 126.904 63.5575 126.38 64.5034 125.373C65.4292 124.346 65.9928 122.633 66.1538 120.196L68.2871 87.8457H104.554V130.55H95.7191V92.4183H76.5187L74.6873 120.196C74.4055 124.164 73.2986 127.045 71.3664 128.817C69.4343 130.59 66.7777 131.476 63.3965 131.476C62.3499 131.476 61.404 131.376 60.599 131.174C60.1562 131.094 59.7738 130.993 59.4316 130.872V126.904Z" fill="white"/>
<path fill-rule="evenodd" clip-rule="evenodd" d="M21.535 94.8555C19.9048 94.8756 18.3752 95.1375 16.9261 95.6612C15.4367 96.1849 14.1487 97.0108 13.0417 98.159C11.9549 99.3072 11.0694 100.778 10.4253 102.591C9.7813 104.383 9.45929 106.599 9.45929 109.198C9.45929 111.796 9.7813 114.012 10.4253 115.825C11.0694 117.638 11.9549 119.108 13.0417 120.256C14.1487 121.384 15.4367 122.21 16.9261 122.754C18.3752 123.258 19.9048 123.54 21.535 123.54V128.112C18.2745 128.112 15.3361 127.689 12.7197 126.863C10.0429 126.038 7.76869 124.829 5.87683 123.238C3.98498 121.646 2.53589 119.672 1.52959 117.315C0.503154 114.959 0 112.259 0 109.198C0 106.156 0.503154 103.437 1.52959 101.08C2.53589 98.723 3.98498 96.749 5.87683 95.1778C7.76869 93.5864 10.0429 92.3778 12.7197 91.5318C15.3361 90.7059 18.2745 90.3031 21.535 90.2829V94.8555ZM23.4671 123.54V94.8555V90.2829V85.4082H32.3025V90.2829V94.8555V123.54V128.112V133.007H23.4671V128.112V123.54ZM34.2547 90.2829C37.495 90.3031 40.4334 90.7059 43.0699 91.5318C45.7266 92.3778 48.0008 93.5864 49.8927 95.1778C51.7846 96.749 53.2538 98.723 54.2601 101.08C55.2664 103.437 55.7897 106.156 55.7897 109.198C55.7897 112.259 55.2664 114.959 54.2601 117.315C53.2538 119.672 51.7846 121.646 49.8927 123.238C48.0008 124.829 45.7266 126.038 43.0699 126.863C40.4334 127.689 37.495 128.112 34.2547 128.112V123.54C35.8849 123.54 37.4145 123.258 38.8636 122.754C40.3529 122.21 41.641 121.384 42.7278 120.256C43.8347 119.108 44.7002 117.638 45.3643 115.825C46.0084 114.012 46.3304 111.796 46.3304 109.198C46.3304 106.599 46.0084 104.383 45.3643 102.591C44.7002 100.778 43.8347 99.3072 42.7278 98.159C41.641 97.0108 40.3529 96.1849 38.8636 95.6612C37.4145 95.1375 35.8849 94.8756 34.2547 94.8555V90.2829Z" fill="white"/>
<path fill-rule="evenodd" clip-rule="evenodd" d="M118.221 130.551H109.426L126.815 87.8467H134.382C129.029 102.128 123.715 116.35 118.221 130.551Z" fill="white"/>
<path fill-rule="evenodd" clip-rule="evenodd" d="M127.519 115.604H143.277L135.287 94.3933L137.682 87.8467H140.822L158.211 130.551H149.436L145.411 120.197H125.828L127.519 115.604Z" fill="white"/>
<path d="M78.5741 154.319H82.1566L80.4257 150.029H80.305L78.5741 154.319ZM81.6937 149.042L84.9944 157.16H83.3239L82.5591 155.186H78.1716L77.4068 157.16H75.7363L79.037 149.042H81.6937ZM87.5906 149.928V157.16H85.9202V149.042H92.6222V149.928H87.5906ZM95.2184 149.928V152.587H99.4449V153.453H95.2184V156.273H100.592V157.16H93.548V149.042H100.592V149.928H95.2184ZM109.85 149.042V157.16H108.16V153.614H103.43V157.16H101.759V149.042H103.43V152.748H108.16V149.042H109.85ZM118.686 149.928H115.566V157.16H113.895V149.928H110.776V149.042H118.686V149.928ZM123.415 156.515C123.938 156.515 124.442 156.414 124.925 156.233C125.408 156.052 125.871 155.77 126.313 155.367L126.897 156.052C126.454 156.455 125.911 156.777 125.287 157.019C124.663 157.26 123.999 157.381 123.315 157.381C122.59 157.381 121.926 157.281 121.342 157.099C120.759 156.918 120.275 156.636 119.853 156.273C119.45 155.911 119.128 155.468 118.907 154.944C118.686 154.4 118.565 153.796 118.565 153.111C118.565 152.406 118.686 151.802 118.907 151.258C119.108 150.734 119.43 150.291 119.833 149.928C120.235 149.566 120.718 149.284 121.302 149.102C121.865 148.921 122.489 148.82 123.194 148.82C123.898 148.82 124.562 148.941 125.186 149.183C125.81 149.425 126.333 149.747 126.776 150.15L126.193 150.855C125.75 150.432 125.307 150.15 124.824 149.968C124.341 149.787 123.838 149.686 123.315 149.686C122.892 149.686 122.509 149.747 122.147 149.888C121.785 150.029 121.463 150.23 121.201 150.512C120.94 150.794 120.738 151.137 120.577 151.56C120.436 152.003 120.356 152.507 120.356 153.111C120.356 153.695 120.436 154.199 120.577 154.642C120.738 155.065 120.94 155.407 121.221 155.689C121.503 155.971 121.825 156.173 122.187 156.314C122.57 156.455 122.972 156.515 123.415 156.515ZM135.149 149.928H132.029V157.16H130.359V149.928H127.239V149.042H135.149V149.928ZM136.075 149.042H140.019C140.603 149.042 141.126 149.102 141.549 149.203C141.992 149.304 142.354 149.465 142.636 149.646C142.917 149.827 143.139 150.069 143.28 150.331C143.4 150.593 143.481 150.875 143.481 151.197C143.481 151.6 143.36 151.963 143.139 152.265C142.897 152.567 142.555 152.789 142.092 152.93C142.676 153.05 143.119 153.272 143.441 153.594C143.783 153.937 143.944 154.36 143.944 154.904C143.944 155.589 143.662 156.132 143.078 156.535C142.515 156.938 141.589 157.16 140.361 157.16H136.075V149.042ZM137.765 153.453V156.273H140.361C140.945 156.273 141.388 156.173 141.69 155.931C141.992 155.709 142.153 155.367 142.153 154.904C142.153 154.4 141.992 154.037 141.69 153.796C141.388 153.574 140.945 153.453 140.361 153.453H137.765ZM140.019 152.587C141.126 152.587 141.69 152.124 141.69 151.197C141.69 150.774 141.549 150.472 141.267 150.25C140.985 150.029 140.563 149.928 140.019 149.928H137.765V152.587H140.019ZM149.72 149.626C149.318 149.626 148.955 149.707 148.613 149.848C148.271 149.968 147.969 150.19 147.728 150.472C147.466 150.754 147.265 151.117 147.104 151.56C146.963 151.983 146.882 152.507 146.882 153.111C146.882 153.695 146.963 154.219 147.104 154.642C147.265 155.085 147.466 155.448 147.728 155.73C147.969 156.012 148.271 156.233 148.613 156.354C148.955 156.495 149.318 156.576 149.72 156.576C150.123 156.576 150.485 156.495 150.827 156.354C151.169 156.233 151.471 156.012 151.713 155.73C151.974 155.448 152.175 155.085 152.336 154.642C152.477 154.219 152.558 153.695 152.558 153.111C152.558 152.507 152.477 151.983 152.336 151.56C152.175 151.117 151.974 150.754 151.713 150.472C151.471 150.19 151.169 149.968 150.827 149.848C150.485 149.707 150.123 149.626 149.72 149.626ZM149.72 148.82C150.404 148.82 151.048 148.921 151.612 149.102C152.175 149.284 152.658 149.566 153.061 149.928C153.463 150.291 153.786 150.734 154.007 151.258C154.228 151.802 154.349 152.406 154.349 153.111C154.349 153.796 154.228 154.4 154.007 154.944C153.786 155.468 153.463 155.911 153.061 156.273C152.658 156.636 152.175 156.918 151.612 157.099C151.048 157.281 150.404 157.381 149.72 157.381C149.036 157.381 148.392 157.281 147.828 157.099C147.245 156.918 146.761 156.636 146.359 156.273C145.956 155.911 145.655 155.468 145.433 154.944C145.212 154.4 145.091 153.796 145.091 153.111C145.091 152.406 145.212 151.802 145.433 151.258C145.655 150.734 145.956 150.291 146.359 149.928C146.761 149.566 147.245 149.284 147.828 149.102C148.392 148.921 149.036 148.82 149.72 148.82ZM171.919 149.042V157.16H170.229V153.614H165.499V157.16H163.828V149.042H165.499V152.748H170.229V149.042H171.919ZM175.2 149.928V152.587H179.426V153.453H175.2V156.273H180.573V157.16H173.529V149.042H180.573V149.928H175.2ZM181.62 156.273C181.861 156.273 182.063 156.173 182.264 155.951C182.465 155.75 182.566 155.448 182.606 155.065L183.069 149.042H189.55V156.273H190.516V158.993H189.127L188.906 157.16H182.667L182.425 158.993H181.036V156.273H181.62ZM184.216 155.065C184.216 155.266 184.156 155.448 184.075 155.609C183.995 155.75 183.894 155.891 183.794 155.991C183.673 156.112 183.552 156.213 183.411 156.273H187.859V149.928H184.619L184.216 155.065ZM191.804 149.042H195.728C196.312 149.042 196.835 149.102 197.278 149.203C197.701 149.304 198.063 149.465 198.345 149.646C198.627 149.827 198.848 150.069 198.989 150.331C199.13 150.593 199.19 150.875 199.19 151.197C199.19 151.6 199.069 151.963 198.848 152.265C198.606 152.567 198.264 152.789 197.801 152.93C198.385 153.05 198.828 153.272 199.17 153.594C199.492 153.937 199.653 154.36 199.653 154.904C199.653 155.589 199.371 156.132 198.788 156.535C198.224 156.938 197.318 157.16 196.071 157.16H191.804V149.042ZM193.474 153.453V156.273H196.071C196.654 156.273 197.097 156.173 197.399 155.931C197.701 155.709 197.862 155.367 197.862 154.904C197.862 154.4 197.701 154.037 197.399 153.796C197.097 153.574 196.654 153.453 196.071 153.453H193.474ZM195.728 152.587C196.835 152.587 197.399 152.124 197.399 151.197C197.399 150.774 197.258 150.472 196.976 150.25C196.694 150.029 196.272 149.928 195.728 149.928H193.474V152.587H195.728ZM207.683 157.16V150.553H207.583L203.235 157.16H201.042V149.042H202.712V155.649H202.833L207.16 149.042H209.374V157.16H207.683ZM215.955 149.042H217.626V152.688H219.195L221.268 149.042H223.12L220.806 153.05L223.301 157.16H221.389L219.256 153.554H217.626V157.16H215.955V153.554H214.345L212.192 157.16H210.3L212.775 153.05L210.461 149.042H212.312L214.385 152.688H215.955V149.042ZM230.869 157.16V150.553H230.748L226.421 157.16H224.227V149.042H225.897V155.649H226.018L230.345 149.042H232.539V157.16H230.869ZM239.644 155.991H239.764L242.763 149.042H245.259V157.16H243.588V150.674H243.468L240.69 157.16H238.718L235.961 150.674H235.84V157.16H234.169V149.042H236.645L239.644 155.991ZM251.277 149.626C250.874 149.626 250.512 149.707 250.17 149.848C249.827 149.968 249.526 150.19 249.264 150.472C249.022 150.754 248.801 151.117 248.66 151.56C248.519 151.983 248.439 152.507 248.439 153.111C248.439 153.695 248.519 154.219 248.66 154.642C248.801 155.085 249.022 155.448 249.264 155.73C249.526 156.012 249.827 156.233 250.17 156.354C250.512 156.495 250.874 156.576 251.277 156.576C251.659 156.576 252.021 156.495 252.363 156.354C252.705 156.233 253.007 156.012 253.269 155.73C253.531 155.448 253.732 155.085 253.873 154.642C254.034 154.219 254.094 153.695 254.094 153.111C254.094 152.507 254.034 151.983 253.873 151.56C253.732 151.117 253.531 150.754 253.269 150.472C253.007 150.19 252.705 149.968 252.363 149.848C252.021 149.707 251.659 149.626 251.277 149.626ZM251.277 148.82C251.961 148.82 252.585 148.921 253.148 149.102C253.732 149.284 254.215 149.566 254.617 149.928C255.02 150.291 255.342 150.734 255.563 151.258C255.785 151.802 255.885 152.406 255.885 153.111C255.885 153.796 255.785 154.4 255.563 154.944C255.342 155.468 255.02 155.911 254.617 156.273C254.215 156.636 253.732 156.918 253.148 157.099C252.585 157.281 251.961 157.381 251.277 157.381C250.572 157.381 249.948 157.281 249.365 157.099C248.801 156.918 248.318 156.636 247.915 156.273C247.513 155.911 247.191 155.468 246.97 154.944C246.748 154.4 246.648 153.796 246.648 153.111C246.648 152.406 246.748 151.802 246.97 151.258C247.191 150.734 247.513 150.291 247.915 149.928C248.318 149.566 248.801 149.284 249.365 149.102C249.948 148.921 250.572 148.82 251.277 148.82ZM261.903 156.515C262.426 156.515 262.93 156.414 263.413 156.233C263.896 156.052 264.359 155.77 264.801 155.367L265.365 156.052C264.922 156.455 264.399 156.777 263.775 157.019C263.151 157.26 262.487 157.381 261.782 157.381C261.058 157.381 260.414 157.281 259.83 157.099C259.246 156.918 258.743 156.636 258.341 156.273C257.918 155.911 257.596 155.468 257.375 154.944C257.153 154.4 257.053 153.796 257.053 153.111C257.053 152.406 257.153 151.802 257.375 151.258C257.596 150.734 257.898 150.291 258.321 149.928C258.723 149.566 259.206 149.284 259.77 149.102C260.353 148.921 260.977 148.82 261.662 148.82C262.366 148.82 263.03 148.941 263.654 149.183C264.278 149.425 264.821 149.747 265.244 150.15L264.681 150.855C264.238 150.432 263.775 150.15 263.292 149.968C262.809 149.787 262.306 149.686 261.782 149.686C261.38 149.686 260.977 149.747 260.615 149.888C260.253 150.029 259.951 150.23 259.689 150.512C259.428 150.794 259.206 151.137 259.065 151.56C258.904 152.003 258.844 152.507 258.844 153.111C258.844 153.695 258.904 154.199 259.065 154.642C259.206 155.065 259.428 155.407 259.709 155.689C259.971 155.971 260.293 156.173 260.675 156.314C261.038 156.455 261.46 156.515 261.903 156.515ZM273.637 149.928H270.517V157.16H268.847V149.928H265.707V149.042H273.637V149.928ZM281.204 157.16V150.553H281.083L276.756 157.16H274.562V149.042H276.233V155.649H276.354L280.681 149.042H282.875V157.16H281.204Z" fill="white"/>
<path d="M112.041 74.2891H249.482" stroke="#A47849" stroke-width="0.249997"/>
<path d="M77.7871 140.5H283.718" stroke="#313131" stroke-width="0.249997"/>
<path fill-rule="evenodd" clip-rule="evenodd" d="M111.137 67.5611L178.74 0L218.973 40.0049L229.66 50.842L246.445 67.7021H231.531L178.861 15.5105L163.686 30.477L200.175 67.2992H183.651L155.213 39.1186L135.751 58.4361H156.441L164.592 67.5812L111.137 67.5611Z" fill="#A47849"/>
</svg>
