<svg width="302" height="30" viewBox="0 0 302 30" fill="none" xmlns="http://www.w3.org/2000/svg">
<path d="M252.139 14.8315C252.139 10.4149 252.139 5.98087 252.139 1.56433C252.139 0.372567 252.259 0.249885 253.39 0.249885C257.111 0.267411 260.849 0.162255 264.552 0.337515C268.701 0.547826 272.147 2.37053 274.702 5.77056C280.103 12.9562 278.234 27.0646 265.941 29.3079C264.878 29.5007 263.763 29.5533 262.683 29.5708C259.768 29.6059 256.837 29.5883 253.922 29.5883C252.139 29.5883 252.139 29.5883 252.139 27.8182C252.139 23.4718 252.139 19.1429 252.139 14.8315ZM255.413 26.2935C258.174 26.2935 260.831 26.346 263.489 26.2759C269.97 26.1182 274.205 21.7367 274.342 15.1294C274.479 8.87266 270.896 4.40354 264.826 3.6324C262.289 3.31693 259.7 3.49219 257.145 3.45714C256.579 3.43961 256.014 3.45714 255.413 3.45714C255.413 11.116 255.413 18.6346 255.413 26.2935Z" fill="black"/>
<path d="M214.693 19.4926C216.116 21.6308 217.505 23.7339 218.911 25.8545C219.425 26.6432 219.974 27.4143 220.471 28.2205C220.985 29.0442 220.728 29.4824 219.802 29.5875C218.345 29.7628 217.316 29.4123 216.493 27.9752C215.105 25.5566 213.459 23.2782 211.881 20.9648C211.693 20.6844 211.315 20.3689 211.024 20.3689C208.298 20.3514 205.572 20.3864 202.846 20.4215C202.76 20.4215 202.657 20.4565 202.434 20.5091C202.434 21.7184 202.434 22.9452 202.434 24.1896C202.434 25.6267 202.417 27.0638 202.451 28.5185C202.468 29.2546 202.194 29.5875 201.457 29.6051C199.279 29.6927 199.279 29.6927 199.279 27.4494C199.279 18.8617 199.279 10.2915 199.279 1.70377C199.279 0.284163 199.314 0.249111 200.668 0.249111C203.806 0.249111 206.96 0.21406 210.098 0.301689C211.264 0.336741 212.464 0.529526 213.596 0.862519C217.591 2.03676 219.974 5.05122 220.317 9.23992C220.711 13.8317 218.928 17.2843 215.173 19.2297C215.036 19.2823 214.899 19.3699 214.693 19.4926ZM202.485 17.2142C205.04 17.2142 207.509 17.2318 209.978 17.2142C210.527 17.2142 211.058 17.1266 211.607 17.0214C214.985 16.4606 216.973 14.2348 217.076 10.8523C217.213 6.90897 215.567 4.35018 212.001 3.8244C208.898 3.36873 205.692 3.47389 202.485 3.33368C202.485 8.08321 202.485 12.5874 202.485 17.2142Z" fill="black"/>
<path d="M167.371 16.3034C161.987 16.3034 156.741 16.3034 151.374 16.3034C151.357 16.6714 151.323 17.0044 151.323 17.3549C151.323 21.0003 151.323 24.6282 151.323 28.2736C151.323 29.4303 151.185 29.5705 150.037 29.5705C149.779 29.5705 149.522 29.553 149.265 29.5705C148.391 29.6406 148.082 29.22 148.082 28.3437C148.099 23.5591 148.099 18.7745 148.099 13.9899C148.099 9.85381 148.099 5.73521 148.099 1.59908C148.099 0.319687 148.202 0.232057 149.385 0.214531C151.323 0.197005 151.323 0.197005 151.323 2.21249C151.323 5.78779 151.323 9.34556 151.323 12.991C156.655 12.991 161.936 12.991 167.354 12.991C167.354 12.658 167.354 12.325 167.354 11.9745C167.354 8.50431 167.354 5.03417 167.354 1.5465C167.354 0.319687 167.456 0.214531 168.691 0.214531C168.914 0.214531 169.137 0.232057 169.36 0.214531C170.286 0.109375 170.594 0.547524 170.594 1.4764C170.577 10.4146 170.577 19.3704 170.594 28.3087C170.594 29.2551 170.251 29.6406 169.342 29.553C169.085 29.5355 168.828 29.5355 168.571 29.553C167.645 29.6406 167.336 29.2025 167.336 28.2736C167.371 24.6633 167.354 21.0704 167.354 17.4601C167.371 17.1271 167.371 16.7766 167.371 16.3034Z" fill="black"/>
<path d="M286.069 3.45715C286.069 6.71698 286.069 9.8366 286.069 13.0789C286.446 13.0789 286.789 13.0789 287.132 13.0789C290.955 13.0789 294.762 13.0789 298.585 13.0789C299.751 13.0789 299.854 13.2016 299.871 14.3583C299.871 14.516 299.871 14.6913 299.871 14.849C299.871 16.181 299.803 16.2511 298.517 16.2511C294.727 16.2511 290.938 16.2511 287.149 16.2511C286.806 16.2511 286.463 16.2511 286.052 16.2511C286.052 19.5986 286.052 22.8584 286.052 26.2935C286.412 26.2935 286.772 26.2935 287.132 26.2935C291.624 26.2935 296.116 26.2935 300.608 26.2935C301.946 26.2935 301.997 26.3636 301.997 27.7481C301.997 28.011 301.98 28.2739 301.997 28.5368C302.031 29.2378 301.723 29.5533 301.037 29.5533C295.259 29.5533 289.481 29.5533 283.703 29.5533C283.051 29.5533 282.76 29.2203 282.76 28.5894C282.76 28.3615 282.76 28.1337 282.76 27.9059C282.76 19.1955 282.76 10.4851 282.76 1.77465C282.76 0.267421 282.811 0.214844 284.269 0.214844C289.498 0.214844 294.727 0.214844 299.957 0.214844C301.431 0.214844 301.431 0.214843 301.431 1.77465C301.431 1.93239 301.414 2.10765 301.431 2.26538C301.534 3.15921 301.14 3.45715 300.265 3.45715C295.893 3.4221 291.538 3.43962 287.166 3.43962C286.875 3.45715 286.515 3.45715 286.069 3.45715Z" fill="black"/>
<path d="M246.875 29.5709C245.983 29.7988 245.469 29.3081 245.092 28.3266C244.32 26.3111 243.412 24.3657 242.589 22.3853C242.383 21.8946 242.126 21.7018 241.594 21.7018C237.325 21.7193 233.056 21.7193 228.786 21.7018C228.203 21.7018 227.946 21.9121 227.723 22.4379C226.9 24.4534 226.009 26.4513 225.22 28.4843C224.894 29.3256 224.449 29.606 223.574 29.5885C221.38 29.5359 221.311 29.4658 222.203 27.3802C225.923 18.6873 229.661 10.012 233.33 1.30157C233.776 0.267541 234.41 0.214963 235.267 0.197437C236.125 0.179911 236.656 0.355171 237.033 1.26652C240.754 10.0646 244.526 18.8275 248.281 27.608C249.035 29.3782 248.915 29.5709 246.875 29.5709ZM229.421 18.5121C233.313 18.5121 237.085 18.5121 240.96 18.5121C239.039 13.9728 237.153 9.53877 235.165 4.85934C233.193 9.5563 231.324 14.0079 229.421 18.5121Z" fill="black"/>
<path d="M183.332 3.4572C180.555 3.4572 177.932 3.4572 175.291 3.4572C174.074 3.4572 173.954 3.33452 173.954 2.12522C173.954 1.82728 173.954 1.52934 173.954 1.24893C173.937 0.565415 174.228 0.232422 174.931 0.232422C181.601 0.249948 188.287 0.232422 194.957 0.232422C195.609 0.232422 195.866 0.530363 195.883 1.17882C195.986 3.4572 196.003 3.4572 193.74 3.4572C191.374 3.4572 189.008 3.4572 186.521 3.4572C186.521 3.9304 186.521 4.31597 186.521 4.70154C186.521 12.4655 186.521 20.2295 186.504 27.9935C186.504 28.4843 186.299 29.3781 186.076 29.4131C185.287 29.5709 184.447 29.4832 183.641 29.3606C183.487 29.343 183.35 28.677 183.35 28.3265C183.332 23.4193 183.332 18.4945 183.332 13.5872C183.332 10.6078 183.332 7.62838 183.332 4.64896C183.332 4.28092 183.332 3.9304 183.332 3.4572Z" fill="black"/>
<path d="M73.0247 0.0390625C81.1688 0.0390625 87.1698 6.34841 87.1526 14.9011C87.1526 23.4362 81.1174 29.7806 73.0075 29.7806C64.9491 29.7806 58.8281 23.3486 58.8281 14.9011C58.8453 6.40099 64.932 0.0390625 73.0247 0.0390625ZM83.9292 14.8485C83.9121 5.41953 74.8249 0.669997 67.6581 4.7185C63.2688 7.18966 61.7772 11.3258 62.1201 16.2681C62.5659 22.7001 68.4811 27.4497 74.7049 26.3806C80.2944 25.3991 83.9464 20.8599 83.9292 14.8485Z" fill="white"/>
<path d="M27.7599 14.8664C27.777 7.64567 32.1491 1.8621 38.6987 0.372393C48.2316 -1.80083 56.8044 5.82297 56.05 15.8128C55.5356 22.5252 51.7807 27.5376 45.9684 29.2026C36.4869 31.9191 27.7256 25.0314 27.7599 14.8664ZM41.8706 26.4685C48.1287 26.4685 52.8266 21.5437 52.8266 14.9365C52.8438 8.32918 48.163 3.31675 41.9392 3.29923C35.664 3.2817 30.8975 8.2766 30.9146 14.9189C30.9318 21.5087 35.6125 26.4685 41.8706 26.4685Z" fill="white"/>
<path d="M19.2908 16.3212C13.9071 16.3212 8.62626 16.3212 3.19112 16.3212C3.19112 16.6717 3.19112 17.0222 3.19112 17.3552C3.19112 20.9656 3.19112 24.5584 3.19112 28.1687C3.19112 29.5007 3.10539 29.5708 1.83663 29.5708C1.64802 29.5708 1.44228 29.5533 1.25368 29.5708C0.36211 29.6584 -0.032238 29.2904 0.00205309 28.344C0.0534897 26.9419 0.0191987 25.5223 0.0191987 24.1202C0.0191987 16.6191 0.0191987 9.11803 0.0191987 1.61692C0.0191987 0.302474 0.0706353 0.249895 1.39084 0.232369C1.54515 0.232369 1.71661 0.232369 1.87092 0.232369C3.12254 0.232369 3.19112 0.302473 3.19112 1.54682C3.19112 4.9819 3.19112 8.41699 3.19112 11.8696C3.19112 12.2201 3.19112 12.5882 3.19112 13.0088C8.55767 13.0088 13.8728 13.0088 19.2908 13.0088C19.2908 12.6407 19.2908 12.2902 19.2908 11.9397C19.2908 8.43451 19.3079 4.92932 19.2736 1.42413C19.2565 0.530311 19.5651 0.214844 20.4395 0.214844C22.4456 0.23237 22.4456 0.197318 22.4456 2.23033C22.4456 10.8531 22.4456 19.4583 22.4456 28.0811C22.4456 29.5358 22.4113 29.5708 20.9882 29.5708C19.2908 29.5708 19.2908 29.5708 19.2908 27.8357C19.2908 24.3656 19.2908 20.8955 19.2908 17.4253C19.2908 17.0748 19.2908 16.7243 19.2908 16.3212Z" fill="white"/>
<path d="M140.888 29.5706C139.876 29.8685 139.396 29.185 139.002 28.186C138.247 26.2406 137.373 24.3478 136.584 22.42C136.361 21.8942 136.087 21.6839 135.521 21.6839C131.252 21.7014 126.983 21.7014 122.713 21.6839C122.182 21.6839 121.925 21.8767 121.719 22.3674C120.879 24.453 119.97 26.5035 119.13 28.5891C118.838 29.3077 118.444 29.5706 117.69 29.5706C115.289 29.553 115.238 29.518 116.215 27.2396C119.901 18.6168 123.622 9.99406 127.257 1.33624C127.703 0.284678 128.337 0.197049 129.263 0.179523C130.137 0.161997 130.635 0.424886 131.012 1.30118C134.732 10.0992 138.504 18.8622 142.259 27.6427C142.996 29.3603 142.859 29.5706 140.888 29.5706ZM129.143 4.85895C127.154 9.59097 125.285 14.0426 123.382 18.5292C127.291 18.5292 131.063 18.5292 134.938 18.5292C133.018 14.0075 131.132 9.55591 129.143 4.85895Z" fill="white"/>
<path d="M95.6398 17.1273C96.0856 16.6366 96.3771 16.3387 96.6514 16.0407C101.178 11.0283 105.704 6.0334 110.231 1.02098C110.865 0.319943 112.991 -0.153257 113.763 0.337469C113.968 0.477677 114.071 1.07356 113.968 1.3715C113.831 1.73955 113.454 2.01996 113.18 2.33543C109.785 6.08598 106.424 9.81901 102.995 13.6221C103.218 13.9201 103.407 14.2005 103.63 14.4634C107.179 18.8975 110.745 23.3315 114.277 27.7831C114.277 27.7831 114.277 27.7831 114.294 27.8006C114.774 28.414 114.448 29.3254 113.711 29.5357C113.643 29.5532 113.574 29.5708 113.505 29.5883C112.185 29.8687 111.345 29.2202 110.522 28.1862C107.522 24.348 104.401 20.5975 101.332 16.8294C101.178 16.6366 100.989 16.4438 100.766 16.1985C99.0861 18.0387 97.4572 19.8263 95.8455 21.649C95.6741 21.8593 95.6398 22.2449 95.6398 22.5604C95.6227 24.5233 95.6055 26.4862 95.6398 28.4491C95.6569 29.2903 95.3312 29.6058 94.5082 29.6233C92.4336 29.6409 92.4336 29.6759 92.4336 27.5553C92.4336 18.9676 92.4336 10.3974 92.4507 1.80965C92.4507 1.31892 92.6736 0.442625 92.8965 0.407573C93.6852 0.24984 94.5425 0.354996 95.3483 0.477677C95.4855 0.495203 95.6055 1.16119 95.6055 1.52923C95.6227 6.31382 95.6227 11.0984 95.6227 15.8655C95.6398 16.1809 95.6398 16.5314 95.6398 17.1273Z" fill="white"/>
</svg>
