<svg width="354" height="113" viewBox="0 0 354 113" fill="none" xmlns="http://www.w3.org/2000/svg">
<path d="M78.8964 100.96C75.3738 100.04 73.4629 97.8425 73.1866 94.3799C72.7492 89.0306 75.9149 85.6025 81.3484 85.6025C86.0107 85.6255 88.9462 88.0758 89.303 92.2402C89.5563 95.4612 89.1764 96.9452 87.4727 98.9583C85.8956 100.776 81.878 101.731 78.8964 100.96ZM84.0997 97.7159C85.5387 96.6921 86.0798 95.1966 85.9301 92.8499C85.8495 91.849 85.5963 90.7447 85.343 90.3306C84.0076 88.0413 80.5541 87.5582 78.2172 89.2722C77.1351 90.066 76.6517 91.642 76.7553 93.8967C76.8589 95.4612 76.9855 95.9559 77.5496 96.7036C78.505 97.9345 79.6332 98.4292 81.5096 98.4522C82.8335 98.4637 83.2249 98.3601 84.0997 97.7159Z" fill="#F0F0F0"/>
<path d="M36.9986 100.856C36.895 100.776 36.8145 100.189 36.8145 99.5681V98.4637H37.839C38.7139 98.4637 38.9211 98.3602 39.1283 97.7965C39.278 97.4398 39.3816 94.6099 39.3816 91.4924V85.8555H45.2987H51.2158V93.448V101.064L49.489 100.983L47.7392 100.903L47.7162 94.5984L47.6932 88.2943L45.2527 88.2138L42.8121 88.1332L42.6855 93.379C42.5359 99.1194 42.3517 99.9132 40.9357 100.638C40.1874 101.029 37.298 101.19 36.9986 100.856Z" fill="#F0F0F0"/>
<path d="M111.201 93.4481V85.8555H116.991H122.782V87.0174V88.1793H118.787H114.792V94.5985V101.029H112.985H111.178V93.4481H111.201Z" fill="#F0F0F0"/>
<path d="M143.637 93.448V85.8555H145.179H146.722V90.7676C146.722 93.448 146.802 95.5992 146.929 95.5302C147.033 95.4842 148.552 93.2639 150.325 90.6411L153.548 85.8555H155.298H157.025V93.448V101.041H155.482H153.94V96.278C153.94 93.6551 153.836 91.5154 153.71 91.5154C153.583 91.5154 152.006 93.6551 150.21 96.278L146.964 101.041H145.294H143.648V93.448H143.637Z" fill="#F0F0F0"/>
<path d="M184.56 100.776C182.085 100.132 180.231 98.4869 179.517 96.3242C178.976 94.6791 179.103 90.9979 179.771 89.6634C180.335 88.5015 181.601 87.0865 182.499 86.6264C185.308 85.1654 189.452 85.3379 191.663 87.0175C192.561 87.7078 193.827 89.8245 193.516 90.1351C193.412 90.2156 192.722 90.3652 191.973 90.4687C190.603 90.6528 190.603 90.6182 189.579 89.5714C188.393 88.306 187.138 87.9493 185.561 88.4095C183.293 89.0997 182.292 90.9864 182.58 94.0924C182.833 96.9454 184.099 98.2108 186.678 98.2108C187.887 98.2108 188.278 98.0843 188.969 97.5206C189.406 97.1295 189.947 96.4392 190.131 95.9791C190.546 95.0242 190.523 95.0242 192.273 95.4384C193.769 95.772 193.873 96.0251 193.044 97.5781C192.399 98.809 191.191 99.9479 190.062 100.431C188.957 100.88 185.745 101.087 184.56 100.776Z" fill="#F0F0F0"/>
<path d="M219.051 94.5984V88.1677H216.61H214.17V87.0059V85.8555H220.858H227.547V87.0174V88.1792H225.106C223.334 88.1792 222.666 88.2598 222.666 88.5129C222.643 88.6624 222.643 91.5729 222.643 94.9435V101.041H220.87H219.063V94.5984H219.051Z" fill="#F0F0F0"/>
<path d="M248.631 100.925C248.585 100.879 248.551 97.4512 248.608 93.3328L248.689 85.8438H250.208H251.751V90.7559C251.751 93.4363 251.854 95.5876 251.958 95.5186C252.085 95.438 253.604 93.2523 255.354 90.6294L258.543 85.8438H260.292H262.042V93.4364V101.029H260.5H258.957V96.3238C258.957 93.724 258.876 91.5152 258.807 91.4347C258.704 91.3311 257.138 93.4709 255.308 96.1398L251.958 101.029H250.358C249.449 101.029 248.677 100.983 248.631 100.925Z" fill="#F0F0F0"/>
<path d="M284.684 93.448V85.8555H286.353H288.022V89.0765C288.022 90.8481 288.103 92.2976 288.229 92.2976C289.231 92.2746 289.668 91.8375 290.728 89.7553C292.328 86.5687 293.249 85.867 295.77 85.867H297.059L296.979 86.9713C296.898 88.0527 296.898 88.0527 295.747 88.1792C294.596 88.3058 294.584 88.3288 293.56 90.2845C292.996 91.3658 292.328 92.4702 292.098 92.7233C291.533 93.3445 291.51 93.5746 291.994 93.5746C292.477 93.5746 293.928 95.3001 294.722 96.8186C295.079 97.5089 295.747 98.6708 296.219 99.4185C296.656 100.166 297.048 100.833 297.048 100.914C297.048 100.995 296.15 101.041 295.068 101.041H293.065L291.959 98.8778C290.394 95.8178 289.461 94.6099 288.69 94.6099H288.045V97.831V101.052H286.376H284.707L284.684 93.448Z" fill="#F0F0F0"/>
<path d="M137.451 42.6351V12.541H143.495H149.538V25.8165C149.538 33.7081 149.642 39.0344 149.768 38.9884C149.895 38.9654 150.977 37.861 152.163 36.5726C153.325 35.3072 156.56 31.8445 159.323 28.8535C165.366 22.3423 166.275 21.3645 168.232 19.2363C169.061 18.316 170.73 16.5559 171.916 15.3019C173.125 14.071 174.184 12.9321 174.253 12.8056C174.356 12.6215 177.269 12.5755 182.541 12.5985L190.702 12.6791L188.078 15.3825C186.144 17.4187 169.13 34.801 168.209 35.7328C168.06 35.9169 168.497 36.8142 169.372 38.0221C170.04 38.9424 170.5 39.6901 170.834 40.3344C170.937 40.5414 171.122 40.852 171.248 40.9786C171.432 41.2087 173.62 44.5333 178.685 52.2984C184.659 61.4555 186.639 64.4925 187.122 65.1597C187.848 66.1836 192.015 72.5912 192.015 72.6717C192.015 72.7178 188.435 72.7523 184.083 72.7523H176.129L175.818 72.062C175.634 71.6709 174.149 69.1055 172.503 66.3216C169.13 60.6157 167.024 57.038 164.837 53.3337C164.008 51.9188 163.213 50.5613 163.064 50.3197C162.937 50.0896 162.339 49.1118 161.798 48.134C161.233 47.1792 160.508 45.9483 160.174 45.4076L159.553 44.4067L156.675 47.3632C155.075 48.9623 152.842 51.2745 151.679 52.4825L149.538 54.6912V63.7217V72.7408H143.495H137.451V42.6351Z" fill="#F0F0F0"/>
<path d="M192.539 72.5567C192.539 72.3266 192.39 72.7063 204.327 42.3821C205.455 39.4716 208.033 32.9374 210.036 27.8527C212.016 22.7565 214.203 17.2231 214.871 15.578L216.08 12.541H222.515H228.949L231.701 19.4318C233.22 23.2166 235.868 29.7738 237.594 34.0187C241.451 43.567 245.238 52.9311 249.025 62.3183C250.625 66.2756 252.168 70.0834 252.479 70.7506C253.399 72.8558 253.814 72.7293 246.481 72.7293H239.92L239.379 71.2683C239.068 70.44 237.882 67.38 236.754 64.4465L234.671 59.0972H222.526H210.359L209.967 60.2015C209.242 62.2032 205.927 71.3143 205.616 72.039L205.363 72.7293H198.951C195.428 72.7408 192.539 72.6602 192.539 72.5567ZM230.642 48.8587C230.642 48.5251 222.664 27.358 222.434 27.1279C222.33 27.0244 221.789 28.1288 221.271 29.5667C220.73 31.0277 218.981 35.7443 217.381 40.0583C215.78 44.3837 214.399 48.157 214.319 48.4906L214.134 49.0543H222.376C226.935 49.0658 230.642 48.9968 230.642 48.8587Z" fill="#F0F0F0"/>
<path d="M267.187 47.6509V22.5725H258.173H249.16L249.206 17.6373L249.287 12.6677L273.092 12.5872C286.192 12.5641 297.036 12.5872 297.162 12.6332C297.312 12.6792 297.392 14.5313 297.346 17.6488L297.266 22.561H288.414H279.538V47.6394V72.7178H273.357H267.175L267.187 47.6509Z" fill="#F0F0F0"/>
<path d="M41.5009 67.7943L41.5815 61.8008H48.3965H55.2231L55.3037 67.7943L55.3497 73.7648H48.3965H41.4434L41.5009 67.7943Z" fill="#F0F0F0"/>
<path d="M63.8398 67.5875V61.4099L88.5546 61.3639L113.269 61.2834L113.35 42.5781L113.396 23.8498L88.6812 23.8153L63.9665 23.7347V17.8218V11.9088L94.9779 11.8282L125.989 11.7822L125.909 42.7736L125.863 73.765H94.8512H63.8398V67.5875Z" fill="#F0F0F0"/>
<path d="M22.4023 43.1522V37.2393H58.283H94.1637L94.2673 38.4011C94.3133 39.0454 94.2903 41.6912 94.2442 44.3141L94.1637 49.0767H58.283H22.4023V43.1522Z" fill="#F0F0F0"/>
<path d="M0.103602 23.631C0.0575565 23.585 0 20.8816 0 17.6375V11.7705H27.6731H55.3462V17.6835C55.3462 22.239 55.2656 23.5965 55.0354 23.631C54.0339 23.7345 0.207203 23.7115 0.103602 23.631Z" fill="#F0F0F0"/>
</svg>
