<svg width="148" height="255" viewBox="0 0 148 255" fill="none" xmlns="http://www.w3.org/2000/svg">
<path fill-rule="evenodd" clip-rule="evenodd" d="M145.492 106.062L143.578 106.621L138.529 108.093L101.647 118.846C101.214 114.756 100.475 110.708 99.4385 106.737L102.419 105.773L129.073 97.1506L142.494 92.8089C143.727 97.1684 144.728 101.593 145.492 106.062ZM99.8946 98.855L97.3662 99.9963C96.3067 97.012 95.0737 94.0862 93.6715 91.2358L96.8985 89.6077L111.999 81.989L134.035 70.8706C135.735 74.2981 137.277 77.7966 138.659 81.3537L99.8946 98.855ZM128.413 60.7271C126.621 57.8158 124.706 54.97 122.672 52.1984L121.679 52.9189L89.5959 76.2009L86.0762 78.7553C87.5232 80.7129 88.8772 82.7289 90.1357 84.7954L93.1196 82.9194L107.438 73.9163L128.413 60.7271ZM108.694 36.1856C110.922 38.3406 113.06 40.5673 115.106 42.8598L114.225 43.6415L84.5772 69.9539L81.2877 72.8733C80.0562 71.4978 78.7734 70.1589 77.4398 68.8602L78.3341 67.9254L105.734 39.2797L108.694 36.1856ZM95.4051 24.996C91.7269 22.3072 87.8676 19.789 83.8318 17.4589C23.1278 -17.5886 -54.4941 3.21013 -89.5416 63.9141C-124.589 124.618 -103.79 202.24 -43.0863 237.288C17.6177 272.335 95.2395 251.536 130.287 190.832C130.824 189.902 131.348 188.968 131.859 188.03L108.241 174.394L133.27 185.365C136.332 179.416 138.879 173.325 140.924 167.147L105.143 154.055L143.064 159.979C144.637 154.075 145.765 148.111 146.462 142.133L103.222 138.104L147.229 132.064C147.426 126.635 147.271 121.215 146.776 115.837L145.725 116.013L140.538 116.88L101.996 123.327C102.763 138.511 99.3067 154.084 91.1395 168.23C68.5746 207.314 18.5989 220.705 -20.4845 198.14C-59.5679 175.575 -72.9589 125.599 -50.394 86.516C-27.8292 47.4326 22.1465 34.0416 61.2299 56.6065C63.9299 58.1653 66.5074 59.855 68.9587 61.6629L69.6522 60.701L92.8411 28.551L95.4051 24.996Z" fill="#D0FF48"/>
</svg>
