<svg width="54" height="48" viewBox="0 0 54 48" fill="none" xmlns="http://www.w3.org/2000/svg">
<path d="M39.3356 15.6899L38.5908 18.8105L35.1999 17.7209L35.9662 14.5073L33.426 13.4536L34.0945 10.6447L36.6382 11.7002L35.971 14.508L39.3356 15.6899ZM34.5327 20.5287L35.2023 17.724L32.6597 16.6673L31.9901 19.4719L34.5327 20.5287ZM46.8598 28.7161L46.3033 28.8658C44.2234 30.1701 41.9917 29.9442 40.7108 29.4117C37.9388 28.2597 36.8543 25.3481 36.8098 25.2277C35.9334 23.5055 34.7815 22.3215 33.4081 21.7522C30.8643 20.6967 28.3685 22.0983 28.3414 22.1164L27.7341 22.4675L23.4447 40.4674L21.8105 39.7928L29.4485 7.73669C29.1532 7.54676 28.9814 7.15778 29.0673 6.7967C29.1653 6.38656 29.5424 6.18185 29.9125 6.33461L31.2606 6.89614C31.6284 7.0458 31.8496 7.50239 31.7516 7.91254C31.6698 8.25361 31.3915 8.43835 31.0841 8.40461L30.8762 9.27122L30.8994 9.26499C33.1688 8.53356 35.1262 8.4984 36.7146 9.16083C39.5996 10.3594 40.2501 13.3645 40.2763 13.4919C40.8039 16.0903 42.047 17.1063 42.9962 17.4999C43.4036 17.6677 43.6894 17.6873 43.6894 17.6873C46.2856 18.2588 48.24 17.6134 48.995 17.4307C49.7477 17.2477 49.183 18.7573 49.183 18.7573L46.8598 28.7161ZM47.4441 18.4672L47.271 19.1933L48.3712 19.5086L48.7095 18.0855C48.4035 18.155 47.9369 18.4002 47.4441 18.4672ZM29.1929 21.0083L28.735 20.8194L28.6462 21.2021C28.7992 21.1406 28.99 21.0722 29.1929 21.0083ZM37.1883 24.6949L37.3373 24.0697L36.8348 24.0817C36.9565 24.278 37.078 24.4824 37.1883 24.6949ZM39.7669 25.6072L40.3509 23.1527L43.2912 24.1615L43.9584 21.3538L41.018 20.3504L41.7106 17.4378C41.4632 17.226 41.212 16.9642 40.9707 16.642L39.3355 15.6926L39.76 13.8974C39.7369 13.7911 39.7113 13.6898 39.6884 13.5807C39.6807 13.5453 39.6203 13.2687 39.4632 12.8709L36.6382 11.7002L37.0319 10.0311C36.8858 9.94938 36.7274 9.87414 36.5604 9.80451C35.9091 9.53393 35.1844 9.40099 34.3938 9.38757L34.092 10.6443L31.8631 9.71701C31.6642 9.76909 31.4677 9.82153 31.2625 9.88506L30.6984 12.3205L33.426 13.4536L32.6597 16.6673L29.9549 15.5443L29.3046 18.3573L31.9901 19.4719L31.7027 20.6882C32.2974 20.7239 32.9255 20.8428 33.5648 21.1061C33.8195 21.2146 34.0639 21.3463 34.3057 21.4859L34.5327 20.5287L37.9145 21.6458L38.5908 18.8105L41.0156 20.3473L40.3473 23.1508L37.9156 21.6473L37.3626 23.9704L39.7669 25.6072ZM46.4509 27.7171L46.4683 27.6441L45.3116 27.4126L45.8862 24.991L47.013 25.3157L47.7163 22.3072L46.5547 22.1821L47.2684 19.1984L45.7965 18.5873C45.4215 18.5918 45.0327 18.5695 44.6369 18.5298L43.9621 21.3529L46.5583 22.184L45.8862 24.991L43.2936 24.1619L42.7097 26.6164L39.736 25.7387L39.2608 27.7379C39.7088 28.1424 40.2391 28.508 40.8651 28.768C41.264 28.9332 41.6824 29.0449 42.1152 29.1079L42.7097 26.6164L45.3116 27.4126L44.972 28.8369L46.4509 27.7171Z" fill="#030104"/>
<path d="M8.89613 28.6832L11.6168 30.2073L13.1212 26.8623L10.3198 25.2924L11.2779 22.627L8.83015 21.2538L7.87107 23.9232L10.3171 25.2966L8.89613 28.6832ZM15.5672 28.2358L13.1218 26.8662L14.0792 24.197L16.5246 25.5665L15.5672 28.2358ZM13.1051 43.2369L13.5858 42.9087C15.9119 42.1831 17.2514 40.3119 17.7336 38.9671C18.7775 36.057 17.4352 33.2643 17.3794 33.149C16.7434 31.3161 16.6754 29.6327 17.1937 28.1918C18.1528 25.5224 20.8277 24.5419 20.8587 24.5331L21.5168 24.3013L37.2057 33.0967L37.8244 31.3842L9.88453 15.7195C9.9479 15.3644 9.78669 14.9705 9.47206 14.794C9.11443 14.5937 8.7153 14.7466 8.57517 15.1344L8.06838 16.5506C7.92764 16.9345 8.10375 17.4119 8.46138 17.6122C8.75902 17.7784 9.07758 17.6881 9.26018 17.4287L10.0165 17.8511L9.99643 17.8647C7.95054 19.1214 6.60968 20.6059 6.01314 22.275C4.92644 25.3034 6.62701 27.8246 6.70005 27.9305C8.19399 30.0837 8.08111 31.7244 7.723 32.7203C7.56851 33.147 7.39033 33.3804 7.39033 33.3804C6.05168 35.7647 4.27869 36.8366 3.64117 37.2955C3.00502 37.7523 4.45863 38.3321 4.45863 38.3321L13.1051 43.2369ZM5.42116 36.7973L6.05409 37.1521L5.53878 38.2117L4.29893 37.5157C4.55409 37.3266 5.04221 37.132 5.42116 36.7973ZM19.498 24.4442L19.6715 23.9645L20.0034 24.1533C19.8567 24.2298 19.6798 24.3309 19.498 24.4442ZM16.7459 33.0825L16.201 32.7769L16.5473 32.3979C16.6052 32.6236 16.669 32.8546 16.7459 33.0825ZM15.6615 35.6824L13.5228 34.4822L12.2639 37.4257L9.8179 36.0523L11.0807 33.1124L8.54304 31.6881C8.55869 31.3551 8.54129 30.9856 8.47429 30.5831L8.89812 28.685L7.33568 27.8053C7.2755 27.716 7.22067 27.6283 7.1585 27.5372C7.13844 27.5075 6.98224 27.275 6.80482 26.8866L7.87107 23.9232L6.41896 23.1044C6.45907 22.9369 6.51202 22.7643 6.57476 22.5888C6.82006 21.9052 7.2127 21.2574 7.73461 20.6393L8.83153 21.2517L9.67017 18.9111C9.84094 18.7928 10.0103 18.6767 10.1935 18.5613L12.3053 19.7639L11.2779 22.627L14.0792 24.197L15.0986 21.3583L17.537 22.7482L16.5246 25.5665L17.5831 26.1627C17.2087 26.6449 16.8711 27.2087 16.6287 27.8783C16.5347 28.1474 16.464 28.4243 16.4008 28.7044L15.5672 28.2358L14.0886 31.5921L11.6168 30.2073L11.0801 33.1085L13.5238 34.4782L14.0889 31.5941L16.1133 32.7297L15.6615 35.6824ZM12.6694 42.2503L12.6057 42.2147L13.2186 41.1678L11.1096 39.9827L10.5831 41.069L7.96997 39.5885L8.66186 38.6094L6.05945 37.1536L6.61417 35.6087C6.86941 35.3228 7.11499 35.0083 7.35275 34.6767L9.81484 36.0546L8.6608 38.6135L11.1096 39.9827L12.2626 37.4278L14.4013 38.628L15.7758 35.7469L17.5176 36.7248C17.5042 37.3419 17.4078 37.9961 17.172 38.6532C17.0213 39.0716 16.8195 39.469 16.5734 39.8448L14.4013 38.628L13.2186 41.1678L14.4602 41.8637L12.6694 42.2503Z" fill="#030104"/>
</svg>
