<svg width="196" height="52" viewBox="0 0 196 52" fill="none" xmlns="http://www.w3.org/2000/svg">
<g clip-path="url(#clip0_279_803)">
<path fill-rule="evenodd" clip-rule="evenodd" d="M8.80067 5.6016L9.07687 5.86597L9.80527 6.56315L15.1264 11.6561C14.4887 12.12 13.8875 12.6309 13.3275 13.1836L12.8817 12.7811L8.895 9.1822L6.88753 7.37C7.49313 6.74727 8.1318 6.15686 8.80067 5.6016ZM11.9751 13.8635L12.4069 14.1739C12.013 14.6359 11.6454 15.1211 11.3065 15.6271L10.7269 15.2474L8.01433 13.4705L4.05578 10.8775C4.46193 10.2667 4.89496 9.6752 5.35316 9.10487L11.9751 13.8635ZM2.91051 12.7833C2.59894 13.36 2.30997 13.9507 2.04481 14.5542L2.25963 14.65L9.20087 17.7451L9.9624 18.0847C10.1487 17.6567 10.3537 17.2387 10.5761 16.8316L9.9786 16.516L7.1112 15.0017L2.91051 12.7833ZM0.725993 18.4101C0.870193 17.8335 1.03497 17.2651 1.21949 16.7056L1.43373 16.7769L8.64473 19.1773L9.4448 19.4436C9.33447 19.7799 9.23513 20.1213 9.14733 20.4672L8.9064 20.4083L1.52345 18.6049L0.725993 18.4101ZM0.142003 21.6892C0.0481521 22.5577 0 23.4399 0 24.3333C0 37.7723 10.8944 48.6667 24.3333 48.6667C37.7723 48.6667 48.6667 37.7723 48.6667 24.3333C48.6667 10.8944 37.7723 0 24.3333 0C24.1274 0 23.922 0.00255864 23.7173 0.00764587V5.23629L23.1397 0.0287663C21.8582 0.0906667 20.6027 0.251691 19.3809 0.504339L20.6371 7.7004L17.9857 0.83624C16.8546 1.14104 15.7562 1.52532 14.6967 1.98273L18.173 9.54853L12.9515 2.82053C12.0312 3.30843 11.146 3.85365 10.3006 4.45143L10.4305 4.60913L11.0718 5.3872L15.8369 11.1685C18.2845 9.5856 21.2016 8.66667 24.3333 8.66667C32.9858 8.66667 40 15.6809 40 24.3333C40 32.9858 32.9858 40 24.3333 40C15.6809 40 8.66667 32.9858 8.66667 24.3333C8.66667 23.7356 8.70013 23.1457 8.76533 22.5653L8.53913 22.5424L0.978053 21.7741L0.142003 21.6892Z" fill="#C6FF00"/>
<path d="M132.582 51.3346V46.5462H133.575C134.291 46.5462 134.811 46.6037 135.134 46.7188C135.599 46.8815 135.961 47.1636 136.221 47.5651C136.484 47.9666 136.615 48.4451 136.615 49.0006C136.615 49.4802 136.511 49.9024 136.303 50.2669C136.097 50.6315 135.827 50.9006 135.495 51.0742C135.165 51.2478 134.702 51.3346 134.105 51.3346H132.582ZM133.041 50.8822H133.595C134.256 50.8822 134.715 50.8409 134.971 50.7584C135.331 50.6413 135.615 50.4308 135.821 50.127C136.027 49.821 136.13 49.4477 136.13 49.0072C136.13 48.5449 136.019 48.15 135.795 47.8222C135.571 47.4946 135.26 47.27 134.861 47.1484C134.561 47.0573 134.067 47.0117 133.379 47.0117H133.041V50.8822ZM138.808 46.5462H139.287V51.3346H138.808V46.5462ZM146.339 47.3502L145.968 47.7018C145.701 47.4392 145.408 47.2406 145.089 47.1061C144.773 46.9694 144.463 46.901 144.161 46.901C143.786 46.901 143.428 46.9933 143.087 47.1777C142.749 47.3622 142.486 47.6128 142.299 47.9297C142.113 48.2444 142.019 48.5775 142.019 48.929C142.019 49.2893 142.116 49.6322 142.309 49.9577C142.503 50.281 142.769 50.536 143.11 50.7226C143.451 50.9071 143.824 50.9994 144.23 50.9994C144.723 50.9994 145.139 50.8604 145.48 50.5827C145.821 50.3049 146.023 49.9446 146.085 49.502H144.559V49.0397H146.623C146.618 49.7797 146.398 50.3678 145.961 50.804C145.527 51.238 144.946 51.4551 144.217 51.4551C143.331 51.4551 142.631 51.1534 142.114 50.5501C141.717 50.0857 141.518 49.5486 141.518 48.9388C141.518 48.4852 141.632 48.0632 141.86 47.6725C142.088 47.2819 142.401 46.977 142.797 46.7578C143.195 46.5364 143.644 46.4258 144.145 46.4258C144.551 46.4258 144.933 46.4996 145.291 46.6472C145.649 46.7925 145.999 47.0269 146.339 47.3502ZM148.799 46.5462H149.277V51.3346H148.799V46.5462ZM151.235 47.0117V46.5462H153.863V47.0117H152.795V51.3346H152.307V47.0117H151.235ZM157.839 46.5462L160.072 51.3346H159.558L158.806 49.7591H156.742L155.993 51.3346H155.459L157.722 46.5462H157.839ZM157.781 47.5618L156.957 49.2969H158.595L157.781 47.5618ZM162.151 46.5462H162.633V50.8724H164.472V51.3346H162.151V46.5462ZM177.388 47.4349L177.011 47.7246C176.802 47.4534 176.551 47.2482 176.259 47.1094C175.967 46.9683 175.647 46.8978 175.298 46.8978C174.916 46.8978 174.563 46.99 174.237 47.1745C173.911 47.3568 173.659 47.6031 173.479 47.9134C173.301 48.2216 173.211 48.5688 173.211 48.9551C173.211 49.5388 173.411 50.026 173.811 50.4166C174.212 50.8073 174.717 51.0026 175.327 51.0026C175.998 51.0026 176.559 50.74 177.011 50.2148L177.388 50.5013C177.149 50.8051 176.851 51.0406 176.493 51.2077C176.137 51.3726 175.739 51.4551 175.298 51.4551C174.461 51.4551 173.8 51.1762 173.316 50.6185C172.91 50.1476 172.707 49.579 172.707 48.9128C172.707 48.2118 172.952 47.6226 173.443 47.1452C173.935 46.6656 174.551 46.4258 175.291 46.4258C175.739 46.4258 176.143 46.5148 176.503 46.6927C176.863 46.8685 177.158 47.1159 177.388 47.4349ZM179.711 46.5462H180.665C181.197 46.5462 181.557 46.5679 181.745 46.6113C182.03 46.6764 182.261 46.8164 182.439 47.0312C182.617 47.2439 182.706 47.5065 182.706 47.819C182.706 48.0794 182.644 48.3084 182.52 48.5058C182.399 48.7034 182.224 48.8531 181.996 48.9551C181.768 49.0549 181.453 49.1059 181.052 49.1081L182.774 51.3346H182.181L180.463 49.1081H180.189V51.3346H179.711V46.5462ZM180.189 47.015V48.6426L181.013 48.6491C181.332 48.6491 181.567 48.6187 181.719 48.558C181.873 48.4972 181.993 48.4006 182.077 48.2682C182.164 48.1337 182.207 47.984 182.207 47.819C182.207 47.6584 182.164 47.513 182.077 47.3828C181.991 47.2504 181.877 47.156 181.735 47.0996C181.595 47.0432 181.36 47.015 181.033 47.015H180.189ZM185.071 46.5462H187.815V47.0182H185.549V48.5156H187.795V48.9844H185.549V50.8626H187.795V51.3346H185.071V46.5462ZM189.705 46.5462H190.197L191.17 49.9968L192.543 46.5462H192.641L193.999 49.9968L194.991 46.5462H195.48L194.106 51.3346H194.015L192.596 47.7116L191.147 51.3346H191.056L189.705 46.5462Z" fill="white"/>
<path d="M77.3359 17.668V38.3346H81.6693V17.668H77.3359Z" fill="white"/>
<path d="M79.3307 16.0013C80.8035 16.0013 81.9974 14.8074 81.9974 13.3346C81.9974 11.8619 80.8035 10.668 79.3307 10.668C77.858 10.668 76.6641 11.8619 76.6641 13.3346C76.6641 14.8074 77.858 16.0013 79.3307 16.0013Z" fill="white"/>
<path d="M96.9956 22.9517H92.2836V32.0717C92.2836 32.857 92.4609 33.427 92.8156 33.7817C93.1703 34.111 93.6896 34.301 94.3736 34.3517C95.0829 34.377 95.9569 34.3644 96.9956 34.3137V37.9997C93.8543 38.3797 91.5996 38.1137 90.2316 37.2017C88.8636 36.2644 88.1796 34.5544 88.1796 32.0717V22.9517H84.6836V18.9997H88.1796V14.8957L92.2836 13.6797V18.9997H96.9956V22.9517Z" fill="white"/>
<path d="M150.328 22.9517H145.616V32.0717C145.616 32.857 145.793 33.427 146.148 33.7817C146.502 34.111 147.022 34.301 147.706 34.3517C148.415 34.377 149.289 34.3644 150.328 34.3137V37.9997C147.186 38.3797 144.932 38.1137 143.564 37.2017C142.196 36.2644 141.512 34.5544 141.512 32.0717V22.9517H138.016V18.9997H141.512V14.8957L145.616 13.6797V18.9997H150.328V22.9517Z" fill="white"/>
<path d="M169.44 18.9999H173.544V37.9999H169.44V35.2639C167.895 37.4172 165.678 38.4939 162.79 38.4939C160.181 38.4939 157.951 37.5312 156.102 35.6059C154.253 33.6552 153.328 31.2865 153.328 28.4999C153.328 25.6879 154.253 23.3192 156.102 21.3939C157.951 19.4685 160.181 18.5059 162.79 18.5059C165.678 18.5059 167.895 19.5699 169.44 21.6979V18.9999ZM159.142 32.8699C160.282 34.0099 161.713 34.5799 163.436 34.5799C165.159 34.5799 166.59 34.0099 167.73 32.8699C168.87 31.7045 169.44 30.2479 169.44 28.4999C169.44 26.7519 168.87 25.3079 167.73 24.1679C166.59 23.0025 165.159 22.4199 163.436 22.4199C161.713 22.4199 160.282 23.0025 159.142 24.1679C158.002 25.3079 157.432 26.7519 157.432 28.4999C157.432 30.2479 158.002 31.7045 159.142 32.8699Z" fill="white"/>
<path d="M127.721 18.5064C129.899 18.5064 131.66 19.2031 133.003 20.5964C134.345 21.9897 135.017 23.9024 135.017 26.3344V38.0004H130.913V26.7524C130.913 25.3337 130.533 24.2444 129.773 23.4844C129.013 22.7244 127.974 22.3444 126.657 22.3444C125.213 22.3444 124.047 22.8004 123.161 23.7124C122.274 24.5991 121.831 25.9671 121.831 27.8164V38.0004H117.727V11.4004H121.831V21.4324C123.072 19.4817 125.035 18.5064 127.721 18.5064Z" fill="white"/>
<path d="M104.276 23.738C104.276 24.3713 104.618 24.878 105.302 25.258C106.011 25.6127 106.86 25.9293 107.848 26.208C108.861 26.4613 109.875 26.7653 110.888 27.12C111.901 27.4747 112.75 28.0827 113.434 28.944C114.143 29.78 114.498 30.844 114.498 32.136C114.498 33.96 113.789 35.3913 112.37 36.43C110.977 37.4687 109.216 37.988 107.088 37.988C105.213 37.988 103.605 37.5953 102.262 36.81C100.919 36.0247 99.9439 34.9353 99.3359 33.542L102.87 31.49C103.529 33.314 104.935 34.226 107.088 34.226C109.241 34.226 110.318 33.5167 110.318 32.098C110.318 31.49 109.963 30.996 109.254 30.616C108.57 30.236 107.721 29.9193 106.708 29.666C105.72 29.3873 104.719 29.0707 103.706 28.716C102.693 28.3613 101.831 27.7787 101.122 26.968C100.438 26.132 100.096 25.0807 100.096 23.814C100.096 22.066 100.755 20.66 102.072 19.596C103.415 18.532 105.074 18 107.05 18C108.621 18 110.014 18.3547 111.23 19.064C112.471 19.748 113.421 20.7107 114.08 21.952L110.622 23.89C109.963 22.446 108.773 21.724 107.05 21.724C106.265 21.724 105.606 21.9013 105.074 22.256C104.542 22.5853 104.276 23.0793 104.276 23.738Z" fill="white"/>
<path d="M176.664 12.9482V37.9987H180.997V11.332L176.664 12.9482Z" fill="white"/>
<path fill-rule="evenodd" clip-rule="evenodd" d="M187.294 37.9987C192.371 37.9987 196.003 33.7071 196.003 28.4131C196.003 23.1192 192.371 19.332 187.294 19.332C182.217 19.332 179.336 23.1192 179.336 28.4131C179.336 33.7071 182.217 37.9987 187.294 37.9987ZM186.489 33.9987C189.703 33.9987 192.003 31.3931 192.003 28.1789C192.003 24.9647 189.703 22.6654 186.489 22.6654C183.275 22.6654 180.669 24.9647 180.669 28.1789C180.669 31.3931 183.275 33.9987 186.489 33.9987Z" fill="white"/>
<path d="M62.2117 22.7038C61.6543 23.2612 60.983 23.5398 60.1977 23.5398C59.4123 23.5398 58.741 23.2612 58.1837 22.7038C57.6263 22.1465 57.3477 21.4752 57.3477 20.6898C57.3477 19.8792 57.6137 19.2078 58.1457 18.6758C58.703 18.1185 59.387 17.8398 60.1977 17.8398C60.983 17.8398 61.6543 18.1185 62.2117 18.6758C62.769 19.2332 63.0477 19.9045 63.0477 20.6898C63.0477 21.4752 62.769 22.1465 62.2117 22.7038ZM62.2117 36.9538C61.6543 37.5112 60.983 37.7898 60.1977 37.7898C59.4123 37.7898 58.741 37.5112 58.1837 36.9538C57.6263 36.3965 57.3477 35.7252 57.3477 34.9398C57.3477 34.1545 57.6137 33.4832 58.1457 32.9258C58.703 32.3685 59.387 32.0898 60.1977 32.0898C60.983 32.0898 61.6543 32.3685 62.2117 32.9258C62.769 33.4832 63.0477 34.1545 63.0477 34.9398C63.0477 35.7252 62.769 36.3965 62.2117 36.9538Z" fill="white"/>
</g>
<defs>
<clipPath id="clip0_279_803">
<rect width="196" height="52" fill="white"/>
</clipPath>
</defs>
</svg>
