<svg width="219" height="58" viewBox="0 0 219 58" fill="none" xmlns="http://www.w3.org/2000/svg">
<g clip-path="url(#clip0_18_505)">
<path fill-rule="evenodd" clip-rule="evenodd" d="M9.8334 6.24794L10.142 6.54282L10.9559 7.32044L16.9014 13.0011C16.1889 13.5185 15.5171 14.0883 14.8915 14.7048L14.3933 14.2558L9.9388 10.2417L7.69576 8.22038C8.37243 7.5258 9.08604 6.86727 9.8334 6.24794ZM13.3803 15.4631L13.8628 15.8093C13.4227 16.3246 13.012 16.8658 12.6333 17.4303L11.9856 17.0067L8.95479 15.0248L4.53171 12.1326C4.98553 11.4513 5.46937 10.7916 5.98134 10.1554L13.3803 15.4631ZM3.25205 14.2583C2.90392 14.9015 2.58104 15.5604 2.28476 16.2335L2.52479 16.3404L10.2806 19.7927L11.1315 20.1714C11.3397 19.694 11.5686 19.2277 11.8172 18.7737L11.1496 18.4217L7.94568 16.7327L3.25205 14.2583ZM0.811186 20.5343C0.972308 19.8912 1.15642 19.2572 1.3626 18.6332L1.60197 18.7127L9.65917 21.39L10.5531 21.6871C10.4298 22.0622 10.3188 22.443 10.2207 22.8288L9.95154 22.7631L1.70223 20.7516L0.811186 20.5343ZM0.158666 24.1918C0.0538026 25.1605 0 26.1445 0 27.141C0 42.1306 12.1728 54.2821 27.1888 54.2821C42.2047 54.2821 54.3776 42.1306 54.3776 27.141C54.3776 12.1514 42.2047 0 27.1888 0C26.9587 0 26.7292 0.00285387 26.5004 0.00852808V5.84047L25.855 0.0320855C24.4232 0.101128 23.0204 0.280733 21.6552 0.562532L23.0588 8.58891L20.0962 0.932729C18.8324 1.2727 17.6051 1.70132 16.4213 2.2115L20.3055 10.6503L14.4713 3.14597C13.443 3.69017 12.4539 4.2983 11.5093 4.96506L11.6545 5.14096L12.371 6.0088L17.6953 12.4572C20.4301 10.6916 23.6895 9.66667 27.1888 9.66667C36.8566 9.66667 44.6939 17.4902 44.6939 27.141C44.6939 36.7919 36.8566 44.6154 27.1888 44.6154C17.521 44.6154 9.68367 36.7919 9.68367 27.141C9.68367 26.4743 9.72107 25.8163 9.79392 25.169L9.54117 25.1434L1.09282 24.2865L0.158666 24.1918Z" fill="#D0FF48"/>
<path d="M148.141 57.2565V51.9156H149.25C150.051 51.9156 150.631 51.9797 150.992 52.1081C151.511 52.2896 151.916 52.6043 152.207 53.052C152.501 53.4998 152.647 54.0336 152.647 54.6532C152.647 55.1882 152.531 55.659 152.298 56.0656C152.068 56.4723 151.767 56.7724 151.396 56.9661C151.027 57.1597 150.509 57.2565 149.843 57.2565H148.141ZM148.653 56.7518H149.272C150.011 56.7518 150.524 56.7058 150.81 56.6138C151.213 56.4832 151.529 56.2484 151.759 55.9095C151.99 55.5682 152.105 55.1519 152.105 54.6605C152.105 54.1449 151.981 53.7044 151.73 53.3388C151.481 52.9734 151.133 52.7229 150.687 52.5873C150.352 52.4857 149.8 52.4348 149.032 52.4348H148.653V56.7518ZM155.097 51.9156H155.632V57.2565H155.097V51.9156ZM163.512 52.8124L163.097 53.2045C162.799 52.9116 162.472 52.6901 162.116 52.5401C161.762 52.3876 161.416 52.3114 161.079 52.3114C160.659 52.3114 160.259 52.4143 159.879 52.6199C159.5 52.8257 159.207 53.1053 158.998 53.4587C158.79 53.8097 158.685 54.1813 158.685 54.5734C158.685 54.9752 158.793 55.3576 159.009 55.7207C159.225 56.0814 159.523 56.3658 159.904 56.5739C160.285 56.7797 160.702 56.8826 161.155 56.8826C161.706 56.8826 162.172 56.7276 162.552 56.4178C162.933 56.108 163.159 55.7061 163.229 55.2124H161.523V54.6968H163.829C163.824 55.5222 163.578 56.1782 163.09 56.6647C162.605 57.1488 161.956 57.3909 161.141 57.3909C160.151 57.3909 159.368 57.0544 158.791 56.3815C158.347 55.8635 158.125 55.2644 158.125 54.5842C158.125 54.0783 158.253 53.6076 158.507 53.1718C158.762 52.7362 159.111 52.3961 159.555 52.1516C159.999 51.9047 160.501 51.7812 161.061 51.7812C161.514 51.7812 161.941 51.8636 162.341 52.0282C162.741 52.1903 163.132 52.4517 163.512 52.8124ZM166.26 51.9156H166.795V57.2565H166.26V51.9156ZM168.983 52.4348V51.9156H171.919V52.4348H170.725V57.2565H170.18V52.4348H168.983ZM176.362 51.9156L178.856 57.2565H178.282L177.442 55.4992H175.136L174.299 57.2565H173.703L176.231 51.9156H176.362ZM176.296 53.0484L175.376 54.9837H177.206L176.296 53.0484ZM181.18 51.9156H181.718V56.7409H183.773V57.2565H181.18V51.9156ZM198.204 52.9068L197.783 53.23C197.55 52.9274 197.27 52.6986 196.943 52.5437C196.617 52.3864 196.26 52.3077 195.869 52.3077C195.442 52.3077 195.048 52.4106 194.683 52.6164C194.32 52.8197 194.038 53.0944 193.836 53.4406C193.638 53.7843 193.538 54.1715 193.538 54.6024C193.538 55.2535 193.761 55.7969 194.207 56.2326C194.656 56.6683 195.22 56.8862 195.902 56.8862C196.651 56.8862 197.279 56.5933 197.783 56.0075L198.204 56.327C197.938 56.6659 197.604 56.9285 197.204 57.1149C196.806 57.2989 196.362 57.3909 195.869 57.3909C194.934 57.3909 194.195 57.0798 193.655 56.4578C193.201 55.9325 192.975 55.2983 192.975 54.5552C192.975 53.7734 193.248 53.1162 193.796 52.5837C194.347 52.0487 195.035 51.7812 195.862 51.7812C196.362 51.7812 196.813 51.8805 197.215 52.079C197.618 52.2751 197.947 52.551 198.204 52.9068ZM200.8 51.9156H201.866C202.46 51.9156 202.862 51.9398 203.073 51.9882C203.391 52.0608 203.649 52.217 203.848 52.4566C204.047 52.6938 204.147 52.9867 204.147 53.3353C204.147 53.6257 204.077 53.8811 203.939 54.1013C203.803 54.3216 203.608 54.4887 203.353 54.6024C203.098 54.7137 202.747 54.7706 202.298 54.7731L204.222 57.2565H203.56L201.64 54.7731H201.335V57.2565H200.8V51.9156ZM201.335 52.4384V54.2538L202.255 54.2611C202.611 54.2611 202.874 54.2272 203.044 54.1595C203.216 54.0917 203.349 53.984 203.444 53.8363C203.541 53.6862 203.589 53.5192 203.589 53.3353C203.589 53.1561 203.541 52.994 203.444 52.8487C203.347 52.7011 203.22 52.5958 203.062 52.5329C202.905 52.4699 202.643 52.4384 202.277 52.4384H201.335ZM206.789 51.9156H209.855V52.4421H207.324V54.1123H209.833V54.6351H207.324V56.7301H209.833V57.2565H206.789V51.9156ZM211.967 51.9156H212.516L213.604 55.7643L215.138 51.9156H215.248L216.764 55.7643L217.874 51.9156H218.42L216.884 57.2565H216.782L215.197 53.2154L213.578 57.2565H213.476L211.967 51.9156Z" fill="black"/>
<path d="M86.4082 19.7051V42.7564H91.25V19.7051H86.4082Z" fill="black"/>
<path d="M88.6437 17.8462C90.2892 17.8462 91.6232 16.5145 91.6232 14.8718C91.6232 13.2291 90.2892 11.8975 88.6437 11.8975C86.9981 11.8975 85.6641 13.2291 85.6641 14.8718C85.6641 16.5145 86.9981 17.8462 88.6437 17.8462Z" fill="black"/>
<path d="M108.378 25.6006H103.113V35.7729C103.113 36.6489 103.311 37.2847 103.707 37.6803C104.104 38.0476 104.684 38.2595 105.448 38.316C106.241 38.3443 107.217 38.3301 108.378 38.2736V42.3849C104.868 42.8088 102.349 42.5121 100.82 41.4949C99.2916 40.4494 98.5273 38.5421 98.5273 35.7729V25.6006H94.6211V21.1926H98.5273V16.6151L103.113 15.2588V21.1926H108.378V25.6006Z" fill="black"/>
<path d="M167.97 25.6006H162.705V35.7729C162.705 36.6489 162.903 37.2847 163.299 37.6803C163.695 38.0476 164.276 38.2595 165.04 38.316C165.833 38.3443 166.809 38.3301 167.97 38.2736V42.3849C164.46 42.8088 161.94 42.5121 160.412 41.4949C158.883 40.4494 158.119 38.5421 158.119 35.7729V25.6006H154.213V21.1926H158.119V16.6151L162.705 15.2588V21.1926H167.97V25.6006Z" fill="black"/>
<path d="M189.325 21.1926H193.911V42.3849H189.325V39.3332C187.598 41.735 185.122 42.9359 181.895 42.9359C178.979 42.9359 176.488 41.8622 174.422 39.7147C172.355 37.5389 171.322 34.897 171.322 31.7888C171.322 28.6523 172.355 26.0103 174.422 23.8628C176.488 21.7153 178.979 20.6416 181.895 20.6416C185.122 20.6416 187.598 21.8284 189.325 24.2019V21.1926ZM177.819 36.663C179.092 37.9345 180.692 38.5703 182.616 38.5703C184.541 38.5703 186.141 37.9345 187.414 36.663C188.688 35.3632 189.325 33.7384 189.325 31.7888C189.325 29.8391 188.688 28.2284 187.414 26.9569C186.141 25.6571 184.541 25.0072 182.616 25.0072C180.692 25.0072 179.092 25.6571 177.819 26.9569C176.545 28.2284 175.908 29.8391 175.908 31.7888C175.908 33.7384 176.545 35.3632 177.819 36.663Z" fill="black"/>
<path d="M142.71 20.6417C145.144 20.6417 147.111 21.4188 148.612 22.9729C150.112 24.527 150.862 26.6604 150.862 29.373V42.3851H146.276V29.8392C146.276 28.2568 145.852 27.0418 145.003 26.1941C144.153 25.3464 142.993 24.9226 141.521 24.9226C139.907 24.9226 138.605 25.4312 137.615 26.4484C136.624 27.4374 136.129 28.9633 136.129 31.026V42.3851H131.543V12.7158H136.129V23.9054C137.516 21.7296 139.709 20.6417 142.71 20.6417Z" fill="black"/>
<path d="M116.51 26.4772C116.51 27.1836 116.892 27.7488 117.656 28.1726C118.449 28.5682 119.397 28.9214 120.501 29.2322C121.633 29.5148 122.766 29.8539 123.898 30.2495C125.03 30.645 125.978 31.3232 126.743 32.2839C127.535 33.2164 127.931 34.4031 127.931 35.8442C127.931 37.8787 127.139 39.4752 125.554 40.6337C123.997 41.7922 122.03 42.3715 119.652 42.3715C117.557 42.3715 115.76 41.9335 114.26 41.0575C112.759 40.1816 111.67 38.9666 110.99 37.4125L114.939 35.1237C115.675 37.1581 117.246 38.1754 119.652 38.1754C122.058 38.1754 123.261 37.3842 123.261 35.8018C123.261 35.1237 122.865 34.5727 122.072 34.1488C121.308 33.725 120.36 33.3718 119.227 33.0892C118.123 32.7784 117.005 32.4252 115.873 32.0296C114.741 31.634 113.778 30.9841 112.986 30.0799C112.222 29.1475 111.839 27.9748 111.839 26.562C111.839 24.6123 112.575 23.0441 114.047 21.8573C115.548 20.6705 117.402 20.0771 119.609 20.0771C121.364 20.0771 122.921 20.4727 124.28 21.2639C125.667 22.0268 126.728 23.1006 127.464 24.4851L123.601 26.6468C122.865 25.0361 121.534 24.2308 119.609 24.2308C118.732 24.2308 117.996 24.4286 117.402 24.8242C116.807 25.1916 116.51 25.7426 116.51 26.4772Z" fill="black"/>
<path d="M197.398 14.4432V42.3842H202.24V12.6406L197.398 14.4432Z" fill="black"/>
<path fill-rule="evenodd" clip-rule="evenodd" d="M209.269 42.385C214.941 42.385 218.999 37.5982 218.999 31.6933C218.999 25.7886 214.941 21.5645 209.269 21.5645C203.596 21.5645 200.377 25.7886 200.377 31.6933C200.377 37.5982 203.596 42.385 209.269 42.385ZM208.37 37.9234C211.961 37.9234 214.53 35.0172 214.53 31.4321C214.53 27.847 211.961 25.2824 208.37 25.2824C204.778 25.2824 201.867 27.847 201.867 31.4321C201.867 35.0172 204.778 37.9234 208.37 37.9234Z" fill="black"/>
<path d="M69.5109 25.3227C68.8882 25.9443 68.1381 26.2552 67.2606 26.2552C66.3831 26.2552 65.633 25.9443 65.0103 25.3227C64.3875 24.7011 64.0762 23.9523 64.0762 23.0763C64.0762 22.1721 64.3734 21.4233 64.9678 20.8299C65.5905 20.2083 66.3548 19.8975 67.2606 19.8975C68.1381 19.8975 68.8882 20.2083 69.5109 20.8299C70.1337 21.4516 70.445 22.2004 70.445 23.0763C70.445 23.9523 70.1337 24.7011 69.5109 25.3227ZM69.5109 41.2169C68.8882 41.8386 68.1381 42.1494 67.2606 42.1494C66.3831 42.1494 65.633 41.8386 65.0103 41.2169C64.3875 40.5953 64.0762 39.8465 64.0762 38.9705C64.0762 38.0946 64.3734 37.3458 64.9678 36.7242C65.5905 36.1025 66.3548 35.7917 67.2606 35.7917C68.1381 35.7917 68.8882 36.1025 69.5109 36.7242C70.1337 37.3458 70.445 38.0946 70.445 38.9705C70.445 39.8465 70.1337 40.5953 69.5109 41.2169Z" fill="black"/>
</g>
<defs>
<clipPath id="clip0_18_505">
<rect width="219" height="58" fill="white"/>
</clipPath>
</defs>
</svg>
