<svg width="23" height="23" viewBox="0 0 23 23" fill="none" xmlns="http://www.w3.org/2000/svg">
<path d="M17.2239 15.274C17.0107 15.0596 16.7573 14.8896 16.4784 14.7735C16.1994 14.6575 15.9004 14.5977 15.5983 14.5977C15.2963 14.5977 14.9972 14.6575 14.7183 14.7735C14.4393 14.8896 14.186 15.0596 13.9727 15.274L12.8635 16.3852C11.6146 15.5911 10.4575 14.6607 9.41349 13.6109C8.36787 12.563 7.43932 11.404 6.64427 10.1545L7.75349 9.0433C7.96744 8.8297 8.13719 8.57589 8.25302 8.29643C8.36885 8.01696 8.42848 7.71734 8.42848 7.41474C8.42848 7.11214 8.36885 6.81252 8.25302 6.53306C8.13719 6.25359 7.96744 5.99979 7.75349 5.78619L5.58861 3.625C5.37841 3.40995 5.12721 3.23943 4.84992 3.12357C4.57264 3.00771 4.27493 2.94888 3.97451 2.95058C3.67194 2.94984 3.37222 3.00904 3.09258 3.12479C2.81295 3.24053 2.55892 3.41053 2.34511 3.625L1.30474 4.65961C0.808858 5.19375 0.438763 5.83244 0.221657 6.52871C0.00455216 7.22499 -0.0540439 7.96116 0.0501765 8.6831C0.294969 11.557 2.17681 15.0134 5.07607 17.9256C7.97533 20.8379 11.4636 22.7155 14.3323 22.9914C14.5463 23.0029 14.7608 23.0029 14.9749 22.9914C15.5924 23.0174 16.2088 22.9196 16.7881 22.7038C17.3674 22.4879 17.8979 22.1584 18.3484 21.7345L19.3811 20.6923C19.5952 20.4781 19.7649 20.2236 19.8804 19.9434C19.996 19.6633 20.0551 19.363 20.0543 19.0599C20.056 18.7589 19.9973 18.4606 19.8816 18.1829C19.766 17.9051 19.5958 17.6534 19.3811 17.4428L17.2239 15.274ZM18.3025 19.6117L17.2621 20.6463C16.8775 20.9675 16.4284 21.2021 15.9454 21.3343C15.4623 21.4665 14.9566 21.4933 14.4623 21.4127C11.9762 21.1981 8.80916 19.4354 6.19294 16.8144C3.57672 14.1934 1.81727 11.0435 1.58013 8.55282C1.49763 8.05767 1.5233 7.55049 1.65537 7.06624C1.78744 6.58199 2.02276 6.1322 2.34511 5.74787L3.42372 4.70559C3.4952 4.63456 3.57997 4.57837 3.67318 4.54023C3.76638 4.50209 3.86618 4.48276 3.96686 4.48334C4.06753 4.48276 4.16733 4.50209 4.26054 4.54023C4.35374 4.57837 4.43851 4.63456 4.50999 4.70559L6.67487 6.89744C6.81735 7.04103 6.89732 7.23527 6.89732 7.43774C6.89732 7.6402 6.81735 7.83444 6.67487 7.97803L5.14492 9.51079C5.0252 9.63014 4.94827 9.78583 4.92613 9.95357C4.90399 10.1213 4.93788 10.2917 5.02252 10.4381C5.9385 12.0003 7.0518 13.4377 8.33487 14.7145C9.60938 15.9999 11.0441 17.1153 12.6034 18.0329C12.7496 18.1177 12.9197 18.1517 13.0871 18.1295C13.2545 18.1073 13.4099 18.0303 13.5291 17.9103L15.059 16.3776C15.2023 16.2348 15.3962 16.1547 15.5983 16.1547C15.8004 16.1547 15.9943 16.2348 16.1376 16.3776L18.3025 18.5464C18.3734 18.618 18.4295 18.7029 18.4676 18.7963C18.5056 18.8897 18.5249 18.9897 18.5244 19.0905C18.5196 19.2863 18.4402 19.4727 18.3025 19.6117ZM19.6336 3.36443C18.5705 2.29531 17.3066 1.44759 15.9149 0.870156C14.5232 0.292723 13.0312 -0.00300546 11.5248 2.3027e-05C11.3219 2.3027e-05 11.1274 0.0807663 10.9839 0.22449C10.8404 0.368214 10.7598 0.563146 10.7598 0.766402C10.7598 0.969659 10.8404 1.16459 10.9839 1.30831C11.1274 1.45204 11.3219 1.53278 11.5248 1.53278C12.8379 1.53273 14.138 1.7932 15.35 2.29915C16.5621 2.8051 17.6621 3.54651 18.5867 4.4806C19.5113 5.41469 20.242 6.52297 20.7368 7.74147C21.2316 8.95998 21.4806 10.2646 21.4695 11.58C21.4695 11.7833 21.5501 11.9782 21.6936 12.1219C21.837 12.2657 22.0316 12.3464 22.2345 12.3464C22.4374 12.3464 22.632 12.2657 22.7754 12.1219C22.9189 11.9782 22.9995 11.7833 22.9995 11.58C23.0141 10.0549 22.7239 8.54222 22.1458 7.13123C21.5677 5.72024 20.7135 4.43948 19.6336 3.36443Z" fill="white"/>
</svg>
