<svg width="31" height="26" viewBox="0 0 31 26" fill="none" xmlns="http://www.w3.org/2000/svg">
<path d="M24.4767 25.8333C24.0613 25.8333 23.6056 25.6987 23.1127 25.4304L11.9495 17.2951C11.8245 17.2043 11.748 17.0626 11.7398 16.9096C11.7325 16.7566 11.7945 16.6087 11.9103 16.5057L25.1329 4.76064C25.3447 4.57194 25.6712 4.58826 25.8624 4.79838C26.0536 5.00747 26.036 5.32978 25.8242 5.51848L13.0728 16.8463L23.6686 24.5737C23.9486 24.7216 24.4219 24.9092 24.7588 24.7552C25.1019 24.6002 25.2713 24.1055 25.354 23.7179L29.8748 2.68907C30.0505 1.99446 29.9658 1.43552 29.6527 1.17848C29.414 0.982647 29.0585 0.968368 28.6741 1.13972L2.10077 11.2558C1.28547 11.5792 1.0292 11.9117 1.03333 12.0218C1.03643 12.0943 1.2121 12.2942 1.736 12.4523L8.32353 14.482L15.5559 9.97781C15.7977 9.8289 16.1159 9.89927 16.2678 10.1369C16.4197 10.3746 16.3484 10.6898 16.1066 10.8397L8.6728 15.4694C8.54467 15.5489 8.38657 15.5693 8.24293 15.5255L1.43117 13.4264C0.22216 13.0612 0.0154923 12.4166 0.00102554 12.0647C-0.0196412 11.5822 0.26246 10.8846 1.7236 10.3073L28.2752 0.201346C28.9955 -0.123006 29.7684 -0.053648 30.315 0.396161C30.9485 0.917369 31.1551 1.83739 30.8823 2.91958L26.3656 23.929C26.1755 24.8246 25.7808 25.4151 25.1907 25.6824C24.9686 25.7834 24.7309 25.8333 24.4767 25.8333Z" fill="#1C1C1C"/>
<path d="M24.4767 25.8333C24.0613 25.8333 23.6056 25.6987 23.1127 25.4304L16.1686 20.3724C15.9392 20.2051 15.8896 19.8848 16.0601 19.6594C16.2296 19.433 16.5541 19.384 16.7824 19.5523L23.6686 24.5737C23.9486 24.7216 24.4219 24.9092 24.7588 24.7552C25.1019 24.6002 25.2713 24.1055 25.354 23.7179L29.8748 2.68907C30.0505 1.99446 29.9658 1.43552 29.6527 1.17848C29.414 0.982647 29.0585 0.968368 28.6741 1.13972L2.10077 11.2558C1.28547 11.5792 1.0292 11.9117 1.03333 12.0218C1.03643 12.0943 1.2121 12.2942 1.736 12.4523L8.54984 14.5514C8.7131 14.6014 8.8402 14.7289 8.89084 14.89L11.2334 22.5001C11.2964 22.6704 11.345 22.8397 11.3874 22.9866C11.4205 23.1029 11.4618 23.2477 11.4897 23.2905C11.4856 23.2854 11.5682 23.3099 11.7883 23.3109C12.2502 23.3109 12.4259 23.1406 12.7772 22.803L14.4926 21.1567C14.6972 20.9589 15.0237 20.965 15.2231 21.1669C15.4215 21.3689 15.4174 21.6922 15.2128 21.8881L13.5264 23.5047C13.111 23.9056 12.6708 24.3299 11.7883 24.3299C10.7756 24.3299 10.571 23.8872 10.3923 23.263C10.3561 23.1365 10.3148 22.9907 10.2528 22.8224L7.9815 15.4449L1.43117 13.4264C0.22216 13.0612 0.0154923 12.4166 0.00102554 12.0647C-0.0196412 11.5822 0.26246 10.8846 1.7236 10.3073L28.2752 0.201346C28.9955 -0.123006 29.7684 -0.053648 30.315 0.396161C30.9485 0.917369 31.1551 1.83739 30.8823 2.91958L26.3656 23.929C26.1755 24.8246 25.7808 25.4151 25.1907 25.6824C24.9686 25.7834 24.7309 25.8333 24.4767 25.8333Z" fill="#1C1C1C"/>
<path d="M18 9.5C18 9.775 17.775 10 17.5 10C17.225 10 17 9.775 17 9.5C17 9.225 17.225 9 17.5 9C17.775 9 18 9.225 18 9.5Z" fill="#1C1C1C"/>
</svg>
