<svg width="29" height="29" viewBox="0 0 29 29" fill="none" xmlns="http://www.w3.org/2000/svg">
<path d="M24.0373 3.96799C21.4647 1.40968 18.0404 0 14.4003 0C10.7601 0 7.33583 1.40968 4.75739 3.96799C2.18478 6.52631 0.767226 9.93159 0.767226 13.5515C0.767226 16.3651 1.61893 19.0452 3.23483 21.3309L0.0555301 28.1762C-0.0494741 28.3967 -0.00280557 28.6577 0.172202 28.8318C0.283039 28.942 0.434712 29 0.586385 29C0.668055 29 0.749725 28.9826 0.831395 28.9478L8.13503 25.5947C10.0601 26.5867 12.2185 27.1088 14.4061 27.1088C18.0463 27.1088 21.4706 25.6991 24.0432 23.1408C26.6158 20.5825 28.0333 17.1772 28.0333 13.5573C28.0333 9.93739 26.6158 6.53211 24.0373 3.96799ZM14.4003 25.9544C12.3119 25.9544 10.2468 25.4323 8.43254 24.4403C8.2692 24.3533 8.07669 24.3475 7.90752 24.4229L1.78227 27.2364L4.44238 21.5165C4.52988 21.3251 4.50654 21.0988 4.38404 20.9306C2.78564 18.7842 1.93977 16.2374 1.93977 13.5631C1.93394 6.72354 7.5225 1.16023 14.4003 1.16023C21.2722 1.16023 26.8666 6.72354 26.8666 13.5573C26.8666 20.3911 21.2722 25.9544 14.4003 25.9544Z" fill="#1C1C1C"/>
<path d="M19.6681 15.37C19.5757 15.3535 19.4832 15.3371 19.3851 15.3262C18.9172 15.2714 18.3858 15.2112 17.8255 15.4411C17.4847 15.578 17.1151 15.8408 16.7916 16.1638C16.2024 15.912 15.6884 15.6328 15.2552 15.3426C14.7526 15.0032 14.3541 14.6418 14.0653 14.264C14.0537 14.2476 14.0364 14.2312 14.0249 14.2148C13.401 13.5687 12.9332 12.5778 12.6271 11.2693C13.0256 11.0393 13.3722 10.7546 13.5859 10.4644C13.9324 9.9936 13.9844 9.4899 14.0249 9.04096C14.0306 8.95336 14.0364 8.86029 14.0364 8.77269C14.0364 7.66128 13.5801 6.69222 12.8234 6.18852C12.2401 5.7998 11.4718 5.7998 10.9173 5.7998H10.9C10.4437 5.7998 9.99894 5.89288 9.58306 6.07355C9.08054 6.29255 8.64734 6.63199 8.33543 7.05904C8.01775 7.48608 7.82136 7.9843 7.77515 8.50442C7.65385 9.74723 7.80403 10.9627 8.21413 12.1233C8.64734 13.3443 9.38668 15.151 10.7787 16.7059C11.7895 17.9487 13.17 19.0546 14.9895 20.0784C16.1042 20.7026 17.3288 21.0967 18.6284 21.2446C18.7555 21.261 18.8825 21.2665 19.0096 21.2665C19.4313 21.2665 19.8529 21.1843 20.2399 21.0256C20.7482 20.823 21.1872 20.489 21.5164 20.0729C21.7879 19.7335 21.9843 19.3283 22.0767 18.9068L22.0825 18.8904C22.198 18.3757 22.3597 17.664 22.0767 17.0398C21.7128 16.2241 20.8117 15.5999 19.6681 15.37ZM20.9504 18.6549L20.9446 18.6714C20.8868 18.9342 20.7655 19.1915 20.5923 19.405C20.3843 19.6678 20.1013 19.8758 19.7836 20.0072C19.4659 20.1386 19.1136 20.1824 18.767 20.1441C17.6234 20.0127 16.549 19.6678 15.5786 19.1258C13.8805 18.1731 12.6097 17.1548 11.6856 16.016C11.6798 16.0105 11.674 15.9996 11.6682 15.9941C10.3975 14.5816 9.71591 12.9008 9.31159 11.762C8.94769 10.7437 8.82062 9.68153 8.92459 8.59202C8.95347 8.26352 9.08054 7.94598 9.27693 7.6777C9.47909 7.40943 9.75057 7.19591 10.0683 7.05356C10.334 6.93859 10.6112 6.87836 10.9 6.87836H10.9231C10.9289 6.87836 10.9347 6.87836 10.9404 6.87836C11.3621 6.87836 11.8819 6.88384 12.1592 7.06999C12.6964 7.42586 12.8812 8.2033 12.8812 8.76174C12.8812 8.81649 12.8812 8.87671 12.8754 8.93146C12.835 9.34208 12.8061 9.5994 12.6386 9.8184C12.4711 10.0429 12.113 10.3002 11.726 10.4699C11.4834 10.5739 11.3505 10.8203 11.4025 11.0667C11.7375 12.7584 12.3209 14.0505 13.1411 14.9156C13.4992 15.3864 13.9844 15.8244 14.5794 16.2241C15.1743 16.6237 15.8963 16.996 16.7281 17.3245C16.9707 17.4231 17.2537 17.3464 17.4096 17.1493C17.6638 16.8263 17.9988 16.5526 18.2703 16.4431C18.5302 16.339 18.8074 16.3609 19.2349 16.4102C19.2984 16.4157 19.3562 16.4266 19.4139 16.4376C19.9858 16.5526 20.7482 16.892 21.0081 17.4614C21.1525 17.768 21.0428 18.2607 20.9504 18.6549Z" fill="#1C1C1C"/>
</svg>
