<svg width="29" height="29" viewBox="0 0 29 29" fill="none" xmlns="http://www.w3.org/2000/svg">
<path d="M24.0373 3.96799C21.4647 1.40968 18.0404 0 14.4003 0C10.7601 0 7.33583 1.40968 4.75739 3.96799C2.18478 6.52631 0.767226 9.93159 0.767226 13.5515C0.767226 16.3651 1.61893 19.0452 3.23483 21.3309L0.0555301 28.1762C-0.0494741 28.3967 -0.00280557 28.6577 0.172202 28.8318C0.283039 28.942 0.434712 29 0.586385 29C0.668055 29 0.749725 28.9826 0.831395 28.9478L8.13503 25.5947C10.0601 26.5867 12.2185 27.1088 14.4061 27.1088C18.0463 27.1088 21.4706 25.6991 24.0432 23.1408C26.6158 20.5825 28.0333 17.1772 28.0333 13.5573C28.0333 9.93739 26.6158 6.53211 24.0373 3.96799ZM14.4003 25.9544C12.3119 25.9544 10.2468 25.4323 8.43254 24.4403C8.2692 24.3533 8.07669 24.3475 7.90752 24.4229L1.78227 27.2364L4.44238 21.5165C4.52988 21.3251 4.50654 21.0988 4.38404 20.9306C2.78564 18.7842 1.93977 16.2374 1.93977 13.5631C1.93394 6.72354 7.5225 1.16023 14.4003 1.16023C21.2722 1.16023 26.8666 6.72354 26.8666 13.5573C26.8666 20.3911 21.2722 25.9544 14.4003 25.9544Z" fill="white"/>
<path d="M19.6681 15.371C19.5757 15.3545 19.4832 15.3381 19.3851 15.3272C18.9172 15.2724 18.3858 15.2122 17.8255 15.4421C17.4847 15.579 17.1151 15.8418 16.7916 16.1648C16.2024 15.913 15.6884 15.6337 15.2552 15.3436C14.7526 15.0041 14.3541 14.6428 14.0653 14.265C14.0537 14.2486 14.0364 14.2322 14.0249 14.2157C13.401 13.5697 12.9332 12.5787 12.6271 11.2702C13.0256 11.0403 13.3722 10.7556 13.5859 10.4654C13.9324 9.99457 13.9844 9.49088 14.0249 9.04194C14.0306 8.95434 14.0364 8.86127 14.0364 8.77367C14.0364 7.66226 13.5801 6.69319 12.8234 6.1895C12.2401 5.80078 11.4718 5.80078 10.9173 5.80078H10.9C10.4437 5.80078 9.99894 5.89385 9.58306 6.07453C9.08054 6.29352 8.64734 6.63297 8.33543 7.06001C8.01775 7.48706 7.82136 7.98528 7.77515 8.50539C7.65385 9.7482 7.80403 10.9636 8.21413 12.1243C8.64734 13.3452 9.38668 15.152 10.7787 16.7068C11.7895 17.9496 13.17 19.0556 14.9895 20.0794C16.1042 20.7035 17.3288 21.0977 18.6284 21.2455C18.7555 21.262 18.8825 21.2674 19.0096 21.2674C19.4313 21.2674 19.8529 21.1853 20.2399 21.0266C20.7482 20.824 21.1872 20.49 21.5164 20.0739C21.7879 19.7345 21.9843 19.3293 22.0767 18.9078L22.0825 18.8913C22.198 18.3767 22.3597 17.6649 22.0767 17.0408C21.7128 16.225 20.8117 15.6009 19.6681 15.371ZM20.9504 18.6559L20.9446 18.6723C20.8868 18.9351 20.7655 19.1925 20.5923 19.406C20.3843 19.6688 20.1013 19.8768 19.7836 20.0082C19.4659 20.1396 19.1136 20.1834 18.767 20.1451C17.6234 20.0137 16.549 19.6688 15.5786 19.1268C13.8805 18.1741 12.6097 17.1558 11.6856 16.017C11.6798 16.0115 11.674 16.0006 11.6682 15.9951C10.3975 14.5826 9.71591 12.9018 9.31159 11.763C8.94769 10.7446 8.82062 9.6825 8.92459 8.59299C8.95347 8.2645 9.08054 7.94695 9.27693 7.67868C9.47909 7.41041 9.75057 7.19689 10.0683 7.05454C10.334 6.93957 10.6112 6.87934 10.9 6.87934H10.9231C10.9289 6.87934 10.9347 6.87934 10.9404 6.87934C11.3621 6.87934 11.8819 6.88482 12.1592 7.07096C12.6964 7.42683 12.8812 8.20427 12.8812 8.76272C12.8812 8.81747 12.8812 8.87769 12.8754 8.93244C12.835 9.34306 12.8061 9.60038 12.6386 9.81938C12.4711 10.0438 12.113 10.3012 11.726 10.4709C11.4834 10.5749 11.3505 10.8213 11.4025 11.0677C11.7375 12.7594 12.3209 14.0515 13.1411 14.9165C13.4992 15.3874 13.9844 15.8254 14.5794 16.225C15.1743 16.6247 15.8963 16.997 16.7281 17.3255C16.9707 17.424 17.2537 17.3474 17.4096 17.1503C17.6638 16.8273 17.9988 16.5535 18.2703 16.444C18.5302 16.34 18.8074 16.3619 19.2349 16.4112C19.2984 16.4167 19.3562 16.4276 19.4139 16.4386C19.9858 16.5535 20.7482 16.893 21.0081 17.4624C21.1525 17.769 21.0428 18.2617 20.9504 18.6559Z" fill="white"/>
</svg>
