<svg width="207" height="297" viewBox="0 0 207 297" fill="none" xmlns="http://www.w3.org/2000/svg">
<path fill-rule="evenodd" clip-rule="evenodd" d="M-206.342 109.073L-203.09 109.144L-194.512 109.332L-131.851 110.705C-132.897 104.077 -133.441 97.3851 -133.484 90.6903L-138.589 90.4295L-184.231 88.0962L-207.213 86.9212C-207.316 94.3121 -207.026 101.707 -206.342 109.073ZM-137.531 78.4618L-133.065 79.1927C-132.655 74.0426 -131.948 68.9113 -130.942 63.8274L-136.714 62.6245L-163.727 56.9946L-203.148 48.7786C-204.379 54.8975 -205.332 61.0618 -206.007 67.2504L-137.531 78.4618ZM-198.571 30.4201C-196.976 25.0756 -195.16 19.7825 -193.125 14.556L-191.256 15.2721L-130.868 38.4139L-124.243 40.953C-125.696 44.649 -126.979 48.3976 -128.089 52.1855L-133.584 50.4891L-159.948 42.3474L-198.571 30.4201ZM-177.86 -16.5798C-180.461 -12.2428 -182.89 -7.83125 -185.146 -3.35473L-183.428 -2.49491L-125.597 26.4506L-119.18 29.6621C-117.82 26.9745 -116.364 24.323 -114.811 21.7133L-116.615 20.6178L-171.889 -12.9536L-177.86 -16.5798ZM-161.643 -39.8239C-156.982 -45.6141 -151.964 -51.212 -146.588 -56.5879C-65.7266 -137.449 65.3753 -137.449 146.236 -56.5879C227.098 24.2733 227.098 155.375 146.236 236.236C65.3753 317.098 -65.7266 317.098 -146.588 236.236C-147.827 234.997 -149.047 233.746 -150.249 232.484L-118.788 201.023L-153.597 228.881C-160.935 220.798 -167.52 212.275 -173.352 203.403L-122.495 167.664L-179.75 193.011C-184.721 184.372 -189.018 175.451 -192.641 166.324L-126.201 141.717L-198.101 150.781C-200.702 142.309 -202.748 133.702 -204.238 125.018L-202.507 124.851L-193.967 124.028L-130.51 117.913C-125.308 142.165 -113.284 165.246 -94.441 184.09C-42.3797 236.151 42.0283 236.151 94.0897 184.09C146.151 132.028 146.151 47.6202 94.0897 -4.44115C42.0283 -56.5025 -42.3797 -56.5025 -94.441 -4.44115C-98.0376 -0.844621 -101.386 2.90634 -104.485 6.79047L-105.984 5.56743L-156.101 -35.3045L-161.643 -39.8239Z" fill="#FAFAFA"/>
</svg>
