<svg width="16" height="16" viewBox="0 0 16 16" fill="none" xmlns="http://www.w3.org/2000/svg">
<circle cx="8" cy="8" r="7.5" stroke="#4B4B4B"/>
<path d="M8.028 12H7.352V6.15H8.028V12ZM7.235 3.875C7.235 3.745 7.28267 3.641 7.378 3.563C7.47333 3.485 7.586 3.446 7.716 3.446C7.82867 3.446 7.92833 3.48933 8.015 3.576C8.11033 3.654 8.158 3.75367 8.158 3.875C8.158 4.02233 8.11467 4.13933 8.028 4.226C7.95 4.31267 7.846 4.356 7.716 4.356C7.57733 4.356 7.46033 4.31267 7.365 4.226C7.27833 4.13933 7.235 4.02233 7.235 3.875Z" fill="#4B4B4B"/>
</svg>
