<svg width="382" height="382" viewBox="0 0 382 382" fill="none" xmlns="http://www.w3.org/2000/svg">
<g filter="url(#filter0_d_458_2192)">
<path fill-rule="evenodd" clip-rule="evenodd" d="M15.6125 157.926L18.303 158.041L25.3984 158.346L77.2311 160.571C76.012 165.99 75.204 171.488 74.8093 177.016L70.5787 176.958L32.7527 176.438L13.7057 176.177C14.0167 170.066 14.653 163.973 15.6125 157.926ZM70.8108 186.9L74.5391 186.535C74.6013 190.812 74.9108 195.088 75.4692 199.341L70.6364 200.026L48.0218 203.228L15.0192 207.901C14.3301 202.781 13.8731 197.638 13.6476 192.49L70.8108 186.9ZM17.8153 223.311C18.8463 227.811 20.0624 232.28 21.4636 236.707L23.0458 236.215L74.1681 220.337L79.7766 218.595C78.774 215.464 77.9157 212.299 77.2012 209.111L72.5719 210.217L50.3582 215.529L17.8153 223.311ZM32.4038 263.244C30.4872 259.522 28.7177 255.748 27.0942 251.929L28.5595 251.311L77.8806 230.502L83.3528 228.193C84.332 230.486 85.3926 232.754 86.5357 234.993L84.9869 235.801L37.5298 260.569L32.4038 263.244ZM44.5528 283.313C48.0923 288.346 51.9375 293.239 56.0899 297.968C118.548 369.095 226.84 376.124 297.968 313.666C369.096 251.208 376.124 142.916 313.666 71.7878C251.208 0.660152 142.916 -6.36811 71.788 56.0898C70.6981 57.0468 69.6228 58.015 68.5629 58.9934L92.8632 86.6668L65.604 61.7896C59.1093 68.0729 53.213 74.76 47.9202 81.7758L88.0131 114.024L42.0784 90.0167C37.5086 96.8865 33.4811 104.025 29.9996 111.37L83.5606 135.257L24.6562 123.915C22.053 130.775 19.9019 137.774 18.2057 144.867L19.6263 145.098L26.6364 146.236L78.7252 154.689C84.3228 134.935 95.4914 116.514 112.067 101.959C157.861 61.7468 227.584 66.2719 267.796 112.066C308.009 157.861 303.484 227.583 257.689 267.796C211.895 308.009 142.172 303.484 101.96 257.689C99.1816 254.525 96.617 251.248 94.265 247.873L92.9612 248.803L49.3725 279.877L44.5528 283.313Z" fill="#8D8D8D"/>
</g>
<defs>
<filter id="filter0_d_458_2192" x="0.648438" y="0.480469" width="380.625" height="380.793" filterUnits="userSpaceOnUse" color-interpolation-filters="sRGB">
<feFlood flood-opacity="0" result="BackgroundImageFix"/>
<feColorMatrix in="SourceAlpha" type="matrix" values="0 0 0 0 0 0 0 0 0 0 0 0 0 0 0 0 0 0 127 0" result="hardAlpha"/>
<feOffset dx="6" dy="6"/>
<feGaussianBlur stdDeviation="9.5"/>
<feComposite in2="hardAlpha" operator="out"/>
<feColorMatrix type="matrix" values="0 0 0 0 0 0 0 0 0 0 0 0 0 0 0 0 0 0 0.15 0"/>
<feBlend mode="normal" in2="BackgroundImageFix" result="effect1_dropShadow_458_2192"/>
<feBlend mode="normal" in="SourceGraphic" in2="effect1_dropShadow_458_2192" result="shape"/>
</filter>
</defs>
</svg>
