<svg width="102" height="560" viewBox="0 0 102 560" fill="none" xmlns="http://www.w3.org/2000/svg">
<path d="M100 560L1.99999 560L1.99999 537.6L100 537.6L100 560ZM23 522.151L1.99999 522.151L1.99999 440.951L23 440.951L23 470.351L100 470.351L100 492.751L23 492.751L23 522.151ZM73.12 391.025C70.5067 391.025 68.1733 392.425 66.12 395.225C63.9733 398.025 61.9667 401.432 60.1 405.445C58.2333 409.459 56.1333 413.472 53.8 417.485C51.4667 421.499 48.1533 424.905 43.86 427.705C39.5667 430.505 34.48 431.905 28.6 431.905C20.76 431.905 14.0867 429.012 8.57999 423.225C3.07332 417.439 0.319991 409.785 0.319991 400.265C0.31999 387.759 3.91332 378.145 11.1 371.425L27.9 383.465C25.5667 385.985 23.8867 388.272 22.86 390.325C21.8333 392.285 21.32 394.945 21.32 398.305C21.32 401.385 21.9733 403.812 23.28 405.585C24.5867 407.265 26.36 408.105 28.6 408.105C31.12 408.105 33.36 407.125 35.32 405.165C37.28 403.112 38.9133 400.592 40.22 397.605C41.4333 394.525 42.9733 391.212 44.84 387.665C46.7067 384.119 48.7133 380.852 50.86 377.865C52.9133 374.785 55.8533 372.265 59.68 370.305C63.4133 368.252 67.8 367.225 72.84 367.225C81.24 367.225 88.1467 370.445 93.56 376.885C98.9733 383.232 101.68 391.212 101.68 400.825C101.68 407.825 100.233 414.545 97.34 420.985C94.4467 427.425 90.5267 431.765 85.58 434.005L70.32 421.265C73.68 418.652 76.2467 415.432 78.02 411.605C79.7933 407.685 80.68 403.905 80.68 400.265C80.68 397.372 80.0267 395.132 78.72 393.545C77.32 391.865 75.4533 391.025 73.12 391.025ZM100 290.976L60.52 290.976L60.52 326.676L100 326.676L100 349.076L1.99998 349.076L1.99998 326.676L39.52 326.676L39.52 290.976L1.99998 290.976L1.99998 268.576L100 268.576L100 290.976ZM23 254.592L1.99998 254.592L1.99998 173.392L23 173.392L23 202.792L100 202.792L100 225.192L23 225.192L23 254.592ZM100 179.566L1.99997 138.826L1.99997 118.806L100 78.0664L100 102.006L79.42 110.126L79.42 148.906L100 157.026L100 179.566ZM30.7 129.446L58.42 140.506L58.42 118.526L30.7 129.446ZM99.72 65.5211L2.27998 65.5211C1.71997 54.6011 1.43997 44.7078 1.43997 35.8411C1.43997 24.7344 3.67997 16.4744 8.15997 11.0611C12.64 5.64776 18.52 2.94109 25.8 2.94109C35.5066 2.94109 42.7866 6.67442 47.64 14.1411L47.92 14.1411C49.4133 10.1278 52.0733 6.81442 55.9 4.20109C59.6333 1.49442 64.44 0.141084 70.32 0.141084C80.2133 0.141084 87.7266 3.59442 92.86 10.5011C97.9933 17.3144 100.56 26.2744 100.56 37.3811C100.56 50.3544 100.28 59.7344 99.72 65.5211ZM60.38 34.4411L60.38 43.1211L78.72 43.1211C79.28 41.0678 79.56 38.5478 79.56 35.5611C79.56 26.8811 76.1066 22.5411 69.2 22.5411C63.32 22.5411 60.38 26.5078 60.38 34.4411ZM22.44 36.1211C22.44 37.4278 22.6266 39.7611 23 43.1211L40.78 43.1211L40.78 35.7011C40.78 28.7944 37.6066 25.3411 31.26 25.3411C28.46 25.3411 26.3133 26.4144 24.82 28.5611C23.2333 30.6144 22.44 33.1344 22.44 36.1211Z" fill="white" fill-opacity="0.03"/>
</svg>
