<svg width="70" height="73" viewBox="0 0 70 73" fill="none" xmlns="http://www.w3.org/2000/svg">
<rect width="56.8236" height="38.3598" rx="19.1799" transform="matrix(0.704487 -0.709717 0.755204 0.65549 0 47.3242)" fill="#D0FF48"/>
<mask id="path-2-inside-1_932_3814" fill="white">
<path d="M52.1694 49.2275C52.517 49.5187 52.5637 50.0376 52.261 50.3752C48.5131 54.5561 43.4341 57.3276 37.8721 58.2097C32.0394 59.1346 26.0689 57.9191 21.062 54.7875C16.0552 51.6558 12.3496 46.8192 10.6289 41.1698C8.90825 35.5204 9.28851 29.4394 11.6996 24.0484C14.1106 18.6573 18.3899 14.32 23.7479 11.8365C29.1059 9.353 35.1813 8.89079 40.8533 10.5352C46.5254 12.1795 51.4115 15.8195 54.6104 20.7837C57.6608 25.5175 58.9807 31.1509 58.3629 36.7316C58.313 37.1823 57.8951 37.4935 57.4464 37.4285C56.9976 37.3635 56.6881 36.9471 56.7369 36.4963C57.2986 31.3079 56.0659 26.0738 53.2301 21.6732C50.2459 17.042 45.6876 13.6463 40.3961 12.1122C35.1046 10.5782 29.4369 11.0094 24.4384 13.3263C19.4399 15.6432 15.4478 19.6895 13.1985 24.7187C10.9492 29.748 10.5945 35.4211 12.1997 40.6914C13.8049 45.9617 17.2619 50.4738 21.9328 53.3953C26.6037 56.3168 32.1736 57.4508 37.615 56.5879C42.7855 55.7679 47.5087 53.1976 51.0015 49.3201C51.305 48.9832 51.8218 48.9363 52.1694 49.2275Z"/>
</mask>
<path d="M52.1694 49.2275C52.517 49.5187 52.5637 50.0376 52.261 50.3752C48.5131 54.5561 43.4341 57.3276 37.8721 58.2097C32.0394 59.1346 26.0689 57.9191 21.062 54.7875C16.0552 51.6558 12.3496 46.8192 10.6289 41.1698C8.90825 35.5204 9.28851 29.4394 11.6996 24.0484C14.1106 18.6573 18.3899 14.32 23.7479 11.8365C29.1059 9.353 35.1813 8.89079 40.8533 10.5352C46.5254 12.1795 51.4115 15.8195 54.6104 20.7837C57.6608 25.5175 58.9807 31.1509 58.3629 36.7316C58.313 37.1823 57.8951 37.4935 57.4464 37.4285C56.9976 37.3635 56.6881 36.9471 56.7369 36.4963C57.2986 31.3079 56.0659 26.0738 53.2301 21.6732C50.2459 17.042 45.6876 13.6463 40.3961 12.1122C35.1046 10.5782 29.4369 11.0094 24.4384 13.3263C19.4399 15.6432 15.4478 19.6895 13.1985 24.7187C10.9492 29.748 10.5945 35.4211 12.1997 40.6914C13.8049 45.9617 17.2619 50.4738 21.9328 53.3953C26.6037 56.3168 32.1736 57.4508 37.615 56.5879C42.7855 55.7679 47.5087 53.1976 51.0015 49.3201C51.305 48.9832 51.8218 48.9363 52.1694 49.2275Z" stroke="black" stroke-width="2" mask="url(#path-2-inside-1_932_3814)"/>
<path d="M38 27.2C38 25.9733 37.5333 24.9333 36.6 24.08C35.6933 23.2267 34.5333 22.8 33.12 22.8C30.8267 22.8 28.96 23.7867 27.52 25.76L25.6 23.64C26.3467 22.44 27.4 21.4667 28.76 20.72C30.1467 19.9733 31.6667 19.6 33.32 19.6C35.8267 19.6 37.8 20.2667 39.24 21.6C40.7067 22.9333 41.44 24.5733 41.44 26.52C41.44 27.7467 41.2267 28.8533 40.8 29.84C40.3733 30.8267 39.84 31.6 39.2 32.16C38.56 32.72 37.88 33.2933 37.16 33.88C36.4667 34.4667 35.8267 35 35.24 35.48C34.68 35.96 34.24 36.5733 33.92 37.32C33.6267 38.0667 33.5733 38.92 33.76 39.88L30.88 39.92C30.6133 38.5333 30.6667 37.3467 31.04 36.36C31.44 35.3733 32.0133 34.5733 32.76 33.96C33.5067 33.3467 34.2667 32.76 35.04 32.2C35.84 31.64 36.5333 30.9467 37.12 30.12C37.7067 29.2667 38 28.2933 38 27.2ZM30.08 45.84C30.08 45.28 30.2933 44.7867 30.72 44.36C31.1467 43.9333 31.7067 43.72 32.4 43.72C32.9867 43.72 33.48 43.9467 33.88 44.4C34.3067 44.8267 34.52 45.3067 34.52 45.84C34.52 46.4533 34.32 46.9867 33.92 47.44C33.52 47.8933 33.0133 48.12 32.4 48.12C31.7067 48.12 31.1467 47.8933 30.72 47.44C30.2933 46.9867 30.08 46.4533 30.08 45.84Z" fill="black"/>
</svg>
