<svg width="102" height="595" viewBox="0 0 102 595" fill="none" xmlns="http://www.w3.org/2000/svg">
<path d="M51 594.4C36.5333 594.4 24.4933 589.593 14.88 579.98C5.17333 570.273 0.319996 557.72 0.319996 542.32C0.319995 527.107 4.93999 514.647 14.18 504.94C23.42 495.14 35.6933 490.24 51 490.24C65.7467 490.24 77.88 495.187 87.4 505.08C96.92 514.88 101.68 527.293 101.68 542.32C101.68 557.533 97.06 570.04 87.82 579.84C78.58 589.547 66.3067 594.4 51 594.4ZM51 570.6C59.4 570.6 66.4467 567.847 72.14 562.34C77.8333 556.833 80.68 550.16 80.68 542.32C80.68 533.36 77.9267 526.407 72.42 521.46C66.82 516.513 59.68 514.04 51 514.04C42.2267 514.04 35.0867 516.747 29.58 522.16C24.0733 527.573 21.32 534.293 21.32 542.32C21.32 550.533 24.0733 557.3 29.58 562.62C34.9933 567.94 42.1333 570.6 51 570.6ZM23 487.448L1.99999 487.448L1.99998 406.248L23 406.248L23 435.648L100 435.648L100 458.048L23 458.048L23 487.448ZM101.68 365.562C101.68 381.242 95.8 392.956 84.04 400.702L68.78 388.522C76.7133 381.429 80.68 374.102 80.68 366.542C80.68 362.902 79.8867 359.729 78.3 357.022C76.62 354.222 73.96 352.822 70.32 352.822C67.3333 352.822 64.9533 354.082 63.18 356.602C61.3133 359.122 60.38 362.949 60.38 368.082L60.38 377.042L39.38 377.042L39.38 368.642C39.38 365.189 38.6333 362.342 37.14 360.102C35.5533 357.769 33.3133 356.602 30.42 356.602C27.4333 356.602 25.1933 357.582 23.7 359.542C22.1133 361.502 21.32 364.116 21.32 367.382C21.32 374.102 24.7267 379.889 31.54 384.742L16.42 397.622C11.66 394.356 7.78666 389.782 4.79999 383.902C1.81332 377.929 0.319988 371.442 0.319988 364.442C0.319988 355.389 2.74665 348.109 7.59999 342.602C12.36 337.002 19.1267 334.202 27.9 334.202C36.3 334.202 43.2533 338.309 48.76 346.522L49.18 346.522C52.54 335.789 60.3333 330.422 72.56 330.422C81.24 330.422 88.2867 333.969 93.7 341.062C99.02 348.156 101.68 356.322 101.68 365.562ZM100 233.151L1.99998 233.151L1.99998 210.751L100 210.751L100 233.151ZM53.1 280.331C53.1 281.731 53.3333 283.971 53.8 287.051L78.72 287.051C79.0933 283.691 79.28 281.497 79.28 280.471C79.28 271.137 74.7533 266.471 65.7 266.471C61.5 266.471 58.3733 267.731 56.32 270.251C54.1733 272.677 53.1 276.037 53.1 280.331ZM1.99998 287.051L32.66 287.051C32.2866 283.971 32.1 281.077 32.1 278.371C32.1 266.611 35.04 257.744 40.92 251.771C46.8 245.704 54.8733 242.671 65.14 242.671C75.78 242.671 84.32 246.217 90.76 253.311C97.1067 260.404 100.28 270.344 100.28 283.131C100.28 286.864 100.233 291.811 100.14 297.971C100.047 304.037 100 307.864 100 309.451L1.99998 309.451L1.99998 287.051ZM99.72 185.584L2.27998 185.584C1.71998 174.664 1.43997 164.77 1.43997 155.904C1.43997 144.797 3.67997 136.537 8.15998 131.124C12.64 125.71 18.52 123.004 25.8 123.004C35.5066 123.004 42.7866 126.737 47.64 134.204L47.92 134.204C49.4133 130.19 52.0733 126.877 55.9 124.264C59.6333 121.557 64.44 120.204 70.32 120.204C80.2133 120.204 87.7266 123.657 92.86 130.564C97.9933 137.377 100.56 146.337 100.56 157.444C100.56 170.417 100.28 179.797 99.72 185.584ZM60.38 154.504L60.38 163.184L78.72 163.184C79.28 161.13 79.56 158.61 79.56 155.624C79.56 146.944 76.1066 142.604 69.2 142.604C63.32 142.604 60.38 146.57 60.38 154.504ZM22.44 156.184C22.44 157.49 22.6266 159.824 23 163.184L40.78 163.184L40.78 155.764C40.78 148.857 37.6066 145.404 31.26 145.404C28.46 145.404 26.3133 146.477 24.82 148.624C23.2333 150.677 22.44 153.197 22.44 156.184ZM100 22.8773L1.99997 22.8773L1.99997 0.47734L100 0.477336L100 22.8773ZM53.1 70.0573C53.1 71.4573 53.3333 73.6973 53.8 76.7773L78.72 76.7773C79.0933 73.4173 79.28 71.224 79.28 70.1973C79.28 60.864 74.7533 56.1973 65.7 56.1973C61.5 56.1973 58.3733 57.4573 56.32 59.9773C54.1733 62.404 53.1 65.764 53.1 70.0573ZM1.99997 76.7773L32.66 76.7773C32.2866 73.6973 32.1 70.804 32.1 68.0973C32.1 56.3373 35.04 47.4707 40.92 41.4973C46.8 35.4307 54.8733 32.3973 65.14 32.3973C75.78 32.3973 84.32 35.944 90.76 43.0373C97.1066 50.1307 100.28 60.0707 100.28 72.8573C100.28 76.5907 100.233 81.5373 100.14 87.6973C100.047 93.764 100 97.5907 100 99.1773L1.99997 99.1773L1.99997 76.7773Z" fill="white" fill-opacity="0.03"/>
</svg>
