<svg width="79" height="69" viewBox="0 0 79 69" fill="none" xmlns="http://www.w3.org/2000/svg">
<path d="M23.1576 35.1683C22.2193 34.9994 21.3164 35.6229 21.2036 36.5696C20.4991 42.4826 21.6311 48.4851 24.4682 53.7523C27.5788 59.5274 32.5555 64.0773 38.5855 66.6591C44.6156 69.241 51.3428 69.7023 57.6688 67.9676C63.9949 66.233 69.546 62.405 73.4158 57.1086C77.2856 51.8121 79.2454 45.3602 78.9754 38.8062C78.7054 32.2523 76.2214 25.9834 71.9291 21.0233C67.6367 16.0631 61.7895 12.7047 55.3423 11.4963C49.4619 10.3942 43.3993 11.14 37.9801 13.6083C37.1125 14.0034 36.7929 15.0532 37.2389 15.8958C37.685 16.7383 38.7276 17.0539 39.5984 16.6658C44.3246 14.5589 49.5937 13.9314 54.7063 14.8897C60.386 15.9542 65.5371 18.9128 69.3184 23.2824C73.0998 27.6521 75.288 33.1746 75.5259 38.9483C75.7638 44.7221 74.0372 50.4059 70.6281 55.0718C67.219 59.7377 62.3288 63.11 56.7559 64.6381C51.183 66.1662 45.2566 65.7599 39.9444 63.4854C34.6322 61.2109 30.2481 57.2027 27.5077 52.1151C25.041 47.5356 24.0375 42.3251 24.6083 37.1821C24.7135 36.2346 24.0959 35.3372 23.1576 35.1683Z" fill="white"/>
<path d="M36.7757 38.2311C35.8681 38.1097 35.0243 38.748 35.0038 39.6634C34.9398 42.5101 35.6877 45.3288 37.1768 47.7824C38.9539 50.7106 41.6796 52.9423 44.9008 54.1067C48.122 55.271 51.6447 55.2979 54.8832 54.1829C58.1218 53.0678 60.8813 50.8779 62.7029 47.9773C64.5244 45.0767 65.2984 41.64 64.8962 38.2385C64.494 34.837 62.9397 31.6756 60.4918 29.2799C58.044 26.8841 54.8499 25.3983 51.4405 25.0693C48.5836 24.7937 45.7198 25.3443 43.1834 26.6383C42.3678 27.0544 42.1593 28.0917 42.6629 28.8565C43.1664 29.6213 44.191 29.8209 45.0193 29.4306C46.9119 28.5387 49.0194 28.167 51.1221 28.3699C53.7778 28.6261 56.2658 29.7835 58.1725 31.6496C60.0793 33.5158 61.29 35.9783 61.6033 38.6279C61.9166 41.2774 61.3137 43.9544 59.8948 46.2139C58.4759 48.4733 56.3264 50.1791 53.8038 51.0476C51.2811 51.9162 48.5371 51.8953 46.028 50.9883C43.5189 50.0813 41.3957 48.3429 40.0115 46.0621C38.9155 44.2562 38.335 42.1964 38.3163 40.1043C38.3081 39.1887 37.6833 38.3525 36.7757 38.2311Z" fill="white"/>
<line x1="48.4291" y1="39.3957" x2="11.2843" y2="11.1022" stroke="#9B9B9B" stroke-width="3" stroke-linecap="round"/>
<circle cx="4" cy="4" r="4" transform="matrix(-1 0 0 1 54 36)" fill="#D0FF48"/>
<path d="M28.2578 14.4925L28.2113 24.5065L17.4432 27.2202L2.8638 15.6864L11.165 11.2012L13.546 2.80545L28.2578 14.4925Z" stroke="#9B9B9B" stroke-width="3"/>
</svg>
