<svg width="60" height="67" viewBox="0 0 60 67" fill="none" xmlns="http://www.w3.org/2000/svg">
<rect x="0.5" y="13.5" width="45" height="53" rx="4.5" stroke="#656565"/>
<rect x="5.36328" y="27.8926" width="3.2183" height="7.50936" rx="1" fill="white"/>
<rect x="9.6543" y="30.0371" width="3.2183" height="5.36383" rx="1" fill="#8D8D8D"/>
<rect x="13.9453" y="27.8926" width="3.2183" height="7.50936" rx="1" fill="#D0FF48"/>
<rect x="18.2363" y="25.7461" width="3.2183" height="9.65489" rx="1" fill="white"/>
<line x1="41.3379" y1="43.4102" x2="5.86387" y2="43.4102" stroke="#AAAAAA" stroke-linecap="round"/>
<line x1="41.3379" y1="56.2832" x2="5.86387" y2="56.2832" stroke="#AAAAAA" stroke-linecap="round"/>
<line x1="41.3379" y1="53.0645" x2="5.86387" y2="53.0644" stroke="#AAAAAA" stroke-linecap="round"/>
<line x1="22.0273" y1="46.6289" x2="5.8631" y2="46.6289" stroke="#AAAAAA" stroke-linecap="round"/>
<line x1="40.2637" y1="46.6289" x2="24.0994" y2="46.6289" stroke="#AAAAAA" stroke-linecap="round"/>
<line x1="28.465" y1="49.8479" x2="5.86421" y2="49.8567" stroke="#AAAAAA" stroke-linecap="round"/>
<line x1="41.338" y1="40.1915" x2="5.86401" y2="40.2006" stroke="#AAAAAA" stroke-linecap="round"/>
<line x1="41.3383" y1="49.848" x2="30.5379" y2="49.8565" stroke="#AAAAAA" stroke-linecap="round"/>
<path d="M24.6738 33.2564L26.8194 31.6473L28.4285 33.2564L31.1104 30.0381L35.9379 31.6473L38.6198 27.8926L40.7653 28.429" stroke="white"/>
<path d="M48.6328 17.873L57.2963 26.2042C58.2378 27.1097 58.2671 28.607 57.3617 29.5485C56.4562 30.4901 54.9589 30.5194 54.0174 29.6139L45.3539 21.2827C46.8072 20.3959 47.6289 19.6424 48.6328 17.873Z" fill="white"/>
<path d="M49.3464 11.264C49.3464 17.485 44.3034 22.5281 38.0824 22.5281C31.8614 22.5281 26.8184 17.485 26.8184 11.264C26.8184 5.04308 31.8614 0 38.0824 0C44.3034 0 49.3464 5.04308 49.3464 11.264ZM29.1923 11.264C29.1923 16.1739 33.1726 20.1541 38.0824 20.1541C42.9922 20.1541 46.9725 16.1739 46.9725 11.264C46.9725 6.35419 42.9922 2.37398 38.0824 2.37398C33.1726 2.37398 29.1923 6.35419 29.1923 11.264Z" fill="white"/>
<path d="M36.7796 4.46683C34.4374 5.80835 32.6554 7.947 31.7586 10.4928L33.7135 11.1815C34.4452 9.10462 35.899 7.35988 37.8098 6.26544L36.7796 4.46683Z" fill="#D0FF48"/>
</svg>
