<svg width="73" height="59" viewBox="0 0 73 59" fill="none" xmlns="http://www.w3.org/2000/svg">
<path d="M42.0999 52.4544L15.1223 58.0076C12.4475 58.5582 9.82566 56.8607 9.23327 54.1948L1.08417 17.5219C0.48533 14.827 2.18391 12.1567 4.87859 11.5568L51.934 1.08106C54.6199 0.483127 57.2841 2.16768 57.8955 4.85046L61 18.4711" stroke="#AAAAAA" stroke-linecap="round"/>
<path d="M20.5 37.5L22.8165 47.2624" stroke="white" stroke-width="3" stroke-linecap="round"/>
<path d="M27 32.5L30.2913 45.3953" stroke="white" stroke-width="3" stroke-linecap="round"/>
<path d="M33.5 29.5L36.9588 43.6593" stroke="white" stroke-width="3" stroke-linecap="round"/>
<path d="M13.2691 23.4373C12.7372 23.2887 12.1855 23.5994 12.0369 24.1313C11.8883 24.6632 12.199 25.2149 12.7309 25.3635L13.2691 23.4373ZM39.2414 11.6745C39.0615 11.1524 38.4923 10.875 37.9702 11.055L29.4613 13.9876C28.9392 14.1676 28.6618 14.7367 28.8418 15.2589C29.0217 15.781 29.5909 16.0584 30.113 15.8784L37.6764 13.2717L40.2832 20.835C40.4632 21.3572 41.0323 21.6346 41.5545 21.4546C42.0766 21.2747 42.354 20.7055 42.174 20.1833L39.2414 11.6745ZM12.7309 25.3635C18.6162 27.0078 23.8863 26.6157 28.3897 24.3381C32.8797 22.0673 36.4942 17.98 39.1949 12.4385L37.3971 11.5623C34.8297 16.8301 31.4841 20.5319 27.4871 22.5534C23.5035 24.5681 18.7597 24.9713 13.2691 23.4373L12.7309 25.3635Z" fill="white"/>
<path fill-rule="evenodd" clip-rule="evenodd" d="M71.6217 30.7867L70.7118 29.2133C69.9421 27.8821 68.2363 27.4228 66.8986 28.1867C66.2618 28.5605 65.5019 28.6665 64.7866 28.4815C64.0712 28.2964 63.4592 27.8353 63.0853 27.2C62.8448 26.7962 62.7156 26.3362 62.7107 25.8667C62.7324 25.1138 62.4474 24.3843 61.9206 23.8443C61.3938 23.3042 60.6701 22.9997 59.9143 23H58.0812C57.3408 23 56.6309 23.294 56.1086 23.817C55.5863 24.34 55.2947 25.0488 55.2982 25.7867C55.2763 27.3101 54.0307 28.5335 52.5019 28.5333C52.0307 28.5285 51.5691 28.3997 51.1639 28.16C49.8261 27.3961 48.1203 27.8554 47.3506 29.1867L46.3739 30.7867C45.6051 32.1163 46.0597 33.8151 47.3908 34.5867C48.256 35.0845 48.789 36.0044 48.789 37C48.789 37.9956 48.256 38.9155 47.3908 39.4133C46.0614 40.1797 45.6063 41.8744 46.3739 43.2L47.2971 44.7867C47.6577 45.4352 48.2628 45.9137 48.9785 46.1164C49.6942 46.3191 50.4614 46.2292 51.1104 45.8667C51.7483 45.4957 52.5086 45.394 53.2222 45.5843C53.9357 45.7746 54.5434 46.2411 54.9102 46.88C55.1507 47.2838 55.28 47.7438 55.2849 48.2133C55.2849 49.7524 56.5368 51 58.0812 51H59.9143C61.4535 51 62.7033 49.7605 62.7107 48.2267C62.7071 47.4865 63.0006 46.7756 63.5258 46.2523C64.051 45.7289 64.7643 45.4364 65.5071 45.44C65.9771 45.4525 66.4368 45.5808 66.845 45.8133C68.1793 46.5794 69.884 46.1264 70.6583 44.8L71.6217 43.2C71.9945 42.5622 72.0969 41.8026 71.906 41.0893C71.7152 40.3761 71.2468 39.7681 70.6048 39.4C69.9627 39.0319 69.4944 38.4239 69.3035 37.7107C69.1127 36.9974 69.215 36.2378 69.5879 35.6C69.8304 35.1781 70.1814 34.8283 70.6048 34.5867C71.9279 33.8155 72.3814 32.1266 71.6217 30.8V30.7867Z" stroke="#D0FF48" stroke-width="2" stroke-linecap="round" stroke-linejoin="round"/>
<path d="M59 41C61.2091 41 63 39.2091 63 37C63 34.7909 61.2091 33 59 33C56.7909 33 55 34.7909 55 37C55 39.2091 56.7909 41 59 41Z" stroke="white" stroke-width="2" stroke-linecap="round" stroke-linejoin="round"/>
</svg>
