<svg width="104" height="109" viewBox="0 0 104 109" fill="none" xmlns="http://www.w3.org/2000/svg">
<path opacity="0.9" fill-rule="evenodd" clip-rule="evenodd" d="M0.329195 108.13L1.94933 108.246L6.22189 108.55L37.4337 110.778C37.0754 107.447 36.9689 104.097 37.1121 100.757L34.5731 100.502L11.8716 98.2146L0.440305 97.0629C0.206944 100.746 0.169673 104.44 0.329195 108.13ZM35.3952 94.5602L37.6042 95.0346C37.9352 92.4766 38.4144 89.9353 39.0412 87.4251L36.1923 86.6831L22.8613 83.2108L3.4067 78.1434C2.64205 81.1642 2.01493 84.2145 1.52613 87.2839L35.3952 94.5602ZM6.14071 69.1017C7.06765 66.476 8.10336 63.8813 9.24704 61.3252L10.1614 61.7283L39.7039 74.7546L42.9449 76.1838C42.129 77.991 41.3973 79.8286 40.7502 81.6901L38.0523 80.7089L25.1063 76L6.14071 69.1017ZM17.6255 46.1754C16.2214 48.274 14.9018 50.4139 13.6667 52.5906L14.5023 53.0616L42.6267 68.9189L45.7471 70.6783C46.4914 69.3716 47.2827 68.0853 48.1215 66.8222L47.2489 66.2315L20.5133 48.1305L17.6255 46.1754ZM26.284 34.9841C28.7507 32.2116 31.3909 29.5438 34.2039 26.9954C76.5157 -11.3348 141.889 -8.10717 180.219 34.2046C218.549 76.5163 215.322 141.889 173.01 180.22C130.698 218.55 65.325 215.322 26.9948 173.011C26.4074 172.362 25.8297 171.708 25.2617 171.049L41.7238 156.136L23.6808 169.17C20.2207 164.959 17.1469 160.547 14.4574 155.98L40.6969 139.41L11.523 150.64C9.25663 146.21 7.33368 141.655 5.75201 137.015L39.4875 126.381L3.41196 129.131C2.32332 124.842 1.51517 120.5 0.986035 116.133L1.85314 116.092L6.13184 115.892L37.9249 114.405C39.9221 126.626 45.3491 138.432 54.2813 148.292C78.9597 175.534 121.049 177.612 148.291 152.933C175.533 128.255 177.611 86.1653 152.933 58.9234C128.254 31.6816 86.1646 29.6036 58.9228 54.2819C57.0409 55.9868 55.279 57.7748 53.6378 59.6352L52.9204 58.9885L28.936 37.3741L26.284 34.9841Z" fill="white"/>
</svg>
