<svg width="85" height="85" viewBox="0 0 85 85" fill="none" xmlns="http://www.w3.org/2000/svg">
<g clip-path="url(#clip0_783_3112)">
<path fill-rule="evenodd" clip-rule="evenodd" d="M41.6315 3.32762C41.5985 3.36398 41.5684 3.40289 41.5415 3.44398C37.9092 7.1107 35.3016 11.2283 33.5258 15.5562C33.5137 15.58 33.5027 15.6042 33.4927 15.6289C33.4795 15.6686 33.4544 15.707 33.4372 15.7479C33.4048 15.8288 33.3839 15.9138 33.375 16.0005C33.2441 16.3694 33.1106 16.7859 32.977 17.2395C32.9667 17.2642 32.9574 17.2894 32.9493 17.3149C32.9334 17.3625 32.9241 17.4114 32.9083 17.459C32.8501 17.6573 32.8144 17.7671 32.7615 17.9575C30.7225 24.5267 30.2835 31.3471 30.9381 37.8541C30.1428 38.1682 29.3945 38.59 28.714 39.1076C26.2108 41.0633 24.5924 44.2976 23.9153 48.1297C23.0135 53.2417 23.7223 59.5173 26.2479 65.8088C26.3253 66.0005 26.4642 66.1612 26.6427 66.2656C26.8212 66.37 27.0293 66.4123 27.2344 66.3859C27.4395 66.3594 27.6301 66.2657 27.7762 66.1194C27.9224 65.9731 28.0159 65.7825 28.0422 65.5774C28.6545 60.7338 29.6356 57.4704 30.8508 55.7183C31.4617 54.843 32.0951 54.3444 32.7932 54.0959C33.3962 53.8816 34.0864 53.8552 34.9089 54.0218C35.0226 54.3048 35.1165 54.6076 35.2329 54.8879C35.3042 55.0583 35.4244 55.2037 35.5783 55.3059C35.7322 55.408 35.9129 55.4622 36.0977 55.4618H38.9379C39.5634 58.5546 40.4097 61.9397 41.408 65.6858C41.408 65.6858 41.4014 65.6897 41.412 65.7056C41.416 65.7198 41.4205 65.7339 41.4252 65.7479C41.4286 65.7568 41.4321 65.7656 41.4358 65.7744C41.4383 65.7806 41.441 65.7867 41.4437 65.7929C41.4528 65.8175 41.463 65.8418 41.4741 65.8656C41.4767 65.8718 41.4793 65.878 41.482 65.8841C41.4931 65.9053 41.5051 65.926 41.5178 65.9463C41.5336 65.9731 41.5508 65.9992 41.5693 66.0243C41.5804 66.0387 41.5918 66.0528 41.6037 66.0666C41.6114 66.0765 41.6194 66.0862 41.6275 66.0957C41.6323 66.1006 41.6371 66.1054 41.642 66.1102C41.6639 66.1325 41.6868 66.1537 41.7108 66.1737C41.7296 66.1904 41.749 66.2062 41.769 66.2213C41.7742 66.2249 41.7795 66.2284 41.7849 66.2319C41.8109 66.2495 41.8378 66.2659 41.8655 66.2808C41.8909 66.2948 41.9169 66.3076 41.9435 66.3192C41.9669 66.3298 41.9907 66.3395 42.0149 66.3483C42.0414 66.3578 42.0683 66.3662 42.0956 66.3734L42.0982 66.3707C42.1053 66.3726 42.1123 66.3743 42.1194 66.376C42.1439 66.3805 42.1686 66.3841 42.1934 66.3866C42.2 66.3889 42.2066 66.3911 42.2133 66.3932C42.2388 66.3951 42.2644 66.396 42.29 66.3959C42.3116 66.3962 42.3332 66.3957 42.3548 66.3945C42.3644 66.3956 42.3741 66.3964 42.3839 66.3972C42.3918 66.3982 42.3997 66.399 42.4077 66.3998C42.4316 66.3972 42.4554 66.3937 42.4791 66.3892C42.487 66.3902 42.4949 66.3911 42.5029 66.3919C42.5286 66.3877 42.5542 66.3824 42.5796 66.376C42.6104 66.3683 42.6409 66.3591 42.6708 66.3483C42.6855 66.3429 42.7 66.3372 42.7144 66.3311C42.7287 66.3261 42.7428 66.3208 42.7567 66.3152C42.7612 66.3108 42.7656 66.3064 42.77 66.302C42.7916 66.2896 42.8128 66.2764 42.8334 66.2623C42.8537 66.252 42.8735 66.241 42.8929 66.2292C42.9033 66.2193 42.9134 66.2092 42.9233 66.1988C42.9422 66.1815 42.9602 66.1634 42.9776 66.1446C42.9811 66.1411 42.9846 66.1376 42.9881 66.134C43.0326 66.0897 43.0725 66.0409 43.1072 65.9886C43.1238 65.9633 43.1393 65.9373 43.1534 65.9106C43.1685 65.8826 43.1822 65.854 43.1944 65.8246C43.2086 65.7888 43.2205 65.7522 43.2301 65.7149C43.2328 65.6858 43.2407 65.6726 43.2447 65.6474C44.2351 61.9199 45.0774 58.5441 45.7002 55.4618L48.4426 55.4618C48.6277 55.4624 48.8088 55.4081 48.963 55.3057C49.1172 55.2033 49.2375 55.0574 49.3087 54.8866C49.4224 54.6142 49.5137 54.314 49.6247 54.0364C51.3847 53.6701 52.5761 54.1051 53.7265 55.7262C54.9695 57.4796 55.9784 60.7364 56.5906 65.5774C56.6169 65.7825 56.7104 65.9731 56.8566 66.1194C57.0028 66.2657 57.1933 66.3594 57.3984 66.3859C57.6035 66.4123 57.8116 66.37 57.9901 66.2656C58.1686 66.1612 58.3075 66.0005 58.385 65.8088C60.9105 59.5173 61.618 53.2403 60.7175 48.1297C59.8567 43.2517 57.4475 39.3774 53.6538 37.8396C54.3361 31.4 53.9606 24.6589 52.0115 18.1744C51.9427 17.9205 51.8925 17.7592 51.8171 17.4854C51.6637 16.9142 51.5051 16.3932 51.3398 15.9265C51.3284 15.8709 51.312 15.8164 51.2908 15.7638C51.2908 15.7638 51.2856 15.7585 51.2869 15.7546C51.271 15.7175 51.2604 15.662 51.2472 15.6276C51.2184 15.5572 51.1811 15.4906 51.1361 15.4293C49.2372 10.8921 46.4641 6.77298 42.9749 3.30646C42.8879 3.21941 42.7845 3.15041 42.6707 3.10341C42.5569 3.05642 42.435 3.03235 42.3119 3.0326C42.1888 3.03284 42.067 3.0574 41.9534 3.10485C41.8398 3.1523 41.7367 3.22171 41.65 3.3091L41.6473 3.31175C41.642 3.31697 41.6367 3.32226 41.6315 3.32762ZM42.3164 5.438C44.9937 8.26149 47.1885 11.5061 48.8129 15.0418L35.902 15.0445C37.4927 11.5088 39.6604 8.26237 42.3164 5.438ZM35.0187 17.0332L49.7332 17.0491C49.7874 17.2197 49.8442 17.4167 49.9011 17.6031L49.9011 17.6084C49.9097 17.6624 49.9229 17.7155 49.9408 17.7671C50.0492 18.103 50.1365 18.4441 50.2383 18.7813C50.3322 19.1291 50.4327 19.5205 50.5186 19.7809C50.5316 19.8194 50.5471 19.8569 50.5649 19.8933C53.667 31.4634 51.673 43.9459 47.7696 53.5934L46.0413 53.5921C46.3719 51.7065 46.6364 49.9029 46.7197 48.2751C46.9683 43.5545 45.9977 39.7675 42.9723 37.3688C42.9189 37.3251 42.8608 37.2874 42.7991 37.2564L42.7554 37.2392C42.5595 37.1439 42.3364 37.1201 42.1247 37.1718L42.0427 37.1929C41.9122 37.2243 41.79 37.2834 41.6844 37.3662L41.6711 37.3529C38.6444 39.7529 37.6725 43.5439 37.9185 48.2645C38.0031 49.8962 38.2649 51.7025 38.5968 53.5921L36.7694 53.5921C32.8752 43.9591 30.983 31.6023 34.0891 20.0494C34.1078 20.01 34.1237 19.9693 34.1367 19.9277C34.3787 19.1912 34.7436 17.8927 35.0187 17.0332ZM28.6835 41.7721C29.4121 41.0567 30.2848 40.5754 31.1642 40.1165C31.2435 40.6269 31.344 41.1479 31.4366 41.6636L31.459 41.7787C31.6852 43.0362 31.9443 44.3082 32.2551 45.5922C32.5076 46.6646 32.7985 47.7039 33.1027 48.7406L33.2666 49.2906C33.5749 50.3051 33.91 51.3113 34.2716 52.3081C33.5589 52.2724 32.8144 52.0992 32.1665 52.3319C31.0478 52.7312 30.0905 53.5352 29.3156 54.6512C28.2617 56.1679 27.5543 58.5123 26.9672 61.2653C25.6753 56.6281 25.1081 52.1177 25.7547 48.4563C26.1672 46.1132 26.9341 44.1191 28.0065 42.5734C28.2115 42.2759 28.4389 42.0087 28.6835 41.7721ZM42.3164 39.585C44.2152 41.5182 45.0483 44.1945 44.8407 48.1654C44.6516 51.7316 43.6228 56.3517 42.3151 61.5338C41.0021 56.3517 39.9693 51.7303 39.7829 48.1667C39.5766 44.1919 40.415 41.5182 42.3164 39.585ZM53.4554 40.1033C56.1569 41.5089 58.143 44.3016 58.8755 48.4536C59.5235 52.1217 58.9522 56.6413 57.6537 61.2852C57.0561 58.5189 56.3301 56.1639 55.2511 54.6433C54.0082 52.8873 52.1979 52.283 50.2608 52.3319C50.6363 51.3016 50.9842 50.2615 51.3041 49.2126L51.3503 49.0579C51.6346 48.1151 51.9295 47.1829 52.1741 46.2084C52.704 44.1963 53.1316 42.1586 53.4554 40.1033ZM39.1786 60.8065L39.1813 71.1231L40.4348 71.1257L40.4335 65.6554C40.0019 64.0422 39.5827 62.4267 39.1786 60.8065ZM45.4436 60.8991C45.0602 62.4514 44.6357 64.0713 44.1914 65.7506L44.1914 72.3779L45.4437 72.3766L45.4436 60.8991ZM41.687 67.2342L41.6857 74.8837L42.9392 74.881L42.9379 67.2315C42.922 67.2474 42.8916 67.2514 42.8691 67.2606C42.8599 67.2612 42.8506 67.2617 42.8414 67.262L42.7396 67.2844L42.7607 67.2897C42.6725 67.3107 42.5827 67.3244 42.4923 67.3307C42.4822 67.3313 42.472 67.3318 42.4619 67.332C42.4416 67.3336 42.4213 67.3345 42.401 67.3347C42.3984 67.3373 42.3958 67.34 42.3931 67.3426L42.3905 67.3453C42.3838 67.3431 42.3772 67.3409 42.3706 67.3387C42.3482 67.3347 42.3376 67.3453 42.3151 67.3413C42.3072 67.3405 42.2992 67.3396 42.2913 67.3387C42.2675 67.336 42.2503 67.3426 42.2265 67.34C42.1854 67.3383 42.1444 67.3352 42.1035 67.3307C42.0973 67.3281 42.0912 67.3255 42.085 67.3228C42.0308 67.3162 41.9819 67.3016 41.929 67.291C41.8586 67.283 41.7894 67.2671 41.7227 67.2434C41.7055 67.2342 41.6976 67.2368 41.687 67.2342ZM39.1813 72.3792L39.1786 73.6301L40.4335 73.6315L40.4308 72.3779L39.1813 72.3792ZM41.6844 76.1359L41.6857 77.3881L42.9366 77.3881L42.9379 76.1359L41.6844 76.1359ZM44.1888 73.6315L44.1914 74.8824L45.441 74.8837L45.4436 73.6301L44.1888 73.6315Z" fill="#383838"/>
<path d="M48 26.5C48 29.5376 45.5376 32 42.5 32C39.4624 32 37 29.5376 37 26.5C37 23.4624 39.4624 21 42.5 21C45.5376 21 48 23.4624 48 26.5ZM38.4915 26.5C38.4915 28.7138 40.2862 30.5085 42.5 30.5085C44.7138 30.5085 46.5085 28.7138 46.5085 26.5C46.5085 24.2862 44.7138 22.4915 42.5 22.4915C40.2862 22.4915 38.4915 24.2862 38.4915 26.5Z" fill="url(#paint0_linear_783_3112)"/>
</g>
<defs>
<linearGradient id="paint0_linear_783_3112" x1="46.4745" y1="22.3248" x2="38.646" y2="32" gradientUnits="userSpaceOnUse">
<stop stop-color="#C6FF00"/>
<stop offset="1" stop-color="#AFEC00"/>
</linearGradient>
<clipPath id="clip0_783_3112">
<rect width="59.8403" height="59.8403" fill="white" transform="translate(0 42.3145) rotate(-45)"/>
</clipPath>
</defs>
</svg>
