<svg width="36" height="36" viewBox="0 0 36 36" fill="none" xmlns="http://www.w3.org/2000/svg">
<g clip-path="url(#clip0_46_417)">
<path d="M33.855 28.875H30.0825C28.743 28.875 28.053 28.1175 26.9115 26.862C26.451 26.358 25.887 25.737 25.1355 24.9945C23.6295 23.562 22.5075 22.8 21.903 22.8C21.816 22.8 21.7545 22.803 21.7125 22.806C21.6405 23.1255 21.648 24.003 21.6585 25.002C21.663 25.4805 21.6675 26.034 21.6675 26.676C21.6675 28.5 20.289 28.875 18.2205 28.875C13.782 28.875 9.252 26.2065 6.1005 21.7365C1.5375 15.42 0 10.299 0 8.934C0 7.785 0.744 7.1265 2.043 7.1265H5.817C7.3935 7.1265 7.887 8.13 8.226 9.069C10.071 14.3925 12.7785 18.039 13.671 18.4935C13.689 18.3735 13.7055 18.177 13.7055 17.8605V12.3675C13.635 11.088 13.206 10.563 12.828 10.098C12.537 9.7425 12.2085 9.3405 12.2085 8.73C12.2085 7.9575 12.864 7.125 13.92 7.125H19.851C20.679 7.125 21.6645 7.494 21.6645 9.2475V16.632C21.6645 16.7535 21.6765 16.8435 21.693 16.908C21.8835 16.8225 22.1805 16.587 22.752 16.023C25.323 13.1835 27.204 8.6895 27.222 8.6445C27.6465 7.6485 28.452 7.125 29.556 7.125H33.3285C34.107 7.125 34.671 7.353 35.004 7.8015C35.2245 8.097 35.436 8.625 35.187 9.462C35.1855 9.4665 35.184 9.471 35.1825 9.477C34.6485 11.67 30.7935 17.2005 30.012 18.2265L30.015 18.228C29.9475 18.3345 29.7705 18.6165 29.769 18.6915C29.769 18.6915 29.778 18.7815 29.97 19.0245C29.973 19.029 29.9775 19.035 29.982 19.0395C30.063 19.137 30.2955 19.368 30.618 19.6935C34.293 23.388 36.6 26.187 35.916 27.831C35.715 28.308 35.1975 28.875 33.855 28.875ZM21.9045 21.3C22.659 21.3 23.7555 21.612 26.1825 23.9175C26.967 24.693 27.549 25.332 28.023 25.8525C29.121 27.0585 29.4345 27.375 30.0855 27.375H33.858C34.3185 27.375 34.5045 27.2835 34.533 27.2505C34.6395 27.0135 34.6065 25.8315 29.5545 20.751C29.16 20.3535 28.8855 20.067 28.7895 19.95C27.954 18.8865 28.275 18.18 28.7445 17.4315C28.7805 17.3715 28.827 17.319 28.878 17.2725C29.4735 16.434 33.345 10.8735 33.7335 9.0885C33.741 9.054 33.7515 9.0195 33.7635 8.9865C33.816 8.793 33.7995 8.7045 33.7965 8.688H33.795C33.7815 8.688 33.6615 8.625 33.3285 8.625H29.556C28.9785 8.625 28.7595 8.865 28.605 9.225C28.527 9.4125 26.6055 13.9995 23.8335 17.0595C22.8525 18.0315 22.296 18.4515 21.516 18.4515C20.844 18.4515 20.1645 17.826 20.1645 16.632V9.2475C20.1645 8.778 20.0835 8.6595 20.0775 8.652C20.0745 8.652 20.0145 8.625 19.851 8.625H13.9185C13.755 8.625 13.71 8.7105 13.707 8.733C13.707 8.805 13.8435 8.973 13.989 9.15C14.433 9.6945 15.105 10.518 15.2055 12.3255L15.207 17.859C15.207 18.5655 15.207 20.034 13.7595 20.034C11.6235 20.034 8.295 13.8465 6.8115 9.57C6.486 8.67 6.3135 8.6265 5.817 8.6265H2.043C1.5 8.6265 1.5 8.7105 1.5 8.934C1.5 9.5355 2.574 14.2935 7.3215 20.865C10.197 24.945 14.271 27.375 18.222 27.375C20.169 27.375 20.169 27.0825 20.169 26.676C20.169 26.04 20.1645 25.4895 20.16 25.0155C20.1405 22.9815 20.133 22.2195 20.6415 21.7065C20.997 21.3495 21.459 21.3 21.9045 21.3Z" fill="white"/>
</g>
<defs>
<clipPath id="clip0_46_417">
<rect width="36" height="36" fill="white"/>
</clipPath>
</defs>
</svg>
