<svg width="19" height="19" viewBox="0 0 19 19" fill="none" xmlns="http://www.w3.org/2000/svg">
<path d="M16.2207 18.22C16.0862 18.2201 15.9553 18.1796 15.8476 18.1044C15.7398 18.0292 15.661 17.9234 15.623 17.8029C15.5849 17.6824 15.5897 17.5536 15.6366 17.4359C15.6834 17.3181 15.7699 17.2177 15.8829 17.1496C16.4695 16.7886 16.9683 16.3166 17.347 15.7641C17.7052 15.2558 17.828 14.8445 17.7131 14.5405C17.4794 13.9226 16.2216 13.4764 15.1521 13.1565C14.6799 13.0137 14.1746 12.9958 13.6922 13.1048C13.2098 13.2138 12.7691 13.4455 12.419 13.7741L12.0139 14.1529C11.9414 14.2208 11.852 14.2708 11.7537 14.2986C11.4757 14.3762 9.94975 14.6336 7.12447 11.9939C7.06656 11.9399 7.02061 11.8758 6.98923 11.8052C6.95785 11.7346 6.94166 11.659 6.94159 11.5825C6.94151 11.5061 6.95755 11.4304 6.98878 11.3598C7.02002 11.2891 7.06584 11.2249 7.12364 11.1708C7.18143 11.1168 7.25007 11.0738 7.32562 11.0445C7.40118 11.0152 7.48217 11.0001 7.56398 11C7.6458 10.9999 7.72682 11.0149 7.80243 11.0441C7.87805 11.0733 7.94677 11.1161 8.00467 11.1701C9.85804 12.9018 10.9428 13.1453 11.2997 13.1736L11.5388 12.9503C12.0505 12.4706 12.6943 12.1324 13.3988 11.973C14.1034 11.8136 14.8415 11.8392 15.5314 12.047C16.9279 12.4649 18.4534 13.0061 18.8867 14.1513C19.1386 14.8162 18.9697 15.5733 18.3887 16.3998C17.9148 17.0895 17.2911 17.6786 16.5581 18.1289C16.4574 18.1889 16.3402 18.2205 16.2207 18.22ZM13.2299 19C10.3805 19 7.10911 17.4609 4.19004 14.7336C4.13059 14.68 4.08316 14.6158 4.05054 14.5448C4.01791 14.4739 4.00074 14.3976 4.00002 14.3204C3.99931 14.2432 4.01506 14.1666 4.04635 14.0951C4.07765 14.0237 4.12388 13.9587 4.18232 13.9041C4.24077 13.8495 4.31027 13.8064 4.38678 13.7771C4.46328 13.7479 4.54525 13.7332 4.6279 13.7338C4.71056 13.7345 4.79224 13.7505 4.86819 13.781C4.94413 13.8115 5.01282 13.8558 5.07024 13.9113C7.82498 16.4851 10.9922 17.9478 13.532 17.83C13.6139 17.8251 13.696 17.8355 13.7735 17.8607C13.851 17.886 13.9223 17.9254 13.9832 17.9768C14.044 18.0282 14.0933 18.0905 14.128 18.1599C14.1627 18.2294 14.1821 18.3047 14.1852 18.3813C14.1935 18.5353 14.1361 18.6861 14.0254 18.8005C13.9147 18.915 13.7599 18.9836 13.5951 18.9915C13.4743 18.9969 13.3523 19 13.2299 19Z" fill="#4A4A4A"/>
<path d="M4.68189 14.9992C4.60545 14.9992 4.52974 14.9831 4.45914 14.9518C4.38853 14.9204 4.32442 14.8744 4.27048 14.8165C1.33315 11.6747 -0.251172 8.0267 0.0325477 5.05843C0.113157 4.15616 0.38671 3.28581 0.832045 2.51473C1.27738 1.74364 1.88256 1.09249 2.60077 0.611627C3.43019 0.0303458 4.1882 -0.138641 4.85189 0.113386C5.99841 0.546856 6.54062 2.07313 6.95863 3.47029C7.16697 4.16058 7.19276 4.89906 7.03316 5.60406C6.87356 6.30906 6.53478 6.95309 6.0543 7.46493L5.82492 7.71073C5.85287 8.03168 6.07914 9.12242 7.83657 11.0008C7.94262 11.1182 8.0013 11.2756 7.99998 11.4389C7.99865 11.6022 7.93742 11.7584 7.82948 11.8738C7.72154 11.9893 7.57552 12.0548 7.42287 12.0562C7.27022 12.0576 7.12316 11.9949 7.01336 11.8814C4.37101 9.05515 4.62795 7.52763 4.70596 7.25027C4.73355 7.15184 4.78372 7.06234 4.85189 6.98994L5.23109 6.58429C5.55985 6.2339 5.7916 5.79306 5.90072 5.31053C6.00984 4.828 5.99207 4.32259 5.84937 3.85019C5.52917 2.77981 5.08244 1.52133 4.46416 1.28757C4.15948 1.17256 3.74729 1.29546 3.23885 1.65337C2.66402 2.03128 2.1795 2.54737 1.82376 3.16066C1.46802 3.77395 1.25086 4.46753 1.18955 5.18631C0.94076 7.78547 2.39972 11.0568 5.09214 13.9367C5.17362 14.0238 5.22911 14.1348 5.25159 14.2556C5.27408 14.3765 5.26255 14.5017 5.21846 14.6156C5.17438 14.7294 5.09971 14.8267 5.00393 14.8951C4.90814 14.9636 4.79553 15.0001 4.68034 15L4.68189 14.9992Z" fill="#4A4A4A"/>
</svg>
