<svg width="29" height="29" viewBox="0 0 29 29" fill="none" xmlns="http://www.w3.org/2000/svg">
<path d="M24.0373 3.96799C21.4647 1.40968 18.0404 0 14.4003 0C10.7601 0 7.33583 1.40968 4.75739 3.96799C2.18478 6.52631 0.767226 9.93159 0.767226 13.5515C0.767226 16.3651 1.61893 19.0452 3.23483 21.3309L0.0555301 28.1762C-0.0494741 28.3967 -0.00280557 28.6577 0.172202 28.8318C0.283039 28.942 0.434712 29 0.586385 29C0.668055 29 0.749725 28.9826 0.831395 28.9478L8.13503 25.5947C10.0601 26.5867 12.2185 27.1088 14.4061 27.1088C18.0463 27.1088 21.4706 25.6991 24.0432 23.1408C26.6158 20.5825 28.0333 17.1772 28.0333 13.5573C28.0333 9.93739 26.6158 6.53211 24.0373 3.96799ZM14.4003 25.9544C12.3119 25.9544 10.2468 25.4323 8.43254 24.4403C8.2692 24.3533 8.07669 24.3475 7.90752 24.4229L1.78227 27.2364L4.44238 21.5165C4.52988 21.3251 4.50654 21.0988 4.38404 20.9306C2.78564 18.7842 1.93977 16.2374 1.93977 13.5631C1.93394 6.72354 7.5225 1.16023 14.4003 1.16023C21.2722 1.16023 26.8666 6.72354 26.8666 13.5573C26.8666 20.3911 21.2722 25.9544 14.4003 25.9544Z" fill="white"/>
<path d="M19.6661 15.371C19.5737 15.3545 19.4813 15.3381 19.3831 15.3272C18.9152 15.2724 18.3838 15.2122 17.8236 15.4421C17.4828 15.579 17.1131 15.8418 16.7896 16.1648C16.2005 15.913 15.6864 15.6337 15.2532 15.3436C14.7507 15.0041 14.3521 14.6428 14.0633 14.265C14.0518 14.2486 14.0345 14.2322 14.0229 14.2157C13.3991 13.5697 12.9312 12.5787 12.6251 11.2702C13.0236 11.0403 13.3702 10.7556 13.5839 10.4654C13.9305 9.99457 13.9825 9.49088 14.0229 9.04194C14.0287 8.95434 14.0345 8.86127 14.0345 8.77367C14.0345 7.66226 13.5781 6.69319 12.8215 6.1895C12.2381 5.80078 11.4699 5.80078 10.9154 5.80078H10.8981C10.4417 5.80078 9.99699 5.89385 9.58111 6.07453C9.07859 6.29352 8.64539 6.63297 8.33348 7.06001C8.01579 7.48706 7.81941 7.98528 7.7732 8.50539C7.6519 9.7482 7.80208 10.9636 8.21218 12.1243C8.64539 13.3452 9.38472 15.152 10.7768 16.7068C11.7876 17.9496 13.168 19.0556 14.9875 20.0794C16.1023 20.7035 17.3268 21.0977 18.6264 21.2455C18.7535 21.262 18.8806 21.2674 19.0077 21.2674C19.4293 21.2674 19.851 21.1853 20.238 21.0266C20.7463 20.824 21.1852 20.49 21.5145 20.0739C21.7859 19.7345 21.9823 19.3293 22.0747 18.9078L22.0805 18.8913C22.196 18.3767 22.3578 17.6649 22.0747 17.0408C21.7109 16.225 20.8098 15.6009 19.6661 15.371ZM20.9484 18.6559L20.9426 18.6723C20.8849 18.9351 20.7636 19.1925 20.5903 19.406C20.3824 19.6688 20.0993 19.8768 19.7816 20.0082C19.464 20.1396 19.1116 20.1834 18.7651 20.1451C17.6214 20.0137 16.547 19.6688 15.5767 19.1268C13.8785 18.1741 12.6078 17.1558 11.6836 16.017C11.6778 16.0115 11.672 16.0006 11.6663 15.9951C10.3955 14.5826 9.71396 12.9018 9.30963 11.763C8.94574 10.7446 8.81867 9.6825 8.92264 8.59299C8.95152 8.2645 9.07859 7.94695 9.27498 7.67868C9.47714 7.41041 9.74861 7.19689 10.0663 7.05454C10.332 6.93957 10.6092 6.87934 10.8981 6.87934H10.9212C10.9269 6.87934 10.9327 6.87934 10.9385 6.87934C11.3601 6.87934 11.88 6.88482 12.1572 7.07096C12.6944 7.42683 12.8792 8.20427 12.8792 8.76272C12.8792 8.81747 12.8792 8.87769 12.8735 8.93244C12.833 9.34306 12.8042 9.60038 12.6367 9.81938C12.4691 10.0438 12.111 10.3012 11.724 10.4709C11.4814 10.5749 11.3486 10.8213 11.4006 11.0677C11.7356 12.7594 12.319 14.0515 13.1392 14.9165C13.4973 15.3874 13.9825 15.8254 14.5774 16.225C15.1723 16.6247 15.8944 16.997 16.7261 17.3255C16.9687 17.424 17.2517 17.3474 17.4077 17.1503C17.6618 16.8273 17.9968 16.5535 18.2683 16.444C18.5282 16.34 18.8055 16.3619 19.2329 16.4112C19.2965 16.4167 19.3542 16.4276 19.412 16.4386C19.9838 16.5535 20.7463 16.893 21.0062 17.4624C21.1506 17.769 21.0408 18.2617 20.9484 18.6559Z" fill="white"/>
</svg>
