<svg width="19" height="13" viewBox="0 0 19 13" fill="none" xmlns="http://www.w3.org/2000/svg">
<path d="M17.4167 13H1.58333C0.710125 13 0 12.2712 0 11.375V1.625C0 0.728812 0.710125 0 1.58333 0H17.4167C18.2899 0 19 0.728812 19 1.625V11.375C19 12.2712 18.2899 13 17.4167 13ZM1.58333 0.8125C1.14673 0.8125 0.791667 1.17691 0.791667 1.625V11.375C0.791667 11.8231 1.14673 12.1875 1.58333 12.1875H17.4167C17.8533 12.1875 18.2083 11.8231 18.2083 11.375V1.625C18.2083 1.17691 17.8533 0.8125 17.4167 0.8125H1.58333Z" fill="#4A4A4A"/>
<path d="M9.5 8.12986L2.57521 3.71564C2.48727 3.65963 2.42552 3.5715 2.40353 3.47064C2.38155 3.36978 2.40113 3.26445 2.45798 3.17781C2.51482 3.09117 2.60428 3.03033 2.70666 3.00867C2.80903 2.98701 2.91595 3.00631 3.00389 3.06231L9.5 7.20354L15.9961 3.06231C16.084 3.00631 16.191 2.98701 16.2933 3.00867C16.3957 3.03033 16.4852 3.09117 16.542 3.17781C16.5989 3.26445 16.6185 3.36978 16.5965 3.47064C16.5745 3.5715 16.5127 3.65963 16.4248 3.71564L9.5 8.12986ZM2.39522 10C2.31046 10.0001 2.22792 9.97332 2.15981 9.92363C2.09169 9.87393 2.04163 9.80396 2.01701 9.72405C1.9924 9.64415 1.99454 9.55856 2.02313 9.47995C2.05172 9.40134 2.10523 9.33389 2.17574 9.28756L5.72833 6.95426C5.77146 6.92592 5.81984 6.90622 5.87069 6.8963C5.92155 6.88637 5.97389 6.88641 6.02473 6.89641C6.07557 6.90641 6.12391 6.92618 6.16699 6.95459C6.21008 6.983 6.24706 7.01949 6.27583 7.06198C6.3046 7.10447 6.32459 7.15213 6.33467 7.20223C6.34474 7.25233 6.3447 7.3039 6.33455 7.35398C6.32439 7.40407 6.30433 7.45169 6.27549 7.49414C6.24665 7.53659 6.20962 7.57302 6.16649 7.60136L2.6139 9.93467C2.5491 9.97713 2.47304 9.99985 2.39522 10ZM16.6048 10C16.5298 10 16.4536 9.97861 16.3861 9.93467L12.8335 7.60136C12.7904 7.57302 12.7533 7.53659 12.7245 7.49414C12.6957 7.45169 12.6756 7.40407 12.6655 7.35398C12.6553 7.3039 12.6553 7.25233 12.6653 7.20223C12.6754 7.15213 12.6954 7.10447 12.7242 7.06198C12.7529 7.01949 12.7899 6.983 12.833 6.95459C12.8761 6.92618 12.9244 6.90641 12.9753 6.89641C13.0261 6.88641 13.0785 6.88637 13.1293 6.8963C13.1802 6.90622 13.2285 6.92592 13.2717 6.95426L16.8243 9.28756C16.8948 9.33389 16.9483 9.40134 16.9769 9.47995C17.0055 9.55856 17.0076 9.64415 16.983 9.72405C16.9584 9.80396 16.9083 9.87393 16.8402 9.92363C16.7721 9.97332 16.6895 10.0001 16.6048 10Z" fill="#4A4A4A"/>
</svg>
