<svg width="99" height="61" viewBox="0 0 99 61" fill="none" xmlns="http://www.w3.org/2000/svg">
<rect x="0.5" y="0.5" width="98" height="60" rx="2.5" stroke="black"/>
<line x1="4.37114e-08" y1="12.5" x2="99" y2="12.5" stroke="black"/>
<circle cx="81.5" cy="6.5" r="1.5" fill="#1B1B1B"/>
<circle cx="86.5" cy="6.5" r="1.5" fill="#1B1B1B"/>
<circle cx="91.5" cy="6.5" r="1.5" fill="#1B1B1B"/>
<rect x="11.5" y="19.5" width="21" height="21" rx="1.5" fill="#C6FF00" stroke="black"/>
<rect x="55.5" y="19.5" width="27" height="30" rx="1.5" stroke="black"/>
<path d="M32.25 54H29.75C28.7163 54 27.875 53.1588 27.875 52.125V49.7975C27.0749 49.5662 26.3032 49.2461 25.5744 48.8431L23.9281 50.49C23.2194 51.1987 21.985 51.1975 21.2763 50.49L19.5081 48.7225C19.1537 48.3687 18.9588 47.8975 18.9588 47.3969C18.9588 46.8963 19.1537 46.425 19.5081 46.0712L21.155 44.4238C20.752 43.6955 20.4323 42.9242 20.2019 42.1244H17.875C16.8412 42.1244 16 41.2831 16 40.2494V37.7494C16 37.2481 16.195 36.7775 16.5488 36.4237C16.7226 36.2491 16.9293 36.1106 17.1569 36.0163C17.3845 35.9221 17.6286 35.8738 17.875 35.8744H20.2025C20.4338 35.0756 20.7525 34.305 21.1562 33.575L19.51 31.9281C19.1588 31.5763 18.9615 31.0996 18.9615 30.6025C18.9615 30.1054 19.1588 29.6287 19.51 29.2769L21.2775 27.5087C21.9856 26.8012 23.2206 26.8 23.9294 27.5087L25.5763 29.1556C26.3045 28.7532 27.0756 28.4335 27.875 28.2025V25.875C27.875 24.8412 28.7163 24 29.75 24H32.25C33.2838 24 34.125 24.8412 34.125 25.875V28.2025C34.925 28.4338 35.695 28.7531 36.4238 29.1556L38.0706 27.5087C38.7794 26.8012 40.0138 26.8 40.7225 27.5087L42.4906 29.2763C42.845 29.63 43.04 30.1012 43.04 30.6019C43.04 31.1025 42.845 31.5738 42.4906 31.9275L40.8444 33.5744C41.2475 34.3029 41.5675 35.0744 41.7981 35.8744H44.125C45.1588 35.8744 46 36.7156 46 37.7494V40.2494C46 40.7506 45.805 41.2213 45.4513 41.575C45.0975 41.9288 44.6262 42.1244 44.125 42.1244H41.7975C41.5664 42.9242 41.2465 43.6957 40.8438 44.4244L42.49 46.0712C42.8412 46.423 43.0385 46.8998 43.0385 47.3969C43.0385 47.894 42.8412 48.3707 42.49 48.7225L40.7225 50.4906C40.0138 51.1987 38.7794 51.1987 38.0706 50.4906L36.425 48.8438C35.6965 49.2464 34.9253 49.5663 34.1256 49.7975V52.125C34.1248 52.6221 33.9269 53.0987 33.5753 53.4501C33.2237 53.8016 32.7471 53.9993 32.25 54ZM25.4731 47.4363C25.585 47.4363 25.6981 47.4663 25.7987 47.5275C26.6807 48.0675 27.6417 48.4662 28.6469 48.7094C28.7832 48.7423 28.9044 48.8201 28.9911 48.9303C29.0779 49.0405 29.125 49.1767 29.125 49.3169V52.125C29.125 52.47 29.4056 52.75 29.75 52.75H32.25C32.5944 52.75 32.875 52.47 32.875 52.125V49.3169C32.875 49.1767 32.9221 49.0405 33.0089 48.9303C33.0956 48.8201 33.2168 48.7423 33.3531 48.7094C34.358 48.4664 35.3188 48.0678 36.2006 47.5281C36.4481 47.3775 36.7644 47.4156 36.9688 47.6194L38.955 49.6063C39.1894 49.84 39.6044 49.8413 39.8394 49.6063L41.6069 47.8381C41.724 47.7209 41.7899 47.562 41.7899 47.3962C41.7899 47.2305 41.724 47.0716 41.6069 46.9544L39.62 44.9675C39.5208 44.8683 39.4578 44.7386 39.4413 44.5993C39.4247 44.4599 39.4555 44.3191 39.5287 44.1994C40.0684 43.3176 40.4667 42.3568 40.7094 41.3519C40.7422 41.2155 40.82 41.0941 40.9302 41.0072C41.0404 40.9204 41.1766 40.8732 41.3169 40.8731H44.125C44.2071 40.8735 44.2884 40.8576 44.3643 40.8263C44.4402 40.7951 44.5091 40.7492 44.5672 40.6912C44.6253 40.6333 44.6714 40.5644 44.7027 40.4886C44.7341 40.4127 44.7502 40.3314 44.75 40.2494V37.7494C44.75 37.4044 44.4694 37.1244 44.125 37.1244H41.3169C41.1765 37.1245 41.0403 37.0773 40.9301 36.9904C40.8198 36.9035 40.7421 36.7821 40.7094 36.6456C40.4668 35.6407 40.0685 34.6799 39.5287 33.7981C39.4555 33.6784 39.4247 33.5376 39.4413 33.3982C39.4578 33.2589 39.5208 33.1292 39.62 33.03L41.6069 31.0431C41.7231 30.9262 41.79 30.7656 41.79 30.6013C41.79 30.4369 41.7231 30.2756 41.6069 30.1594L39.8387 28.3919C39.7194 28.2785 39.5612 28.2153 39.3966 28.2153C39.232 28.2153 39.0737 28.2785 38.9544 28.3919L36.9675 30.3788C36.8686 30.4785 36.7388 30.5418 36.5993 30.5583C36.4599 30.5749 36.3189 30.5438 36.1994 30.47C35.3179 29.9305 34.3576 29.5322 33.3531 29.2894C33.2169 29.2568 33.0956 29.1792 33.0089 29.0692C32.9221 28.9592 32.8749 28.8232 32.875 28.6831V25.875C32.875 25.53 32.5944 25.25 32.25 25.25H29.75C29.4056 25.25 29.125 25.53 29.125 25.875V28.6831C29.125 28.8233 29.0779 28.9595 28.9911 29.0697C28.9044 29.1799 28.7832 29.2577 28.6469 29.2906C27.642 29.5334 26.6812 29.9317 25.7994 30.4713C25.6798 30.5445 25.539 30.5754 25.3998 30.5588C25.2605 30.5423 25.1309 30.4793 25.0319 30.38L23.045 28.3931C22.9257 28.2797 22.7674 28.2165 22.6028 28.2165C22.4382 28.2165 22.2799 28.2797 22.1606 28.3931L20.3938 30.1606C20.2766 30.2778 20.2108 30.4368 20.2108 30.6025C20.2108 30.7682 20.2766 30.9272 20.3938 31.0444L22.3806 33.0312C22.4798 33.1305 22.5428 33.2602 22.5594 33.3995C22.5759 33.5388 22.5451 33.6797 22.4719 33.7994C21.9323 34.681 21.5339 35.6415 21.2912 36.6462C21.2584 36.7827 21.1806 36.904 21.0705 36.9909C20.9603 37.0777 20.8241 37.125 20.6838 37.125H17.875C17.7929 37.1247 17.7115 37.1406 17.6356 37.1718C17.5596 37.2031 17.4906 37.2491 17.4325 37.3071C17.3744 37.3651 17.3284 37.4341 17.2971 37.51C17.2658 37.5859 17.2498 37.6673 17.25 37.7494V40.2494C17.25 40.5944 17.5306 40.8744 17.875 40.8744H20.6831C20.9719 40.8744 21.2231 41.0719 21.2906 41.3531C21.5334 42.3578 21.9317 43.3184 22.4713 44.2C22.5445 44.3197 22.5753 44.4605 22.5587 44.5999C22.5422 44.7392 22.4792 44.8689 22.38 44.9681L20.3931 46.9556C20.2769 47.0725 20.21 47.2331 20.21 47.3975C20.21 47.5619 20.2769 47.7231 20.3931 47.8394L22.1613 49.6069C22.2806 49.7203 22.4389 49.7835 22.6034 49.7835C22.768 49.7835 22.9263 49.7203 23.0456 49.6069L25.0319 47.62C25.0896 47.5616 25.1583 47.5153 25.234 47.4838C25.3098 47.4522 25.3911 47.4361 25.4731 47.4363Z" fill="black"/>
<path d="M31 45.25C27.5538 45.25 24.75 42.4462 24.75 39C24.75 35.5538 27.5538 32.75 31 32.75C34.4462 32.75 37.25 35.5538 37.25 39C37.25 42.4462 34.4469 45.25 31 45.25ZM31 34C28.2431 34 26 36.2431 26 39C26 41.7569 28.2431 44 31 44C33.7569 44 36 41.7569 36 39C36 36.2431 33.7575 34 31 34Z" fill="black"/>
<path fill-rule="evenodd" clip-rule="evenodd" d="M89.5387 48.5406C89.523 48.5044 89.501 48.4714 89.4739 48.4428L79.5905 38.5598C79.554 38.4905 79.4945 38.4362 79.4223 38.4061L74.5164 37.0319C74.5061 37.027 74.4944 37.0262 74.4831 37.0227L74.4664 37.0177C74.4636 37.0167 74.4604 37.0174 74.4579 37.0163C74.4251 37.0064 74.391 37.001 74.3566 37.0004C74.3228 37 74.2891 37.0049 74.2568 37.0149C74.2493 37.017 74.2426 37.0156 74.2352 37.0181C74.2323 37.0192 74.2306 37.0216 74.2277 37.0227C74.1971 37.035 74.1684 37.0519 74.1427 37.0726C74.1289 37.0826 74.1144 37.0914 74.1027 37.1031C74.091 37.1148 74.0822 37.1293 74.0723 37.1431C74.0515 37.1689 74.0347 37.1975 74.0223 37.2281C74.0209 37.231 74.0188 37.2327 74.0177 37.2356C74.0152 37.2426 74.0166 37.2497 74.0145 37.2572C74.0049 37.2895 74 37.323 74 37.3567C74 37.3921 74.0071 37.425 74.0159 37.4583C74.0174 37.4612 74.0163 37.464 74.0174 37.4665L74.0223 37.4838C74.0262 37.4945 74.0269 37.5061 74.0315 37.5168L75.4057 42.4227C75.4347 42.4992 75.4928 42.5516 75.5594 42.5909L85.2915 52.3234C85.3057 52.3393 85.3224 52.3528 85.3369 52.3684L85.4428 52.4743C85.4481 52.4796 85.4548 52.4814 85.4605 52.4863C85.9719 52.9751 86.6583 53.2832 87.4222 53.2832C88.1781 53.2832 88.903 52.9829 89.4374 52.4485C89.9719 51.914 90.2722 51.1891 90.2722 50.4332C90.2722 49.7033 89.9906 49.0442 89.5387 48.5406ZM88.2003 48.1478L86.9186 49.4295L78.5461 41.0567C78.5475 41.0538 78.551 41.0528 78.5525 41.0499L79.3929 39.3404L88.2003 48.1478ZM74.8868 37.8865L75.8732 38.1624L75.1627 38.8725L74.8868 37.8865ZM75.377 39.6372L76.6371 38.3767L78.8046 38.9841C78.8046 38.9841 77.8888 40.8867 77.8873 40.8874L75.984 41.8047L75.377 39.6372ZM78.0499 41.5518C78.0527 41.5504 78.0538 41.5472 78.0566 41.5454L86.4295 49.9186L85.1477 51.2003L76.3403 42.3929L78.0499 41.5518ZM87.4112 52.5749C86.7801 52.5749 86.217 52.3 85.8214 51.8687L85.8189 51.8711L85.6369 51.6895L88.6894 48.6369L88.8761 48.8239L88.8739 48.826C89.3021 49.2213 89.5748 49.7826 89.5748 50.4113C89.5748 50.6954 89.5189 50.9767 89.4101 51.2392C89.3014 51.5017 89.142 51.7403 88.9411 51.9412C88.7402 52.1421 88.5017 52.3014 88.2392 52.4102C87.9767 52.5189 87.6954 52.5749 87.4112 52.5749Z" fill="black"/>
<line x1="59" y1="24.5" x2="79" y2="24.5" stroke="black"/>
<line x1="59" y1="28.5" x2="79" y2="28.5" stroke="black"/>
<line x1="59" y1="32.5" x2="79" y2="32.5" stroke="black"/>
<line x1="59" y1="36.5" x2="79" y2="36.5" stroke="black"/>
</svg>
