<svg width="99" height="61" viewBox="0 0 99 61" fill="none" xmlns="http://www.w3.org/2000/svg">
<rect x="0.5" y="0.5" width="98" height="60" rx="2.5" stroke="black"/>
<line x1="4.37114e-08" y1="12.5" x2="99" y2="12.5" stroke="black"/>
<circle cx="81.5" cy="6.5" r="1.5" fill="#1B1B1B"/>
<circle cx="86.5" cy="6.5" r="1.5" fill="#1B1B1B"/>
<circle cx="91.5" cy="6.5" r="1.5" fill="#1B1B1B"/>
<rect x="4.5" y="19.5" width="89" height="4" rx="1.5" fill="#C6FF00" stroke="black"/>
<rect x="4.5" y="27.5" width="89" height="4" rx="1.5" stroke="#CCCCCC"/>
<rect x="4.5" y="35.5" width="89" height="4" rx="1.5" stroke="#CCCCCC"/>
<rect x="4.5" y="43.5" width="89" height="4" rx="1.5" stroke="#CCCCCC"/>
<rect x="4.5" y="51.5" width="89" height="4" rx="1.5" stroke="#CCCCCC"/>
<circle cx="23.6667" cy="21.6667" r="6.16667" fill="white" stroke="black"/>
<rect x="27.9453" y="26.3652" width="1.9542" height="1.49891" transform="rotate(-45.7094 27.9453 26.3652)" fill="black"/>
<rect x="29.16" y="27.5392" width="1.90732" height="9.42242" rx="0.5" transform="rotate(-46.3378 29.16 27.5392)" fill="white" stroke="black"/>
<path d="M22.134 22.442C22.134 22.386 22.116 22.337 22.08 22.295C22.046 22.251 22.001 22.214 21.945 22.184C21.889 22.152 21.827 22.122 21.759 22.094C21.693 22.064 21.626 22.031 21.558 21.995C21.49 21.957 21.428 21.916 21.372 21.872C21.316 21.826 21.27 21.767 21.234 21.695C21.2 21.621 21.183 21.538 21.183 21.446C21.183 21.282 21.242 21.145 21.36 21.035C21.48 20.923 21.639 20.867 21.837 20.867C22.101 20.867 22.301 20.942 22.437 21.092L22.239 21.368C22.131 21.264 22.007 21.212 21.867 21.212C21.777 21.212 21.705 21.233 21.651 21.275C21.599 21.317 21.573 21.373 21.573 21.443C21.573 21.511 21.596 21.57 21.642 21.62C21.69 21.67 21.749 21.71 21.819 21.74C21.889 21.768 21.965 21.802 22.047 21.842C22.131 21.882 22.208 21.924 22.278 21.968C22.348 22.01 22.406 22.072 22.452 22.154C22.5 22.234 22.524 22.329 22.524 22.439C22.524 22.613 22.457 22.756 22.323 22.868C22.189 22.978 22.022 23.033 21.822 23.033C21.678 23.033 21.539 23.004 21.405 22.946C21.273 22.886 21.183 22.805 21.135 22.703L21.345 22.451C21.403 22.527 21.476 22.586 21.564 22.628C21.654 22.668 21.742 22.688 21.828 22.688C21.918 22.688 21.991 22.667 22.047 22.625C22.105 22.581 22.134 22.52 22.134 22.442ZM22.9492 23V20.9H24.1642V21.245H23.3182V21.767H24.0742V22.112H23.3182V22.655H24.1942V23H22.9492ZM24.5188 21.95C24.5188 21.642 24.6208 21.385 24.8248 21.179C25.0308 20.971 25.2928 20.867 25.6108 20.867C25.9268 20.867 26.1878 20.967 26.3938 21.167C26.6018 21.367 26.7058 21.628 26.7058 21.95C26.7058 22.264 26.6018 22.523 26.3938 22.727C26.1858 22.931 25.9248 23.033 25.6108 23.033C25.2948 23.033 25.0338 22.933 24.8278 22.733C24.6218 22.533 24.5188 22.272 24.5188 21.95ZM24.9088 21.95C24.9088 22.16 24.9758 22.336 25.1098 22.478C25.2458 22.618 25.4128 22.688 25.6108 22.688C25.8268 22.688 25.9978 22.618 26.1238 22.478C26.2518 22.338 26.3158 22.162 26.3158 21.95C26.3158 21.734 26.2478 21.557 26.1118 21.419C25.9778 21.281 25.8108 21.212 25.6108 21.212C25.4088 21.212 25.2408 21.281 25.1068 21.419C24.9748 21.557 24.9088 21.734 24.9088 21.95Z" fill="black"/>
<path d="M64 48L64.265 47.576L63.9672 47.3899L63.6911 47.6068L64 48ZM68 50.5L67.735 50.924L68.0605 51.1275L68.3412 50.8655L68 50.5ZM75.5 43.5L75.7236 43.0528L75.4128 42.8974L75.1588 43.1345L75.5 43.5ZM80.5 46L80.2764 46.4472L80.5625 46.5903L80.8123 46.3904L80.5 46ZM90.9969 38.0552C91.0274 37.7808 90.8297 37.5336 90.5552 37.5031L86.0827 37.0061C85.8083 36.9756 85.5611 37.1734 85.5306 37.4478C85.5001 37.7223 85.6979 37.9695 85.9723 38L89.9478 38.4417L89.5061 42.4173C89.4756 42.6917 89.6734 42.9389 89.9478 42.9694C90.2223 42.9999 90.4695 42.8021 90.5 42.5277L90.9969 38.0552ZM57.3089 53.8932L64.3089 48.3932L63.6911 47.6068L56.6911 53.1068L57.3089 53.8932ZM63.735 48.424L67.735 50.924L68.265 50.076L64.265 47.576L63.735 48.424ZM68.3412 50.8655L75.8412 43.8655L75.1588 43.1345L67.6588 50.1345L68.3412 50.8655ZM75.2764 43.9472L80.2764 46.4472L80.7236 45.5528L75.7236 43.0528L75.2764 43.9472ZM80.8123 46.3904L90.8123 38.3904L90.1877 37.6096L80.1877 45.6096L80.8123 46.3904Z" fill="#414141"/>
</svg>
