<svg width="87" height="67" viewBox="0 0 87 67" fill="none" xmlns="http://www.w3.org/2000/svg">
<rect x="0.5" y="0.5" width="66" height="54.2297" rx="2.5" stroke="black"/>
<path fill-rule="evenodd" clip-rule="evenodd" d="M27.8304 26.5155L26.912 25.0247C26.135 23.7632 24.4835 23.3686 23.2202 24.1426C22.6191 24.5209 21.8923 24.6445 21.2 24.4863C20.5076 24.328 19.9067 23.9009 19.5296 23.2991C19.2872 22.9166 19.15 22.4769 19.132 22.0245C19.1316 21.2982 18.8372 20.6031 18.3159 20.0974C17.7946 19.5918 17.0909 19.3186 16.365 19.3402L14.6043 19.3919C13.8931 19.4128 13.2195 19.7161 12.7326 20.235C12.2458 20.7538 11.9857 21.4452 12.01 22.1563C12.032 23.6253 10.8702 24.8396 9.40168 24.8826C8.94895 24.8911 8.50197 24.78 8.10596 24.5604C6.79942 23.8619 5.17396 24.3526 4.47229 25.6575L3.57938 27.2272C2.87856 28.5305 3.36325 30.1551 4.66359 30.8613C5.50873 31.3167 6.0467 32.1884 6.07486 33.148C6.10302 34.1076 5.61709 35.0094 4.80012 35.5136C3.5449 36.2897 3.15572 37.936 3.9305 39.1921L4.86215 40.6954C5.2269 41.3103 5.82164 41.7545 6.51478 41.9297C7.20791 42.1049 7.94229 41.9966 8.5554 41.6289C9.15772 41.2533 9.88509 41.1339 10.5759 41.2972C11.2666 41.4605 11.8635 41.893 12.2339 42.4985C12.4764 42.8809 12.6135 43.3206 12.6315 43.7731C12.675 45.2565 13.9129 46.4238 15.3963 46.3803L17.157 46.3286C18.6354 46.2852 19.8008 45.0552 19.7645 43.5766C19.7401 42.8633 20.0019 42.1699 20.4916 41.6506C20.9812 41.1313 21.6581 40.8293 22.3717 40.8118C22.8235 40.8107 23.2687 40.9213 23.6674 41.134C24.9706 41.8348 26.5952 41.3501 27.3014 40.0497L28.1815 38.4804C28.5216 37.8551 28.5984 37.12 28.3949 36.438C28.1914 35.7559 27.7244 35.1831 27.0973 34.8464C26.4702 34.5097 26.0031 33.9368 25.7996 33.2547C25.5961 32.5727 25.673 31.8376 26.0131 31.2123C26.2341 30.7988 26.5613 30.4518 26.9611 30.2069C28.2102 29.4263 28.598 27.7857 27.8307 26.5284L27.8304 26.5155Z" fill="#DAFF5B" stroke="#2D2D2D" stroke-linecap="round" stroke-linejoin="round"/>
<path d="M16.4956 36.2031C18.5405 36.2031 20.1982 34.5454 20.1982 32.5005C20.1982 30.4556 18.5405 28.7979 16.4956 28.7979C14.4507 28.7979 12.793 30.4556 12.793 32.5005C12.793 34.5454 14.4507 36.2031 16.4956 36.2031Z" fill="white" stroke="white" stroke-width="1.5" stroke-linecap="round" stroke-linejoin="round"/>
<line x1="-4.37114e-08" y1="11.2705" x2="67" y2="11.2705" stroke="black"/>
<circle cx="51.155" cy="5.88545" r="1.35811" fill="#1B1B1B"/>
<circle cx="55.6823" cy="5.88545" r="1.35811" fill="#1B1B1B"/>
<circle cx="60.2097" cy="5.88545" r="1.35811" fill="#1B1B1B"/>
<rect x="14.9844" y="14.0811" width="71.4324" height="52.4189" rx="2.5" fill="white" stroke="black"/>
<line x1="14.4844" y1="24.8516" x2="86.9168" y2="24.8516" stroke="black"/>
<circle cx="71.9792" cy="19.4665" r="1.35811" fill="#1B1B1B"/>
<circle cx="76.5065" cy="19.4665" r="1.35811" fill="#1B1B1B"/>
<circle cx="81.03" cy="19.4665" r="1.35811" fill="#1B1B1B"/>
<circle cx="59" cy="36" r="7" fill="#C6FF00"/>
<path d="M55.9602 34.5875C56.2473 34.7505 56.5871 34.7933 56.9056 34.7067C57.224 34.62 57.4953 34.4109 57.6602 34.125C57.7967 33.8842 58.0092 33.6955 58.2645 33.5885C58.5197 33.4815 58.8033 33.4622 59.0706 33.5337C59.338 33.6052 59.5741 33.7634 59.7419 33.9835C59.9097 34.2036 59.9997 34.4732 59.9977 34.75C59.9977 35.0815 59.866 35.3995 59.6316 35.6339C59.3972 35.8683 59.0793 36 58.7477 36C58.4162 36 58.0983 36.1317 57.8638 36.3661C57.6294 36.6005 57.4977 36.9185 57.4977 37.25C57.4977 37.5815 57.6294 37.8995 57.8638 38.1339C58.0983 38.3683 58.4162 38.5 58.7477 38.5C59.4059 38.4996 60.0523 38.3259 60.6221 37.9965C61.1919 37.6671 61.665 37.1936 61.9938 36.6234C62.3226 36.0533 62.4956 35.4067 62.4953 34.7485C62.4951 34.0903 62.3216 33.4438 61.9923 32.874C61.6631 32.3041 61.1896 31.8309 60.6195 31.502C60.0495 31.173 59.4029 30.9999 58.7447 31C58.0866 31.0001 57.44 31.1734 56.8701 31.5026C56.3001 31.8317 55.8268 32.305 55.4977 32.875C55.4151 33.0177 55.3615 33.1753 55.34 33.3387C55.3185 33.5022 55.3296 33.6683 55.3726 33.8275C55.4156 33.9867 55.4896 34.1358 55.5905 34.2662C55.6913 34.3966 55.817 34.5058 55.9602 34.5875ZM61.3352 43.5C61.0071 43.4574 60.6755 43.5467 60.4131 43.7482C60.1506 43.9497 59.9788 44.247 59.9352 44.575C59.6729 46.6939 58.6449 48.6439 57.0448 50.0575C55.4446 51.4711 53.3829 52.2509 51.2477 52.25H44.2602L45.0727 51.4375C45.3055 51.2033 45.4362 50.8865 45.4362 50.5562C45.4362 50.226 45.3055 49.9092 45.0727 49.675C43.8539 48.4514 43.0245 46.8945 42.6888 45.2003C42.3532 43.5062 42.5265 41.7506 43.1867 40.1548C43.847 38.5589 44.9648 37.1941 46.3992 36.2324C47.8337 35.2706 49.5207 34.7548 51.2477 34.75C51.5793 34.75 51.8972 34.6183 52.1316 34.3839C52.366 34.1495 52.4977 33.8315 52.4977 33.5C52.4977 33.1685 52.366 32.8505 52.1316 32.6161C51.8972 32.3817 51.5793 32.25 51.2477 32.25C49.1343 32.2588 47.066 32.8628 45.28 33.9927C43.4939 35.1227 42.0623 36.7329 41.1491 38.6389C40.2359 40.5449 39.878 42.6696 40.1165 44.7696C40.3551 46.8696 41.1803 48.8599 42.4977 50.5125L40.3602 52.6125C40.1868 52.7883 40.0693 53.0115 40.0226 53.254C39.9759 53.4965 40.002 53.7474 40.0977 53.975C40.1915 54.2033 40.3508 54.3987 40.5554 54.5366C40.7601 54.6745 41.001 54.7488 41.2477 54.75H51.2477C53.987 54.7504 56.6324 53.7513 58.6875 51.9401C60.7426 50.1289 62.0663 47.6301 62.4102 44.9125C62.4331 44.7491 62.4234 44.5827 62.3816 44.4231C62.3399 44.2634 62.2669 44.1136 62.167 43.9823C62.067 43.851 61.9421 43.7408 61.7993 43.658C61.6566 43.5752 61.4988 43.5215 61.3352 43.5ZM59.2227 39.8375C58.9952 39.7368 58.7427 39.7063 58.4977 39.75L58.2727 39.825L58.0477 39.9375L57.8602 40.1C57.7478 40.2152 57.6587 40.351 57.5977 40.5C57.5238 40.6559 57.4895 40.8276 57.4977 41C57.4941 41.1667 57.5238 41.3325 57.5852 41.4875C57.6499 41.6375 57.7433 41.7734 57.8602 41.8875C57.977 42.0034 58.1156 42.095 58.2678 42.1572C58.4201 42.2194 58.5832 42.251 58.7477 42.25C59.0793 42.25 59.3972 42.1183 59.6316 41.8839C59.866 41.6495 59.9977 41.3315 59.9977 41C60.002 40.836 59.9677 40.6733 59.8977 40.525C59.7634 40.2246 59.5231 39.9843 59.2227 39.85V39.8375Z" fill="black"/>
</svg>
