<svg width="405" height="405" viewBox="0 0 405 405" fill="none" xmlns="http://www.w3.org/2000/svg">
<path fill-rule="evenodd" clip-rule="evenodd" d="M2.57516 170.294L5.74598 170.43L14.108 170.789L75.1937 173.411C73.757 179.797 72.8047 186.277 72.3396 192.792L67.3537 192.723L22.7752 192.111L0.327884 191.803C0.694474 184.601 1.44437 177.421 2.57516 170.294ZM67.6273 204.44L72.0212 204.011C72.0945 209.05 72.4592 214.09 73.1173 219.103L67.4218 219.909L40.7701 223.683L1.87594 229.19C1.06385 223.156 0.525262 217.095 0.259453 211.028L67.6273 204.44ZM5.17116 247.351C6.38624 252.655 7.81938 257.922 9.47071 263.139L11.3354 262.559L71.5839 243.847L78.1937 241.794C77.0121 238.104 76.0005 234.374 75.1586 230.616L69.7028 231.92L43.5235 238.18L5.17116 247.351ZM22.364 294.413C20.1053 290.027 18.0198 285.579 16.1065 281.078L17.8335 280.35L75.9592 255.826L82.4083 253.105C83.5623 255.807 84.8122 258.48 86.1593 261.119L84.3341 262.071L28.4051 291.26L22.364 294.413ZM36.6818 318.065C40.8532 323.996 45.3848 329.763 50.2785 335.336C123.886 419.161 251.511 427.444 335.336 353.836C419.161 280.228 427.444 152.604 353.836 68.7786C280.229 -15.0466 152.604 -23.3296 68.779 50.2781C67.4945 51.4061 66.2273 52.547 64.9781 53.7001L93.6164 86.3137L61.491 56.9955C53.8369 64.4005 46.8879 72.2813 40.6504 80.5496L87.9006 118.554L33.7657 90.2616C28.3801 98.3579 23.6336 106.771 19.5305 115.427L82.6531 143.578L13.2332 130.212C10.1654 138.296 7.63027 146.545 5.63129 154.904L7.3055 155.176L15.567 156.517L76.9546 166.479C83.5514 143.199 96.7139 121.49 116.248 104.336C170.218 56.9451 252.387 62.278 299.778 116.248C347.169 170.217 341.837 252.387 287.867 299.778C233.897 347.169 151.728 341.836 104.337 287.867C101.063 284.138 98.0404 280.275 95.2685 276.298L93.732 277.394L42.3619 314.016L36.6818 318.065Z" fill="#D9FF54"/>
</svg>
