<svg width="205" height="550" viewBox="0 0 205 550" fill="none" xmlns="http://www.w3.org/2000/svg">
<path fill-rule="evenodd" clip-rule="evenodd" d="M42.1133 130.904L46.0125 132.737L56.2954 137.571L131.414 172.879C126.267 180.123 121.678 187.738 117.68 195.652L111.472 192.952L55.9706 168.815L28.023 156.661C32.2573 147.835 36.961 139.236 42.1133 130.904ZM105.672 207.768L111.399 209.534C108.849 215.883 106.664 222.385 104.86 229.007L97.3051 227.031L61.9526 217.784L10.3606 204.29C12.5073 196.308 15.0104 188.436 17.8583 180.699L105.672 207.768ZM4.9661 228.759C3.70726 236.038 2.74041 243.385 2.07347 250.783L4.71203 251.035L89.9676 259.189L99.321 260.083C99.7757 254.843 100.465 249.641 101.38 244.495L93.8646 243.268L57.8 237.382L4.9661 228.759ZM1.82303 296.705C1.29418 290.028 1.0146 283.365 0.977938 276.727L3.52243 276.72L89.1663 276.483L98.6686 276.457C98.697 280.445 98.8608 284.448 99.1643 288.459L96.3794 288.694L11.0408 295.924L1.82303 296.705ZM7.35243 333.829C9.46654 343.443 12.1181 353.04 15.3245 362.584C63.5525 506.143 219.026 583.423 362.584 535.195C506.142 486.967 583.422 331.494 535.194 187.935C486.966 44.3773 331.493 -32.903 187.935 15.3249C185.735 16.064 183.55 16.8284 181.381 17.6175L200.145 73.4712L175.287 19.9159C161.82 25.1759 148.987 31.4015 136.841 38.4852L176.085 110.847L123.129 47.0376C112.14 54.3526 101.786 62.3994 92.1097 71.0876L156.395 139.432L76.4729 86.3004C68.3933 94.8148 60.8939 103.816 54.0084 113.235L55.9623 114.454L65.6047 120.464L137.254 165.121C157.719 139.428 185.583 119.143 219.037 107.905C311.465 76.8536 411.564 126.609 442.615 219.037C473.666 311.465 423.91 411.564 331.482 442.615C239.054 473.666 138.955 423.91 107.904 331.483C105.759 325.097 103.999 318.675 102.613 312.242L100.115 312.809L16.5881 331.736L7.35243 333.829Z" fill="#F7F7F7"/>
</svg>
