<svg width="208" height="422" viewBox="0 0 208 422" fill="none" xmlns="http://www.w3.org/2000/svg">
<path opacity="0.9" fill-rule="evenodd" clip-rule="evenodd" d="M84.6666 402.118L82.9505 399.291L78.4249 391.834L45.3641 337.362C51.7311 334.914 57.8992 331.991 63.8157 328.626L66.6401 332.988L91.8953 371.987L104.612 391.625C98.1577 395.472 91.4989 398.976 84.6666 402.118ZM76.6393 325.973L73.7256 322.413C78.0518 319.434 82.2099 316.203 86.1746 312.733L90.1681 317.204L108.856 338.125L136.128 368.656C131.367 372.851 126.424 376.824 121.318 380.563L76.6393 325.973ZM149.966 355.295C153.86 351.174 157.598 346.885 161.165 342.436L159.584 341.154L108.512 299.749L102.909 295.207C100.394 298.366 97.7451 301.4 94.9747 304.303L99.2612 308.279L119.831 327.352L149.966 355.295ZM180.818 313.168C178.322 317.664 175.673 322.044 172.878 326.306L171.248 325.23L116.366 289.027L110.277 285.01C111.952 282.447 113.546 279.817 115.054 277.123L116.936 278.154L174.591 309.755L180.818 313.168ZM193.04 287.075C195.769 280.028 198.146 272.764 200.147 265.298C230.237 153.001 163.595 37.5726 51.297 7.48254C-61.0006 -22.6075 -176.429 44.0348 -206.519 156.332C-236.609 268.63 -169.966 384.058 -57.6687 414.148C-55.9479 414.609 -54.2258 415.048 -52.5036 415.464L-40.7966 371.772L-47.6298 416.58C-36.7831 418.932 -25.9317 420.398 -15.1559 421.022L-9.54134 358.078L-2.75432 421.373C7.37949 421.358 17.4183 420.607 27.2955 419.157L15.1873 348.152L43.755 416.064C52.5373 414.047 61.1549 411.473 69.5577 408.371L68.825 406.762L65.2086 398.825L38.3356 339.846C14.3389 347.593 -12.0946 348.74 -38.2638 341.728C-110.565 322.355 -153.472 248.038 -134.099 175.737C-114.726 103.436 -40.409 60.5294 31.8922 79.9024C104.193 99.2755 147.1 173.592 127.727 245.893C126.389 250.888 124.788 255.743 122.944 260.446L124.783 261.144L186.244 284.493L193.04 287.075Z" fill="#D0FF48"/>
</svg>
