<svg width="444" height="272" viewBox="0 0 444 272" fill="none" xmlns="http://www.w3.org/2000/svg">
<path fill-rule="evenodd" clip-rule="evenodd" d="M103.98 66.0682L107.244 69.1863L115.85 77.4092L178.719 137.479C171.185 142.95 164.081 148.975 157.466 155.494L152.198 150.747L105.095 108.3L81.3767 86.9256C88.5319 79.5808 96.0778 72.6172 103.98 66.0682ZM141.486 163.513L146.589 167.174C141.934 172.623 137.591 178.346 133.587 184.315L126.739 179.836L94.6899 158.878L47.9193 128.295C52.718 121.09 57.8343 114.114 63.248 107.388L141.486 163.513ZM34.3879 150.773C30.7067 157.575 27.2925 164.542 24.1595 171.66L26.6976 172.79L108.709 209.295L117.706 213.3C119.908 208.253 122.329 203.322 124.958 198.521L117.898 194.798L84.0193 176.938L34.3879 150.773ZM8.57766 217.138C10.2814 210.337 12.2283 203.633 14.4084 197.035L16.9396 197.876L102.138 226.187L111.591 229.328C110.287 233.295 109.114 237.321 108.076 241.401L105.23 240.706L17.9997 219.435L8.57766 217.138ZM1.67777 255.814C0.56892 266.057 0 276.462 0 287C0 445.506 128.718 574 287.5 574C446.282 574 575 445.506 575 287C575 128.494 446.282 0 287.5 0C285.067 0 282.64 0.0301779 280.221 0.0901793V61.7595L273.397 0.339285C258.256 1.06937 243.423 2.96858 228.986 5.94844L243.829 90.8225L212.502 9.86305C199.138 13.458 186.161 17.9904 173.643 23.3853L214.715 112.62L153.022 33.2668C142.149 39.0213 131.691 45.4519 121.702 52.5025L123.237 54.3625L130.814 63.5394L187.114 131.727C216.032 113.058 250.498 102.219 287.5 102.219C389.729 102.219 472.603 184.948 472.603 287C472.603 389.052 389.729 471.781 287.5 471.781C185.271 471.781 102.397 389.052 102.397 287C102.397 279.95 102.793 272.992 103.563 266.147L100.89 265.877L11.5558 256.815L1.67777 255.814Z" fill="#D0FF48"/>
</svg>
