<svg width="549" height="549" viewBox="0 0 549 549" fill="none" xmlns="http://www.w3.org/2000/svg">
<path fill-rule="evenodd" clip-rule="evenodd" d="M66.9618 453.864L69.8754 450.69L77.5588 442.32L133.687 381.171C139.063 388.246 144.96 394.9 151.319 401.079L146.889 406.197L107.28 451.959L87.3356 475.003C80.1771 468.326 73.375 461.27 66.9618 453.864ZM159.297 416.156L162.693 411.218C167.991 415.547 173.544 419.575 179.325 423.274L175.183 429.894L155.802 460.872L127.519 506.082C120.542 501.649 113.776 496.91 107.242 491.882L159.297 416.156ZM149.26 518.536C155.831 521.911 162.554 525.028 169.416 527.873L170.444 525.43L203.683 446.499L207.329 437.839C202.464 435.84 197.705 433.63 193.067 431.219L189.652 438.026L173.266 470.687L149.26 518.536ZM213.168 541.824C206.638 540.335 200.195 538.613 193.849 536.665L194.602 534.235L219.949 452.428L222.761 443.351C226.576 444.515 230.445 445.554 234.363 446.462L233.757 449.19L215.175 532.794L213.168 541.824ZM250.25 547.633C260.056 548.486 270.007 548.821 280.073 548.61C431.483 545.449 551.662 420.144 548.5 268.734C545.338 117.325 420.034 -2.85398 268.624 0.30763C117.214 3.46924 -2.96433 128.774 0.197276 280.184C0.245724 282.504 0.322872 284.817 0.428352 287.123L59.3368 285.893L0.802191 293.625C1.80107 308.048 3.91061 322.155 7.04452 335.862L87.8233 320.015L11.1121 351.503C14.8122 364.174 19.4001 376.459 24.8027 388.288L109.225 347.343L34.6524 407.754C40.3658 418.007 46.7168 427.852 53.6506 437.236L55.3968 435.735L64.012 428.327L128.026 373.282C109.616 346.078 98.577 313.428 97.8402 278.145C95.8047 180.662 173.18 99.9862 270.663 97.9506C368.146 95.915 448.821 173.29 450.857 270.773C452.893 368.256 375.517 448.932 278.034 450.967C271.3 451.108 264.646 450.87 258.092 450.272L257.887 452.826L251.01 538.193L250.25 547.633Z" fill="#F7F7F7"/>
</svg>
