<svg width="86" height="70" viewBox="0 0 86 70" fill="none" xmlns="http://www.w3.org/2000/svg">
<path d="M49.7016 61.9259L16.9823 68.6609C14.3075 69.2115 11.6857 67.5141 11.0933 64.8482L1.08417 19.8047C0.485329 17.1098 2.18391 14.4395 4.87859 13.8396L62.1884 1.08106C64.8742 0.483129 67.5384 2.16768 68.1499 4.85046L72.0145 21.8064" stroke="#AAAAAA" stroke-linecap="round"/>
<path d="M24.2031 44.2715L26.9379 55.7967" stroke="white" stroke-width="3" stroke-linecap="round"/>
<path d="M31.875 38.3691L35.7605 53.5929" stroke="white" stroke-width="3" stroke-linecap="round"/>
<path d="M39.5488 34.8281L43.6322 51.5441" stroke="white" stroke-width="3" stroke-linecap="round"/>
<path d="M15.6167 27.8435C15.0848 27.6949 14.5332 28.0056 14.3845 28.5376C14.2359 29.0695 14.5467 29.6211 15.0786 29.7698L15.6167 27.8435ZM46.1567 13.8418C45.9767 13.3196 45.4075 13.0422 44.8854 13.2222L36.3766 16.1548C35.8544 16.3348 35.5771 16.904 35.757 17.4261C35.937 17.9482 36.5061 18.2256 37.0283 18.0457L44.5917 15.4389L47.1984 23.0023C47.3784 23.5244 47.9476 23.8018 48.4697 23.6219C48.9919 23.4419 49.2692 22.8727 49.0893 22.3506L46.1567 13.8418ZM15.0786 29.7698C21.9909 31.701 28.1651 31.2371 33.4348 28.572C38.691 25.9137 42.9338 21.1231 46.1102 14.6057L44.3123 13.7295C41.2694 19.9732 37.2954 24.3782 32.5321 26.7872C27.7823 29.1894 22.1344 29.6645 15.6167 27.8435L15.0786 29.7698Z" fill="white"/>
<path fill-rule="evenodd" clip-rule="evenodd" d="M84.5527 36.347L83.4786 34.4895C82.5699 32.9179 80.5561 32.3757 78.9768 33.2775C78.225 33.7188 77.328 33.844 76.4835 33.6255C75.639 33.407 74.9164 32.8627 74.475 32.1127C74.1911 31.6359 74.0385 31.0929 74.0327 30.5386C74.0583 29.6498 73.7219 28.7886 73.1 28.151C72.478 27.5135 71.6237 27.1539 70.7314 27.1543H68.5674C67.6933 27.1543 66.8552 27.5014 66.2386 28.1188C65.622 28.7362 65.2777 29.5731 65.2819 30.4441C65.256 32.2426 63.7855 33.6869 61.9806 33.6868C61.4243 33.681 60.8794 33.529 60.401 33.246C58.8217 32.3442 56.8079 32.8864 55.8992 34.4581L54.7461 36.347C53.8385 37.9167 54.3752 39.9222 55.9466 40.8331C56.968 41.4208 57.5972 42.5069 57.5972 43.6822C57.5972 44.8576 56.968 45.9436 55.9466 46.5313C54.3772 47.4361 53.8399 49.4368 54.7461 51.0017L55.836 52.8749C56.2618 53.6405 56.9761 54.2054 57.821 54.4447C58.6659 54.684 59.5716 54.5779 60.3378 54.1499C61.091 53.7119 61.9885 53.5919 62.8309 53.8166C63.6733 54.0412 64.3908 54.5919 64.8238 55.3462C65.1077 55.8229 65.2603 56.3659 65.2661 56.9203C65.2661 58.7372 66.7441 60.2101 68.5674 60.2101H70.7314C72.5485 60.2101 74.024 58.7468 74.0327 56.936C74.0285 56.0622 74.375 55.223 74.995 54.6051C75.615 53.9872 76.4572 53.642 77.3341 53.6462C77.889 53.661 78.4317 53.8124 78.9136 54.0869C80.4888 54.9914 82.5013 54.4566 83.4154 52.8906L84.5527 51.0017C84.9929 50.2487 85.1138 49.352 84.8884 48.5099C84.6631 47.6679 84.1102 46.9501 83.3522 46.5156C82.5942 46.081 82.0414 45.3632 81.816 44.5212C81.5907 43.6792 81.7115 42.7824 82.1518 42.0294C82.438 41.5314 82.8524 41.1184 83.3522 40.8331C84.9142 39.9227 85.4497 37.9289 84.5527 36.3627V36.347Z" stroke="#D0FF48" stroke-width="2" stroke-linecap="round" stroke-linejoin="round"/>
<path d="M69.6519 48.4055C72.26 48.4055 74.3742 46.2912 74.3742 43.6832C74.3742 41.0752 72.26 38.9609 69.6519 38.9609C67.0439 38.9609 64.9297 41.0752 64.9297 43.6832C64.9297 46.2912 67.0439 48.4055 69.6519 48.4055Z" stroke="white" stroke-width="2" stroke-linecap="round" stroke-linejoin="round"/>
</svg>
