<svg width="80" height="70" viewBox="0 0 80 70" fill="none" xmlns="http://www.w3.org/2000/svg">
<path d="M34.0078 44.9887C34.0078 51.6161 39.3804 56.9887 46.0078 56.9887C52.6352 56.9887 63.5078 49.1161 63.5078 42.4887C63.5078 35.8613 54.1352 23.9893 47.5078 23.9893C37.0078 19.9899 34.0078 38.3613 34.0078 44.9887Z" fill="#D0FF48"/>
<path d="M22.392 36.0173C21.8809 35.9253 21.3903 36.265 21.3149 36.7789C20.4107 42.9419 21.5142 49.2419 24.476 54.7406C27.5867 60.5157 32.5633 65.0656 38.5933 67.6474C44.6234 70.2293 51.3506 70.6905 57.6767 68.9559C64.0027 67.2213 69.5538 63.3933 73.4236 58.0968C77.2934 52.8004 79.2533 46.3485 78.9832 39.7945C78.7132 33.2405 76.2292 26.9717 71.9369 22.0115C67.6445 17.0514 61.7973 13.693 55.3501 12.4846C49.2113 11.3341 42.8739 12.1974 37.2772 14.9319C36.8106 15.1599 36.6361 15.7305 36.879 16.1895C37.122 16.6485 37.6905 16.8219 38.1576 16.595C43.3779 14.0589 49.283 13.2609 55.0036 14.3331C61.0328 15.4631 66.5008 18.6037 70.5148 23.2422C74.5288 27.8807 76.8517 33.743 77.1042 39.8719C77.3567 46.0009 75.5239 52.0344 71.905 56.9873C68.2862 61.9403 63.0951 65.5201 57.1793 67.1422C51.2636 68.7643 44.9726 68.333 39.3336 65.9186C33.6946 63.5042 29.0407 59.2493 26.1318 53.8488C23.3717 48.7246 22.3373 42.8563 23.1669 37.1122C23.2411 36.5982 22.9031 36.1093 22.392 36.0173Z" fill="#262626"/>
<path d="M37.0562 35.1777C36.6508 34.9957 36.1724 35.1764 36.0124 35.591C34.7723 38.8066 34.6746 42.3606 35.7512 45.6518C36.9114 49.1986 39.352 52.1856 42.5965 54.0294C45.8409 55.8733 49.6561 56.4415 53.297 55.6232C56.938 54.8049 60.1431 52.6588 62.2866 49.6041C64.4301 46.5493 65.3579 42.8053 64.8889 39.1031C64.4199 35.4009 62.5877 32.0065 59.7502 29.5828C56.9127 27.159 53.2736 25.88 49.5437 25.9955C46.0825 26.1026 42.7737 27.4034 40.1717 29.6635C39.8362 29.9549 39.8291 30.4662 40.1381 30.7856C40.4471 31.105 40.955 31.1114 41.2924 30.8221C43.6052 28.8393 46.5326 27.6989 49.5935 27.6041C52.9232 27.501 56.1719 28.6428 58.7049 30.8065C61.238 32.9702 62.8735 36.0004 63.2922 39.3054C63.7109 42.6103 62.8826 45.9526 60.9691 48.6796C59.0557 51.4066 56.1944 53.3225 52.9441 54.053C49.6938 54.7835 46.288 54.2762 43.3916 52.6302C40.4953 50.9842 38.3166 48.3177 37.2808 45.1514C36.3287 42.2408 36.4054 39.1001 37.4833 36.2508C37.6405 35.8351 37.4617 35.3596 37.0562 35.1777Z" fill="#262626"/>
<path d="M51.7822 61.0187C51.7096 61.4711 52.0174 61.8992 52.4732 61.9467C55.2157 62.2325 57.9901 61.7572 60.4883 60.565C62.9866 59.3728 65.1012 57.5151 66.6041 55.2033C66.8538 54.8191 66.7147 54.3106 66.3173 54.0824C65.92 53.8543 65.415 53.9932 65.1626 54.3756C63.8293 56.3961 61.9678 58.0204 59.7737 59.0675C57.5795 60.1146 55.1459 60.5399 52.7365 60.3055C52.2804 60.2611 51.8549 60.5663 51.7822 61.0187Z" fill="#E8E8E8"/>
<path d="M69.1576 48.036C69.5266 48.227 69.9823 48.0834 70.1546 47.7054C71.2267 45.353 71.6726 42.763 71.449 40.1875C71.413 39.7736 71.0315 39.4859 70.6199 39.5426C70.2084 39.5992 69.9229 39.9787 69.9565 40.3928C70.1406 42.6601 69.7485 44.9376 68.8167 47.0128C68.6466 47.3918 68.7887 47.845 69.1576 48.036Z" fill="#E8E8E8"/>
<line x1="48.1298" y1="40.3009" x2="10.1896" y2="11.4015" stroke="#484848" stroke-width="2" stroke-linecap="round"/>
<path d="M28.2578 14.4925L28.2113 24.5065L17.4432 27.2202L2.8638 15.6864L11.165 11.2012L13.546 2.80545L28.2578 14.4925Z" stroke="#484848" stroke-width="3"/>
</svg>
