<svg width="68" height="77" viewBox="0 0 68 77" fill="none" xmlns="http://www.w3.org/2000/svg">
<rect x="0.5" y="15.3477" width="51.5386" height="60.6757" rx="4.5" stroke="#656565"/>
<rect x="6.12695" y="31.8555" width="3.67576" height="8.57676" rx="1" fill="white"/>
<rect x="11.0273" y="34.3047" width="3.67576" height="6.12626" rx="1" fill="#8D8D8D"/>
<rect x="15.9277" y="31.8555" width="3.67576" height="8.57676" rx="1" fill="#D0FF48"/>
<rect x="20.8301" y="29.4043" width="3.67576" height="11.0273" rx="1" fill="white"/>
<line x1="47.2852" y1="49.5078" x2="6.62659" y2="49.5078" stroke="#AAAAAA" stroke-linecap="round"/>
<line x1="47.2852" y1="64.2109" x2="6.62659" y2="64.2109" stroke="#AAAAAA" stroke-linecap="round"/>
<line x1="47.2852" y1="60.5352" x2="6.62659" y2="60.5352" stroke="#AAAAAA" stroke-linecap="round"/>
<line x1="25.2324" y1="53.1855" x2="6.62839" y2="53.1855" stroke="#AAAAAA" stroke-linecap="round"/>
<line x1="46.0605" y1="53.1855" x2="27.4565" y2="53.1855" stroke="#AAAAAA" stroke-linecap="round"/>
<line x1="32.5842" y1="56.8615" x2="6.62865" y2="56.8717" stroke="#AAAAAA" stroke-linecap="round"/>
<line x1="47.2853" y1="45.8322" x2="6.62673" y2="45.8425" stroke="#AAAAAA" stroke-linecap="round"/>
<line x1="47.2855" y1="56.8617" x2="34.8078" y2="56.8715" stroke="#AAAAAA" stroke-linecap="round"/>
<path d="M28.1836 37.9817L30.6341 36.1439L32.472 37.9817L35.5351 34.306L41.0487 36.1439L44.1119 31.8555L46.5624 32.4681" stroke="white"/>
<path d="M55.5469 20.4121L65.4418 29.9275C66.5172 30.9617 66.5506 32.6718 65.5165 33.7472C64.4823 34.8226 62.7722 34.856 61.6968 33.8219L51.8019 24.3065C53.4617 23.2935 54.4002 22.4329 55.5469 20.4121Z" fill="white"/>
<path d="M56.3611 12.8651C56.3611 19.9704 50.6012 25.7303 43.496 25.7303C36.3908 25.7303 30.6309 19.9704 30.6309 12.8651C30.6309 5.75992 36.3908 0 43.496 0C50.6012 0 56.3611 5.75992 56.3611 12.8651ZM33.3423 12.8651C33.3423 18.4729 37.8883 23.0189 43.496 23.0189C49.1037 23.0189 53.6497 18.4729 53.6497 12.8651C53.6497 7.2574 49.1037 2.71143 43.496 2.71143C37.8883 2.71143 33.3423 7.2574 33.3423 12.8651Z" fill="white"/>
<path d="M42.0074 5.10164C39.3323 6.63386 37.297 9.0765 36.2727 11.9842L38.5055 12.7708C39.3412 10.3987 41.0016 8.40592 43.184 7.15591L42.0074 5.10164Z" fill="#D0FF48"/>
</svg>
