<svg width="68" height="87" viewBox="0 0 68 87" fill="none" xmlns="http://www.w3.org/2000/svg">
<path d="M21.4206 64.283C17.3689 61.4995 14.3306 57.4756 12.7628 52.8167C11.1949 48.1578 11.1823 43.1157 12.7268 38.449C14.2713 33.7822 17.2894 29.7432 21.327 26.9394C25.3647 24.1357 30.2036 22.7188 35.1159 22.9019C40.0281 23.0851 44.7481 24.8584 48.5658 27.955C52.3834 31.0517 55.0923 35.3043 56.285 40.0731C57.4777 44.8419 57.0896 49.869 55.1792 54.3982C53.2688 58.9275 49.9393 62.7139 45.6916 65.188L45.136 64.2341C49.1771 61.8804 52.3446 58.2782 54.1621 53.9692C55.9796 49.6603 56.3488 44.8777 55.2142 40.3409C54.0795 35.8041 51.5024 31.7583 47.8704 28.8123C44.2384 25.8663 39.7481 24.1793 35.0747 24.005C30.4014 23.8308 25.7979 25.1787 21.9566 27.8461C18.1154 30.5135 15.2441 34.3561 13.7747 38.7958C12.3054 43.2355 12.3174 48.0323 13.809 52.4646C15.3006 56.897 18.191 60.7251 22.0456 63.3732L21.4206 64.283Z" fill="white"/>
<path d="M37.283 35.7851L29.9089 45.8156C29.4234 46.476 29.895 47.408 30.7146 47.408L36.142 47.408C36.9764 47.408 37.4439 48.3696 36.9284 49.0257L30.2774 57.4917" stroke="#C6FF00" stroke-width="2" stroke-linecap="round"/>
<line x1="22.003" y1="72.2352" x2="44.1259" y2="70.9338" stroke="white" stroke-linecap="round"/>
<line x1="22.003" y1="75.6336" x2="44.1259" y2="74.3323" stroke="white" stroke-linecap="round"/>
<line x1="22.003" y1="79.034" x2="44.1259" y2="77.7327" stroke="white" stroke-linecap="round"/>
<line x1="56.7454" y1="23.2127" x2="67.626" y2="10.9721" stroke="white"/>
<line y1="-0.5" x2="16.3774" y2="-0.5" transform="matrix(-0.664364 -0.747409 -0.747409 0.664364 10.8809 23.5449)" stroke="white"/>
<line x1="32.3672" y1="17" x2="32.3672" y2="-0.00088501" stroke="white"/>
<path d="M21.5859 63.7773C24.4194 64.9107 23.2318 69.2292 23.2318 78.77C23.2318 88.3108 41.1442 89.3651 42.2185 78.4613C43.2927 67.5576 43.066 66.0798 46.4662 64.0354" stroke="white"/>
</svg>
