<svg width="58" height="59" viewBox="0 0 58 59" fill="none" xmlns="http://www.w3.org/2000/svg">
<path d="M43.328 47.5C45.0122 47.349 46.349 46.0122 46.5 44.328C46.651 46.0122 47.9878 47.349 49.672 47.5C47.9878 47.651 46.651 48.9878 46.5 50.672C46.349 48.9878 45.0122 47.651 43.328 47.5Z" stroke="#5E5E5E"/>
<path d="M28.5146 4.05253C28.6397 3.54565 29.3603 3.54565 29.4854 4.05254L34.1115 22.7917C34.245 23.3326 34.6674 23.755 35.2083 23.8885L53.9475 28.5146C54.4543 28.6397 54.4544 29.3603 53.9475 29.4854L35.2083 34.1115C34.6674 34.245 34.245 34.6674 34.1115 35.2083L29.4854 53.9475C29.3603 54.4543 28.6397 54.4544 28.5146 53.9475L23.8885 35.2083C23.755 34.6674 23.3326 34.245 22.7917 34.1115L4.05253 29.4854C3.54565 29.3603 3.54565 28.6397 4.05254 28.5146L22.7917 23.8885C23.3326 23.755 23.755 23.3326 23.8885 22.7917L28.5146 4.05253Z" stroke="#5E5E5E"/>
</svg>
