<svg width="291" height="291" viewBox="0 0 291 291" fill="none" xmlns="http://www.w3.org/2000/svg">
<path fill-rule="evenodd" clip-rule="evenodd" d="M2.32778 122.524L4.60016 122.622L10.5928 122.879L54.3702 124.759C53.3405 129.335 52.6581 133.979 52.3247 138.648L48.7516 138.598L16.8042 138.16L0.717262 137.939C0.979978 132.778 1.5174 127.632 2.32778 122.524ZM48.9477 146.995L52.0966 146.688C52.1491 150.299 52.4104 153.911 52.8821 157.503L48.8004 158.081L29.7003 160.786L1.82668 164.733C1.24469 160.408 0.858712 156.065 0.668218 151.717L48.9477 146.995ZM4.18821 177.748C5.059 181.549 6.08607 185.324 7.2695 189.062L8.60581 188.647L51.7832 175.236L56.5201 173.765C55.6733 171.121 54.9483 168.447 54.345 165.755L50.4351 166.689L31.6736 171.176L4.18821 177.748ZM16.5095 211.475C14.8908 208.331 13.3963 205.144 12.025 201.919L13.2627 201.397L54.9187 183.821L59.5405 181.871C60.3675 183.808 61.2633 185.724 62.2287 187.615L60.9206 188.297L20.8389 209.215L16.5095 211.475ZM26.7704 228.425C29.7599 232.676 33.0075 236.808 36.5146 240.802C89.2658 300.876 180.728 306.812 240.802 254.061C300.876 201.309 306.812 109.847 254.061 49.7731C201.309 -10.3005 109.847 -16.2365 49.773 36.5147C48.8524 37.3231 47.9443 38.1408 47.0491 38.9671L67.5729 62.3398L44.5501 41.3288C39.0647 46.6355 34.0847 52.2834 29.6145 58.2089L63.4766 85.445L24.6806 65.169C20.821 70.9713 17.4194 77.0005 14.4789 83.2039L59.716 103.379L9.96593 93.7996C7.76736 99.5928 5.95054 105.505 4.51796 111.495L5.71779 111.69L11.6384 112.651L55.6321 119.79C60.3598 103.107 69.7926 87.5486 83.7919 75.2558C122.469 41.2926 181.356 45.1144 215.319 83.792C249.283 122.47 245.461 181.357 206.783 215.32C168.106 249.283 109.219 245.461 75.2556 206.783C72.9094 204.111 70.7433 201.343 68.7568 198.493L67.6557 199.278L30.8411 225.523L26.7704 228.425Z" fill="#FAFAFA"/>
</svg>
