<svg width="37" height="37" viewBox="0 0 37 37" fill="none" xmlns="http://www.w3.org/2000/svg">
<path d="M18.5 37C28.7173 37 37 28.7173 37 18.5C37 8.28273 28.7173 0 18.5 0C8.28273 0 0 8.28273 0 18.5C0 28.7173 8.28273 37 18.5 37Z" fill="url(#paint0_linear_623_3163)"/>
<path d="M7.31932 18.1438C9.48197 16.9526 11.8961 15.9583 14.1517 14.959C18.0322 13.3222 21.9281 11.7138 25.8634 10.2164C26.629 9.96126 28.0048 9.71182 28.1397 10.8465C28.0657 12.4526 27.762 14.0493 27.5535 15.646C27.0246 19.1573 26.413 22.6566 25.8168 26.1563C25.6113 27.322 24.1511 27.9255 23.2167 27.1795C20.9711 25.6625 18.7082 24.1606 16.4913 22.6085C15.7652 21.8706 16.4386 20.8109 17.087 20.284C18.9365 18.4612 20.898 16.9126 22.6509 14.9957C23.1237 13.854 21.7267 14.8163 21.2658 15.1112C18.7338 16.8561 16.2638 18.7074 13.5942 20.2409C12.2306 20.9916 10.6413 20.3501 9.27831 19.9311C8.05623 19.4252 6.26543 18.9154 7.31916 18.144L7.31932 18.1438Z" fill="white"/>
<defs>
<linearGradient id="paint0_linear_623_3163" x1="24.6682" y1="6.1679" x2="15.4182" y2="27.75" gradientUnits="userSpaceOnUse">
<stop stop-color="#37AEE2"/>
<stop offset="1" stop-color="#1E96C8"/>
</linearGradient>
</defs>
</svg>
