<svg width="64" height="55" viewBox="0 0 64 55" fill="none" xmlns="http://www.w3.org/2000/svg">
<path d="M44.5725 0.172584C44.0992 -0.0379483 43.5626 -0.0565759 43.0757 0.120624C42.5889 0.297823 42.1898 0.657022 41.9625 1.12258L18.4125 51.9526C18.3048 52.1829 18.2437 52.4323 18.2327 52.6864C18.2217 52.9404 18.261 53.1942 18.3483 53.433C18.4357 53.6718 18.5693 53.891 18.7417 54.078C18.914 54.265 19.1216 54.4161 19.3525 54.5226C19.5323 54.6091 19.7247 54.6665 19.9225 54.6926C20.3307 54.7449 20.7449 54.6655 21.1047 54.4658C21.4645 54.2661 21.751 53.9566 21.9225 53.5826L45.5125 2.75258C45.7147 2.28381 45.73 1.75546 45.5553 1.27578C45.3805 0.796097 45.0289 0.40141 44.5725 0.172584ZM20.3525 31.1126C20.6018 30.665 20.6698 30.1388 20.5425 29.6426C20.4025 29.1467 20.0765 28.724 19.6325 28.4626L7.27253 21.3526C7.11321 21.2654 6.98063 21.1365 6.88902 20.9797C6.79741 20.8229 6.75023 20.6442 6.75253 20.4626C6.74924 20.282 6.79493 20.1039 6.88472 19.9472C6.97452 19.7905 7.10507 19.661 7.26253 19.5726L19.6625 12.2226C20.0972 11.953 20.4122 11.5272 20.5425 11.0326C20.6056 10.787 20.6198 10.5314 20.5841 10.2804C20.5484 10.0293 20.4635 9.78781 20.3345 9.56957C20.2054 9.35134 20.0345 9.16067 19.8317 9.00848C19.6289 8.85629 19.3981 8.74554 19.1525 8.68258C18.9936 8.63489 18.8284 8.6113 18.6625 8.61258C18.3098 8.61229 17.9638 8.70917 17.6625 8.89258L0.962529 18.8326C0.669802 19.0022 0.426792 19.2457 0.257858 19.5388C0.0889236 19.8319 0 20.1643 0 20.5026C0 20.8409 0.0889236 21.1732 0.257858 21.4663C0.426792 21.7594 0.669802 22.003 0.962529 22.1726L17.7325 31.8226C18.1785 32.0555 18.6958 32.1117 19.1814 31.9801C19.667 31.8485 20.0852 31.5388 20.3525 31.1126ZM63.0125 32.8326L46.2425 22.8926C45.9387 22.7163 45.5938 22.6232 45.2425 22.6226C44.8192 22.6235 44.4078 22.7628 44.071 23.0193C43.7342 23.2758 43.4906 23.6355 43.3773 24.0434C43.264 24.4512 43.2872 24.885 43.4434 25.2785C43.5997 25.6719 43.8803 26.0035 44.2425 26.2226L56.6425 33.5726C56.8089 33.6555 56.9489 33.7832 57.0468 33.9413C57.1446 34.0994 57.1965 34.2817 57.1965 34.4676C57.1965 34.6535 57.1446 34.8358 57.0468 34.9939C56.9489 35.152 56.8089 35.2796 56.6425 35.3626L44.2925 42.4726C43.848 42.7281 43.5227 43.1493 43.3878 43.644C43.2529 44.1387 43.3193 44.6667 43.5725 45.1126C43.8389 45.5482 44.2617 45.8654 44.7544 45.9993C45.2471 46.1331 45.7724 46.0735 46.2225 45.8326L62.9625 36.1826C63.2551 36.0116 63.4977 35.7671 63.6664 35.4732C63.835 35.1793 63.9238 34.8464 63.9238 34.5076C63.9238 34.1688 63.835 33.8358 63.6664 33.542C63.4977 33.2481 63.2551 33.0035 62.9625 32.8326H63.0125Z" fill="#010101"/>
</svg>
