<svg width="60" height="77" viewBox="0 0 60 77" fill="none" xmlns="http://www.w3.org/2000/svg">
<path d="M18.8985 56.7169C15.3237 54.261 12.643 50.7107 11.2597 46.6001C9.87638 42.4895 9.86524 38.0408 11.228 33.9233C12.5907 29.8058 15.2535 26.2422 18.816 23.7684C22.3785 21.2946 26.6479 20.0445 30.982 20.2061C35.3161 20.3677 39.4806 21.9323 42.8489 24.6645C46.2173 27.3967 48.6074 31.1487 49.6597 35.3563C50.712 39.5638 50.3696 43.9993 48.684 47.9955C46.9984 51.9917 44.0608 55.3325 40.313 57.5153L39.8228 56.6738C43.3883 54.5971 46.183 51.4188 47.7866 47.617C49.3902 43.8152 49.716 39.5954 48.7148 35.5926C47.7137 31.5897 45.4399 28.0201 42.2354 25.4208C39.0309 22.8215 35.069 21.3331 30.9457 21.1793C26.8224 21.0256 22.7607 22.2149 19.3715 24.5683C15.9823 26.9218 13.449 30.3121 12.1526 34.2293C10.8561 38.1465 10.8667 42.3788 12.1828 46.2894C13.4988 50.2001 16.0491 53.5777 19.45 55.9141L18.8985 56.7169Z" fill="white"/>
<path d="M32.895 31.5737L26.5266 40.2363C26.0411 40.8967 26.5127 41.8286 27.3323 41.8286L31.6462 41.8286C32.4806 41.8286 32.948 42.7902 32.4326 43.4464L26.714 50.7256" stroke="#C6FF00" stroke-width="2" stroke-linecap="round"/>
<line x1="19.4678" y1="63.6707" x2="38.8695" y2="62.5294" stroke="white" stroke-linecap="round"/>
<line x1="19.4678" y1="66.6707" x2="38.8695" y2="65.5294" stroke="white" stroke-linecap="round"/>
<line x1="19.4678" y1="69.6707" x2="38.8695" y2="68.5294" stroke="white" stroke-linecap="round"/>
<line x1="50.0228" y1="20.4413" x2="59.6228" y2="9.64126" stroke="white"/>
<line y1="-0.5" x2="14.4499" y2="-0.5" transform="matrix(-0.664364 -0.747409 -0.747409 0.664364 9.59961 20.7734)" stroke="white"/>
<line x1="28.498" y1="15" x2="28.498" stroke="white"/>
<path d="M19.0449 56.2715C21.5449 57.2715 20.4971 61.0817 20.4971 69.4996C20.4971 77.9175 36.3014 78.8477 37.2492 69.2273C38.197 59.6068 37.997 58.303 40.997 56.4991" stroke="white"/>
</svg>
