<svg width="58" height="50" viewBox="0 0 58 50" fill="none" xmlns="http://www.w3.org/2000/svg">
<path d="M29 13C24.0497 13 20 15.419 20 18.5C20 21.581 24.0497 24 29 24C33.9503 24 38 21.581 38 18.5C38 15.419 33.9503 13 29 13ZM29 21.7996C25.176 21.7996 22.2505 20.0405 22.2505 18.5C22.2505 16.9595 25.176 15.2004 29 15.2004C32.824 15.2004 35.7495 16.9595 35.7495 18.5C35.7495 20.0405 32.824 21.7996 29 21.7996Z" fill="black"/>
<path d="M54.0306 14.2102C54.5683 13.5595 54.7818 12.801 54.7818 11.9326C54.7818 8.89662 50.9151 6.50927 46.1885 6.50927C43.7175 6.50927 41.5707 7.16 40.0663 8.13608L37.2731 6.94241C37.4885 6.50927 37.5953 5.96632 37.5953 5.42338C37.5953 2.38734 33.7286 0 29.002 0C24.2754 0 20.4087 2.38531 20.4087 5.42338C20.4087 5.96632 20.5155 6.39946 20.731 6.94241L18.5822 7.9185C17.0778 7.05019 15.0377 6.50927 12.8889 6.50927C8.16229 6.50927 4.29563 8.89458 4.29563 11.9326C4.29563 12.5834 4.51111 13.2341 4.83333 13.8848L0 16.0546V37.5285L29 50L58 37.4187V16.0525L54.0266 14.2082L54.0306 14.2102ZM29.004 27.6598L3.76396 16.7053L6.44847 15.6214C8.05958 16.7053 10.3151 17.4658 12.8929 17.4658C17.6195 17.4658 21.4862 15.0805 21.4862 12.0425C21.4862 11.1742 21.164 10.3079 20.5195 9.54734L22.1306 8.89662C23.7417 10.1981 26.2128 11.0664 29.004 11.0664C31.7953 11.0664 34.2663 10.1981 35.8774 8.89662L38.3485 9.98048C37.9195 10.6312 37.5973 11.3897 37.5973 12.1502C37.5973 15.1863 41.464 17.5736 46.1906 17.5736C48.5528 17.5736 50.7017 17.0307 52.206 16.0546L54.2461 16.9229L29.006 27.6598H29.004ZM52.633 11.9326C52.633 13.4517 49.8397 15.1863 46.1885 15.1863C42.5374 15.1863 39.7441 13.4517 39.7441 11.9326C39.7441 10.4136 42.5374 8.67903 46.1885 8.67903C49.8397 8.67903 52.633 10.4136 52.633 11.9326ZM29.004 2.2816C32.6552 2.2816 35.4485 4.01619 35.4485 5.53522C35.4485 7.05425 32.6552 8.78884 29.004 8.78884C25.3528 8.78884 22.5596 7.05425 22.5596 5.53522C22.5596 4.01619 25.3528 2.2816 29.004 2.2816ZM12.8929 8.67903C16.5441 8.67903 19.3374 10.4136 19.3374 11.9326C19.3374 13.4517 16.5441 15.1863 12.8929 15.1863C9.24174 15.1863 6.44847 13.4517 6.44847 11.9326C6.44847 10.4136 9.24174 8.67903 12.8929 8.67903ZM2.15285 18.3321L27.9306 29.5022V47.1795L2.15285 36.0094V18.3321ZM30.0774 47.1816V29.5042L55.8552 18.3341V36.0115L30.0774 47.1816Z" fill="black"/>
</svg>
