<svg width="53" height="53" viewBox="0 0 53 53" fill="none" xmlns="http://www.w3.org/2000/svg">
<path d="M49.5 44.7403H46.38V17.7403C46.38 17.4751 46.2746 17.2207 46.0871 17.0332C45.8996 16.8457 45.6452 16.7403 45.38 16.7403H39.33C39.0648 16.7403 38.8104 16.8457 38.6229 17.0332C38.4354 17.2207 38.33 17.4751 38.33 17.7403V44.7403H34V23.3003C34 23.0351 33.8946 22.7807 33.7071 22.5932C33.5196 22.4057 33.2652 22.3003 33 22.3003H27C26.7348 22.3003 26.4804 22.4057 26.2929 22.5932C26.1054 22.7807 26 23.0351 26 23.3003V44.7403H21.7V30.8603C21.7 30.5951 21.5946 30.3407 21.4071 30.1532C21.2196 29.9657 20.9652 29.8603 20.7 29.8603H14.7C14.4348 29.8603 14.1804 29.9657 13.9929 30.1532C13.8054 30.3407 13.7 30.5951 13.7 30.8603V44.7403H10.41V11.0703C10.41 10.8051 10.3046 10.5507 10.1171 10.3632C9.92957 10.1757 9.67522 10.0703 9.41 10.0703C9.14478 10.0703 8.89043 10.1757 8.70289 10.3632C8.51536 10.5507 8.41 10.8051 8.41 11.0703V45.7403C8.41 46.0055 8.51536 46.2599 8.70289 46.4474C8.89043 46.635 9.14478 46.7403 9.41 46.7403H49.39C49.6552 46.7403 49.9096 46.635 50.0971 46.4474C50.2846 46.2599 50.39 46.0055 50.39 45.7403C50.39 45.4751 50.2846 45.2207 50.0971 45.0332C49.9096 44.8457 49.6552 44.7403 49.39 44.7403H49.5ZM40.33 18.7403H44.38V44.7403H40.33V18.7403ZM28 24.3003H32V44.7403H28V24.3003ZM15.65 31.8603H19.65V44.7403H15.65V31.8603ZM3.5 14.8903H5.3C5.56522 14.8903 5.81957 14.785 6.00711 14.5974C6.19464 14.4099 6.3 14.1555 6.3 13.8903C6.3 13.6251 6.19464 13.3707 6.00711 13.1832C5.81957 12.9957 5.56522 12.8903 5.3 12.8903H3.5C3.23478 12.8903 2.98043 12.9957 2.79289 13.1832C2.60536 13.3707 2.5 13.6251 2.5 13.8903C2.5 14.1555 2.60536 14.4099 2.79289 14.5974C2.98043 14.785 3.23478 14.8903 3.5 14.8903ZM3.5 20.8803H5.3C5.56522 20.8803 5.81957 20.775 6.00711 20.5874C6.19464 20.3999 6.3 20.1455 6.3 19.8803C6.3 19.6151 6.19464 19.3607 6.00711 19.1732C5.81957 18.9857 5.56522 18.8803 5.3 18.8803H3.5C3.23478 18.8803 2.98043 18.9857 2.79289 19.1732C2.60536 19.3607 2.5 19.6151 2.5 19.8803C2.5 20.1455 2.60536 20.3999 2.79289 20.5874C2.98043 20.775 3.23478 20.8803 3.5 20.8803ZM3.5 26.8603H5.3C5.56522 26.8603 5.81957 26.755 6.00711 26.5674C6.19464 26.3799 6.3 26.1255 6.3 25.8603C6.3 25.5951 6.19464 25.3407 6.00711 25.1532C5.81957 24.9657 5.56522 24.8603 5.3 24.8603H3.5C3.23478 24.8603 2.98043 24.9657 2.79289 25.1532C2.60536 25.3407 2.5 25.5951 2.5 25.8603C2.5 26.1255 2.60536 26.3799 2.79289 26.5674C2.98043 26.755 3.23478 26.8603 3.5 26.8603ZM3.5 32.8503H5.3C5.56522 32.8503 5.81957 32.745 6.00711 32.5574C6.19464 32.3699 6.3 32.1155 6.3 31.8503C6.3 31.5851 6.19464 31.3307 6.00711 31.1432C5.81957 30.9557 5.56522 30.8503 5.3 30.8503H3.5C3.23478 30.8503 2.98043 30.9557 2.79289 31.1432C2.60536 31.3307 2.5 31.5851 2.5 31.8503C2.5 32.1155 2.60536 32.3699 2.79289 32.5574C2.98043 32.745 3.23478 32.8503 3.5 32.8503ZM3.5 38.8403H5.3C5.56522 38.8403 5.81957 38.735 6.00711 38.5474C6.19464 38.3599 6.3 38.1055 6.3 37.8403C6.3 37.5751 6.19464 37.3207 6.00711 37.1332C5.81957 36.9457 5.56522 36.8403 5.3 36.8403H3.5C3.23478 36.8403 2.98043 36.9457 2.79289 37.1332C2.60536 37.3207 2.5 37.5751 2.5 37.8403C2.5 38.1055 2.60536 38.3599 2.79289 38.5474C2.98043 38.735 3.23478 38.8403 3.5 38.8403ZM3.5 44.8303H5.3C5.56522 44.8303 5.81957 44.725 6.00711 44.5374C6.19464 44.3499 6.3 44.0955 6.3 43.8303C6.3 43.5651 6.19464 43.3107 6.00711 43.1232C5.81957 42.9357 5.56522 42.8303 5.3 42.8303H3.5C3.23478 42.8303 2.98043 42.9357 2.79289 43.1232C2.60536 43.3107 2.5 43.5651 2.5 43.8303C2.5 44.0955 2.60536 44.3499 2.79289 44.5374C2.98043 44.725 3.23478 44.8303 3.5 44.8303Z" fill="black"/>
<path d="M15.1204 21.8797C14.9908 21.9048 14.8674 21.9553 14.7574 22.0283C14.6475 22.1013 14.553 22.1954 14.4796 22.3051C14.4061 22.4148 14.3551 22.5379 14.3295 22.6674C14.3039 22.797 14.3042 22.9303 14.3304 23.0597C14.3751 23.2908 14.4999 23.4987 14.6828 23.6469C14.8657 23.795 15.095 23.8739 15.3304 23.8697H15.5204C16.1504 23.7397 30.1004 20.8697 39.8404 10.3497L39.7704 11.2797C39.7539 11.5434 39.8425 11.8029 40.0168 12.0015C40.191 12.2001 40.4368 12.3217 40.7004 12.3397H40.7704C41.0255 12.3401 41.2712 12.243 41.4571 12.0683C41.643 11.8935 41.7551 11.6543 41.7704 11.3997L42.0004 7.30965C42.0115 7.15878 41.9882 7.00736 41.9323 6.86679C41.8764 6.72622 41.7893 6.60017 41.6777 6.49812C41.566 6.39607 41.4326 6.32069 41.2876 6.27765C41.1426 6.23461 40.9897 6.22504 40.8404 6.24965L36.8404 6.90965C36.7091 6.93066 36.5832 6.97733 36.4699 7.047C36.3566 7.11667 36.2582 7.20797 36.1802 7.31568C36.1021 7.4234 36.0461 7.54542 36.0153 7.67479C35.9844 7.80416 35.9794 7.93833 36.0004 8.06965C36.0214 8.20097 36.0681 8.32687 36.1377 8.44016C36.2074 8.55344 36.2987 8.65189 36.4064 8.72989C36.5141 8.8079 36.6362 8.86392 36.7655 8.89476C36.8949 8.9256 37.0291 8.93066 37.1604 8.90965L38.6004 8.67965C29.3104 18.9997 15.2704 21.8596 15.1204 21.8797Z" fill="black"/>
</svg>
