<svg width="55" height="55" viewBox="0 0 55 55" fill="none" xmlns="http://www.w3.org/2000/svg">
<path d="M53.625 3.08976e-07H1.37332C0.614487 0.000503834 -0.000503216 0.615998 3.08976e-07 1.375V53.6265C0.000503834 54.3855 0.615998 55.0005 1.375 55H20.6267C21.3855 54.9995 22.0005 54.384 22 53.625V22H53.6267C54.3855 21.9995 55.0005 21.384 55 20.625V1.37332C54.9995 0.614487 54.384 -0.000503216 53.625 3.08976e-07ZM52.25 19.25H42.625V12.375C42.625 11.6157 42.0093 11 41.25 11C40.4907 11 39.875 11.6157 39.875 12.375V19.25H31.625V12.375C31.625 11.6157 31.0093 11 30.25 11C29.4907 11 28.875 11.6157 28.875 12.375V19.25H22V12.375C22 11.6157 21.3843 11 20.625 11C19.8657 11 19.25 11.6157 19.25 12.375V19.25H12.375C11.6157 19.25 11 19.8657 11 20.625C11 21.3843 11.6157 22 12.375 22H19.25V28.875H12.375C11.6157 28.875 11 29.4907 11 30.25C11 31.0093 11.6157 31.625 12.375 31.625H19.25V39.875H12.375C11.6157 39.875 11 40.4907 11 41.25C11 42.0093 11.6157 42.625 12.375 42.625H19.25V52.25H2.75V2.75H52.25V19.25Z" fill="black"/>
</svg>
