<svg width="59" height="56" viewBox="0 0 59 56" fill="none" xmlns="http://www.w3.org/2000/svg">
<path d="M36 19C36 28.9664 28.14 37 18.5 37C8.85999 37 1 28.9664 1 19C1 9.03357 8.85999 1 18.5 1C28.14 1 36 9.03357 36 19Z" fill="white" stroke="black" stroke-width="2"/>
<rect x="30.752" y="32.1934" width="5.49038" height="4.21123" transform="rotate(-45.7094 30.752 32.1934)" fill="black"/>
<mask id="path-3-inside-1_931_3180" fill="white">
<rect x="32.1777" y="35.5352" width="8.16818" height="29.282" rx="1" transform="rotate(-46.3378 32.1777 35.5352)"/>
</mask>
<rect x="32.1777" y="35.5352" width="8.16818" height="29.282" rx="1" transform="rotate(-46.3378 32.1777 35.5352)" fill="white" stroke="black" stroke-width="4" mask="url(#path-3-inside-1_931_3180)"/>
<path d="M12.78 21.14C12.78 20.9267 12.7 20.74 12.54 20.58C12.3867 20.4133 12.1933 20.28 11.96 20.18C11.7267 20.0733 11.47 19.9533 11.19 19.82C10.9167 19.68 10.6633 19.5367 10.43 19.39C10.1967 19.2367 10 19.0267 9.84 18.76C9.68667 18.4867 9.61 18.1733 9.61 17.82C9.61 17.28 9.80667 16.8233 10.2 16.45C10.6067 16.0767 11.1367 15.89 11.79 15.89C12.6767 15.89 13.3433 16.14 13.79 16.64L13.13 17.56C12.7767 17.2133 12.3633 17.04 11.89 17.04C11.59 17.04 11.35 17.11 11.17 17.25C10.9967 17.39 10.91 17.5767 10.91 17.81C10.91 17.93 10.9333 18.0433 10.98 18.15C11.0267 18.25 11.0767 18.3333 11.13 18.4C11.19 18.4667 11.2833 18.54 11.41 18.62C11.5433 18.7 11.6467 18.76 11.72 18.8C11.8 18.8333 11.93 18.89 12.11 18.97C12.29 19.05 12.4167 19.1067 12.49 19.14C12.7833 19.2733 13.04 19.4133 13.26 19.56C13.5067 19.7067 13.7033 19.9167 13.85 20.19C14.0033 20.4633 14.08 20.7767 14.08 21.13C14.08 21.7167 13.8567 22.1933 13.41 22.56C12.9633 22.9267 12.4067 23.11 11.74 23.11C11.2733 23.11 10.81 23.0133 10.35 22.82C9.91 22.62 9.61 22.35 9.45 22.01L10.15 21.17C10.3367 21.4167 10.5767 21.61 10.87 21.75C11.17 21.89 11.4667 21.96 11.76 21.96C12.0667 21.96 12.3133 21.8867 12.5 21.74C12.6867 21.5933 12.78 21.3933 12.78 21.14ZM19.6473 23H15.4973V16H19.5473V17.15H16.7273V18.89H19.2473V20.04H16.7273V21.85H19.6473V23ZM20.7293 19.5C20.7293 18.48 21.0693 17.6233 21.7493 16.93C22.4426 16.2367 23.316 15.89 24.3693 15.89C25.4226 15.89 26.2926 16.2233 26.9793 16.89C27.6726 17.5633 28.0193 18.4333 28.0193 19.5C28.0193 20.5467 27.6726 21.41 26.9793 22.09C26.286 22.77 25.416 23.11 24.3693 23.11C23.316 23.11 22.446 22.7767 21.7593 22.11C21.0726 21.4433 20.7293 20.5733 20.7293 19.5ZM22.0293 19.5C22.0293 20.2067 22.2526 20.7933 22.6993 21.26C23.146 21.7267 23.7026 21.96 24.3693 21.96C25.0893 21.96 25.6593 21.7267 26.0793 21.26C26.506 20.7933 26.7193 20.2067 26.7193 19.5C26.7193 18.7867 26.4926 18.1967 26.0393 17.73C25.586 17.27 25.0293 17.04 24.3693 17.04C23.696 17.04 23.136 17.27 22.6893 17.73C22.2493 18.19 22.0293 18.78 22.0293 19.5Z" fill="black"/>
</svg>
