<svg width="59" height="39" viewBox="0 0 59 39" fill="none" xmlns="http://www.w3.org/2000/svg">
<path fill-rule="evenodd" clip-rule="evenodd" d="M58.8595 31.998C58.8595 32.0134 58.868 32.0245 58.868 32.0384C58.868 32.0454 58.8637 32.0524 58.8637 32.0607C58.8651 32.0677 58.868 32.0747 58.868 32.083C58.868 32.4525 58.7199 32.8068 58.4565 33.068C58.1931 33.3292 57.8358 33.476 57.4632 33.476C57.4843 33.4746 44.9524 33.4314 44.9524 33.4314C44.5798 33.4314 44.2225 33.2847 43.9591 33.0234C43.6956 32.7622 43.5476 32.4079 43.5476 32.0384C43.5476 31.669 43.6956 31.3147 43.9591 31.0535C44.2225 30.7922 44.5798 30.6455 44.9524 30.6455H56.1146C56.1413 30.1802 56.1905 29.7233 56.1905 29.2525C56.1905 14.636 44.2402 2.78595 29.5 2.78595C14.7598 2.78595 2.80952 14.636 2.80952 29.2525C2.80952 29.7233 2.85869 30.1802 2.88398 30.6455H14.0476C14.4202 30.6455 14.7775 30.7922 15.0409 31.0535C15.3044 31.3147 15.4524 31.669 15.4524 32.0384C15.4524 32.4079 15.3044 32.7622 15.0409 33.0234C14.7775 33.2847 14.4202 33.4314 14.0476 33.4314L1.53681 33.4746C1.16424 33.4746 0.806937 33.3278 0.543493 33.0666C0.280049 32.8054 0.132048 32.4511 0.132048 32.0816C0.132048 32.0733 0.134857 32.0663 0.136262 32.0593C0.136262 32.051 0.132048 32.044 0.132048 32.037C0.132048 32.0217 0.140476 32.0106 0.140476 31.998C0.0504088 31.0855 0.00353203 30.1693 0 29.2525C0 13.0954 13.2076 0 29.5 0C45.7924 0 59 13.0954 59 29.2525C59 30.1788 58.9452 31.0926 58.8595 31.998ZM20.4014 15.501C20.6658 15.36 20.9673 15.3022 21.2656 15.3353C21.564 15.3684 21.8452 15.4908 22.0716 15.6863L22.0014 15.5707C34.3268 24.5136 36.8595 28.627 36.9059 28.7037C38.9189 31.9869 37.7221 36.1853 34.2383 38.0798C30.7545 39.9742 26.2971 38.8501 24.2855 35.5668C24.2364 35.493 21.7232 31.3684 19.6625 16.8425L19.7341 16.9567C19.6695 16.6751 19.6998 16.3802 19.8203 16.1173C19.9408 15.8544 20.1449 15.6379 20.4014 15.501ZM26.8113 34.1962C27.5909 35.4652 29.0435 36.255 30.6027 36.255C31.3648 36.2551 32.1146 36.0649 32.7829 35.702C33.2739 35.4419 33.7072 35.0867 34.0571 34.6574C34.407 34.2281 34.6664 33.7335 34.8198 33.203C34.9698 32.6837 35.0095 32.1393 34.9362 31.6041C34.8629 31.0689 34.6784 30.5546 34.3942 30.0938C34.3703 30.059 32.1859 26.7702 23.069 19.8583C24.8685 30.7444 26.7958 34.1683 26.8113 34.1962Z" fill="black"/>
</svg>
