<svg width="66" height="70" viewBox="0 0 66 70" fill="none" xmlns="http://www.w3.org/2000/svg">
<path d="M0.742169 0.0442764C0.520295 0.122278 0.328915 0.26871 0.19561 0.462468C0.0623042 0.656226 -0.00604238 0.887304 0.000419415 1.1224V46.3368C0.000419415 46.9017 0.513607 47.4149 1.07854 47.4149H5.99695L7.07508 47.4818L15.3637 55.7704C15.9459 56.4302 17.2741 55.9062 17.2504 55.0287V47.4818L24.7973 47.4149H39.891C40.1736 47.4043 40.4416 47.2872 40.6416 47.0873C40.8415 46.8874 40.9585 46.6193 40.9692 46.3368V11.9037C40.9622 11.6185 40.8469 11.3467 40.6466 11.1436C40.4463 10.9404 40.1761 10.8213 39.891 10.8104C39.606 10.8213 39.3358 10.9404 39.1355 11.1436C38.9352 11.3467 38.8198 11.6185 38.8129 11.9037V45.2587H24.7973L16.1723 45.3255C15.8898 45.3362 15.6217 45.4532 15.4218 45.6531C15.2219 45.8531 15.1048 46.1211 15.0942 46.4037V52.4002L8.28904 45.5951C8.08409 45.4158 7.81951 45.3197 7.54729 45.3255L5.99695 45.2587H2.15667V2.20053H29.1098C29.395 2.1936 29.6668 2.07824 29.8699 1.87794C30.073 1.67764 30.1921 1.40745 30.203 1.1224C30.1921 0.837349 30.073 0.567163 29.8699 0.366861C29.6668 0.166558 29.395 0.0512 29.1098 0.0442764H1.07854C0.967107 0.0267127 0.853607 0.0267127 0.742169 0.0442764ZM33.0859 0.0442764C32.864 0.122278 32.6727 0.26871 32.5394 0.462468C32.4061 0.656226 32.3377 0.887304 32.3442 1.1224V7.59115C32.3442 8.15609 32.8574 8.66928 33.4223 8.66928H39.891C40.7686 8.69084 41.2926 7.36475 40.6328 6.78256L34.164 0.313808C34.0245 0.177186 33.851 0.0802047 33.6615 0.0328339C33.4721 -0.0145368 33.2734 -0.0105873 33.0859 0.0442764ZM34.5004 3.68403L37.3316 6.51303H34.5004V3.68403ZM6.46917 6.51303V8.66928H25.8754V6.51303H6.46917ZM6.46917 12.9818V15.138H34.5004V12.9818H6.46917ZM6.46917 19.4505V21.6068H34.5004V19.4505H6.46917ZM6.46917 25.9193V28.0755H34.5004V25.9193H6.46917ZM6.46917 32.388V34.5443H34.5004V32.388H6.46917ZM6.46917 38.8568V41.013H17.2504V38.8568H6.46917ZM56.3993 55.8372L42.9917 55.9041L29.5152 55.9731C29.4699 55.9702 29.4246 55.9702 29.3793 55.9731C29.3341 55.9702 29.2887 55.9702 29.2435 55.9731C29.1076 56.0593 28.8403 56.2426 28.8403 56.2426L18.1259 61.5621C17.3884 61.9071 17.3884 63.1728 18.1259 63.5178L28.7044 68.7057L29.2435 69.0421H29.5152L43.0564 68.9753L56.2656 68.9063C56.3551 68.9175 56.4456 68.9175 56.5351 68.9063C56.5783 68.9106 56.6235 68.9106 56.6688 68.9063H60.645C63.4912 68.9063 65.7768 66.5603 65.766 63.7183V60.9583C65.7553 58.1078 63.3985 55.8265 60.5781 55.8372H56.5351C56.4899 55.8344 56.4445 55.8344 56.3993 55.8372ZM55.3902 57.9935L55.4549 61.4306L30.5933 61.3616V58.1272L42.9917 58.0625L55.3902 57.9935ZM57.5464 57.9935H60.5781C62.2276 57.9935 63.6033 59.2829 63.6098 60.9583V63.7205C63.6163 65.4045 62.3247 66.7543 60.645 66.7543H57.6133L57.5464 57.9935ZM28.437 58.8021V66.1463L21.0885 62.5108L28.437 58.8021ZM30.5933 63.52L55.4549 63.5847V66.7543L43.0564 66.819L30.5933 66.888V63.52Z" fill="black"/>
</svg>
