<svg width="68" height="37" viewBox="0 0 68 37" fill="none" xmlns="http://www.w3.org/2000/svg">
<path d="M41.3971 9.48396C41.3958 9.69143 41.3881 9.89882 41.3739 10.1058C41.3669 10.2081 41.3561 10.3102 41.3452 10.4122C41.3085 10.7581 41.3898 10.127 41.3362 10.4692C41.2691 10.8982 41.1598 11.3197 41.0254 11.7322C40.9947 11.8263 40.9606 11.9192 40.9265 12.0121C40.9063 12.0672 40.7791 12.3787 40.9108 12.0669C40.8345 12.2476 40.7483 12.424 40.6592 12.5987C40.4671 12.9749 40.2395 13.3322 39.992 13.6742C39.7979 13.9426 40.1652 13.4596 39.9588 13.7184C39.8983 13.7942 39.8351 13.8679 39.772 13.9415C39.6458 14.0887 39.5119 14.2291 39.3757 14.367C39.2394 14.505 39.096 14.6356 38.9504 14.7636C38.8776 14.8276 38.8025 14.8891 38.7274 14.9505C38.6152 15.0396 38.6265 15.0314 38.7613 14.9259C38.7095 14.9648 38.6573 15.0032 38.6046 15.0408C38.2889 15.2696 37.9533 15.4699 37.6084 15.6513C37.4348 15.7427 37.2566 15.8245 37.0769 15.9031C37.3864 15.7677 37.0777 15.8977 37.0223 15.9188C36.8989 15.9658 36.7736 16.0075 36.6482 16.0485C36.2671 16.1728 35.8751 16.2618 35.4802 16.3287C35.1391 16.3865 35.7686 16.2967 35.4233 16.3377C35.3215 16.3499 35.2194 16.3581 35.1172 16.3664C34.8758 16.386 34.6334 16.3905 34.3913 16.3889C34.1845 16.3877 33.9779 16.3748 33.7717 16.358C33.6699 16.3492 33.5682 16.3383 33.4667 16.3256C33.8132 16.3668 33.4724 16.3221 33.4113 16.3117C32.9841 16.2393 32.5649 16.1251 32.1551 15.9858C32.0615 15.954 31.9692 15.9188 31.8769 15.8836C31.5628 15.7639 32.1315 15.998 31.8243 15.8637C31.6448 15.7851 31.4696 15.6969 31.2963 15.6057C30.9227 15.4091 30.5686 15.1773 30.23 14.9258C30.4971 15.1242 30.2344 14.9263 30.1887 14.889C30.1141 14.8271 30.0405 14.764 29.968 14.6996C29.8224 14.5716 29.6836 14.436 29.5475 14.298C29.4111 14.1601 29.2823 14.015 29.1561 13.8679C29.0929 13.7942 29.0324 13.7184 28.9719 13.6425C29.1883 13.9137 28.924 13.5697 28.8861 13.516C28.6612 13.1972 28.4648 12.8588 28.2875 12.5115C28.243 12.4242 28.2016 12.3353 28.1601 12.2464C28.135 12.1925 28.0083 11.8836 28.136 12.196C28.0487 11.9822 27.9743 11.7633 27.9054 11.5429C27.7856 11.1595 27.7014 10.7656 27.6393 10.3689C27.6934 10.7143 27.6417 10.3721 27.6352 10.3104C27.6249 10.2081 27.6166 10.1057 27.6103 10.0031C27.5937 9.76092 27.5922 9.51796 27.5967 9.27538C27.6006 9.06896 27.6159 8.86299 27.6352 8.65754C27.6409 8.59637 27.6892 8.25229 27.6393 8.59905C27.6537 8.49882 27.6718 8.39926 27.69 8.29969C27.7676 7.87391 27.8867 7.45653 28.0307 7.04876C28.0635 6.95567 28.0998 6.86377 28.136 6.77194C28.0124 7.08529 28.1355 6.77633 28.1602 6.72157C28.2408 6.54305 28.331 6.369 28.4241 6.19681C28.517 6.02522 28.6189 5.85876 28.7236 5.69431C28.7759 5.61224 28.8311 5.53209 28.8862 5.45203C28.9231 5.39838 29.1854 5.05139 28.9719 5.32553C29.2104 5.0194 29.4754 4.73485 29.7542 4.46555C29.8936 4.33079 30.0401 4.20355 30.1887 4.07905C30.2335 4.04155 30.4953 3.84034 30.23 4.04215C30.3331 3.96372 30.4393 3.88953 30.5461 3.81601C30.8676 3.59448 31.2082 3.40205 31.5577 3.22868C31.6458 3.18563 31.7347 3.14418 31.8244 3.10433C32.1299 2.96623 31.5644 3.20784 31.8769 3.08439C32.0919 2.99941 32.3119 2.92768 32.5332 2.86138C32.7249 2.80401 32.9194 2.75728 33.1146 2.71412C33.213 2.69239 33.3122 2.67431 33.4114 2.65623C33.4717 2.64521 33.8134 2.59677 33.4668 2.64231C33.9111 2.5839 34.3604 2.57021 34.8079 2.5842C35.0137 2.5906 35.2188 2.60853 35.4233 2.63026C35.769 2.66702 35.1384 2.58561 35.4802 2.63926C35.58 2.65489 35.6792 2.67423 35.7782 2.69358C36.2021 2.77633 36.6172 2.90045 37.0223 3.04919C37.0774 3.06943 37.3887 3.19683 37.077 3.0649C37.1674 3.10314 37.2564 3.14467 37.3454 3.18619C37.5227 3.26886 37.6953 3.36113 37.8662 3.4563C38.0365 3.55118 38.2016 3.65505 38.3645 3.76176C38.4459 3.81504 38.5253 3.87115 38.6046 3.92725C38.6522 3.96089 38.9147 4.16217 38.6516 3.95702C38.9575 4.19558 39.242 4.46079 39.5111 4.73976C39.6459 4.87928 39.7729 5.02587 39.8974 5.17454C39.9349 5.21934 40.1359 5.48127 39.9342 5.21584C39.993 5.29323 40.0491 5.37263 40.1051 5.45203C40.33 5.77088 40.5264 6.10916 40.7036 6.45651C40.7483 6.54387 40.7897 6.63272 40.8311 6.72164C40.8562 6.77559 40.9829 7.08447 40.8552 6.77202C40.93 6.95515 40.9948 7.14229 41.0561 7.33033C41.1804 7.71169 41.2692 8.10377 41.3362 8.49897C41.394 8.84037 41.3042 8.21047 41.3452 8.55597C41.3573 8.65784 41.3656 8.76008 41.3739 8.86225C41.3907 9.06896 41.3958 9.27657 41.3971 9.48396C41.4016 10.1938 41.9857 10.7862 42.6985 10.7862C43.4047 10.7862 44.0044 10.1938 44 9.48396C43.9772 5.83145 41.8297 2.369 38.4807 0.855385C34.9796 -0.726982 30.9077 -0.0755816 28.0555 2.49163C25.3121 4.96098 24.3065 9.03838 25.4878 12.5182C26.0603 14.2045 27.1061 15.7397 28.4992 16.8526C30.0087 18.0585 31.752 18.749 33.6697 18.9529C36.3148 19.2341 38.9792 18.2375 40.9358 16.4763C42.8936 14.7141 43.9835 12.1018 43.9999 9.48396C44.0044 8.77407 43.4046 8.18175 42.6985 8.18175C41.9857 8.18175 41.4016 8.77422 41.3971 9.48396Z" fill="#D0FF48"/>
<path d="M43.4493 18.4892C43.6313 18.6044 43.8102 18.7245 43.9857 18.8493C44.0202 18.8739 44.3057 19.0916 44.0661 18.9056C44.1509 18.9715 44.2335 19.0399 44.3161 19.1085C44.674 19.4052 45.006 19.7317 45.3193 20.0741C45.464 20.2324 45.6011 20.3974 45.7353 20.5644C45.5459 20.3287 45.7666 20.6101 45.7918 20.6444C45.855 20.7312 45.9168 20.819 45.9771 20.9077C46.2419 21.2927 46.4729 21.6994 46.6811 22.1169C46.7288 22.214 46.7749 22.3119 46.8195 22.4105C46.9704 22.7398 46.7219 22.1652 46.8584 22.5014C46.9405 22.7035 47.0126 22.9094 47.0812 23.1164C47.2318 23.5707 47.3414 24.0375 47.4247 24.5082C47.4324 24.5522 47.4848 24.9216 47.4438 24.6078C47.4584 24.7196 47.4692 24.8317 47.48 24.9439C47.5019 25.1705 47.5122 25.398 47.5187 25.6255C47.522 25.7431 47.5213 25.8607 47.5213 25.9781V32.561C47.5213 32.6446 47.5186 32.6859 47.5145 32.769C47.4976 33.1125 47.5687 32.494 47.5082 32.8284C47.4905 32.9267 47.4633 33.023 47.4361 33.119C47.42 33.1759 47.2996 33.4866 47.4302 33.1802C47.3536 33.3598 47.2521 33.5277 47.1438 33.6897C46.9619 33.9617 47.321 33.4859 47.1073 33.7333C47.0227 33.8311 46.9279 33.9197 46.8322 34.0064C46.5897 34.2262 47.0564 33.8539 46.7883 34.0427C46.7085 34.099 46.6236 34.1477 46.5391 34.1964C46.4539 34.2453 46.3644 34.2862 46.2751 34.327C46.5758 34.1896 46.2737 34.314 46.2135 34.3329C46.1176 34.363 46.0191 34.3838 45.9209 34.4046C45.5861 34.4754 46.2063 34.3829 45.8611 34.4108C45.7895 34.4165 45.7166 34.4175 45.6448 34.4175H22.4697C22.3778 34.4175 22.3525 34.4152 22.261 34.4108C21.915 34.394 22.5379 34.4646 22.2012 34.4046C22.1022 34.3869 22.0053 34.3599 21.9086 34.3329C21.845 34.3141 21.782 34.2933 21.7197 34.2705C21.8767 34.3407 21.8893 34.3459 21.7574 34.2861C21.5794 34.2046 21.4137 34.099 21.2542 33.9865C21.5193 34.1733 21.2651 33.9839 21.218 33.9412C21.1461 33.8761 21.0804 33.8045 21.0148 33.7332C20.7935 33.4924 21.1685 33.9558 20.9783 33.6896C20.9216 33.6104 20.8725 33.5261 20.8235 33.4422C20.7742 33.3576 20.733 33.2687 20.6919 33.1801C20.8356 33.4898 20.6783 33.092 20.6589 33.0232C20.6316 32.9266 20.6137 32.8278 20.5959 32.7292C20.6562 33.0626 20.6058 32.7325 20.6026 32.666C20.6005 32.6229 20.6008 32.5792 20.6008 32.5359V26.2064C20.6008 25.86 20.6026 25.5147 20.6242 25.1686C20.6312 25.0555 20.6422 24.9426 20.6531 24.8299C20.6573 24.786 20.7073 24.4131 20.6625 24.7266C20.694 24.5059 20.7366 24.2868 20.7828 24.0688C20.8817 23.6028 21.0219 23.1461 21.1869 22.6992C21.2246 22.597 21.2657 22.4961 21.3068 22.3952C21.1916 22.6781 21.3325 22.3451 21.3504 22.3061C21.4407 22.1094 21.5405 21.9172 21.6435 21.7269C21.8653 21.3165 22.1224 20.9258 22.3995 20.5503C22.6124 20.2615 22.2352 20.7521 22.4602 20.4728C22.5275 20.3892 22.5975 20.3078 22.6675 20.2264C22.8074 20.0636 22.9551 19.9076 23.105 19.7542C23.255 19.6006 23.4123 19.4542 23.5719 19.3105C23.6521 19.239 23.7334 19.1688 23.8158 19.0999C23.857 19.0651 24.2193 18.7824 23.9742 18.9681C24.1746 18.8162 24.383 18.6751 24.5942 18.5385C25.187 18.1552 25.432 17.4012 25.0607 16.772C24.7156 16.187 23.8762 15.9243 23.2816 16.3087C20.0285 18.412 18 22.001 18 25.8721V31.5822C18 32.663 18.0265 33.6551 18.5312 34.6599C19.2617 36.1141 20.9012 37 22.5071 37H45.6373C47.5264 37 49.1718 35.8159 49.8454 34.0849C50.184 33.215 50.1221 32.2729 50.1221 31.3588V25.8554C50.1221 23.8561 49.5752 21.8782 48.5682 20.1492C47.6465 18.5663 46.3097 17.2399 44.7621 16.2594C44.164 15.8804 43.3305 16.1334 42.983 16.7226C42.6141 17.3476 42.8529 18.1113 43.4493 18.4892ZM61.3992 16.5637C61.3973 16.7678 61.3856 16.9717 61.3641 17.1747C61.4004 16.8319 61.3609 17.1648 61.3494 17.2276C61.3314 17.3252 61.3079 17.4218 61.2844 17.5182C61.238 17.7091 61.1754 17.8957 61.1078 18.08C60.9935 18.3917 61.2247 17.8291 61.0881 18.1305C61.0347 18.2481 60.9738 18.3622 60.9119 18.4754C60.8197 18.6447 60.7135 18.8061 60.6033 18.9643C60.4159 19.2331 60.7787 18.7539 60.5726 19.0083C60.5122 19.083 60.4476 19.1543 60.3832 19.2255C60.2543 19.3681 60.114 19.5 59.9705 19.6279C59.8987 19.6919 59.8235 19.752 59.7483 19.8121C60.0182 19.5965 59.6752 19.8533 59.6192 19.8904C59.4575 19.9972 59.2874 20.0908 59.115 20.1794C59.0284 20.224 58.9394 20.2639 58.8504 20.3037C59.1576 20.1663 58.8538 20.296 58.7963 20.3169C58.61 20.3843 58.4184 20.4359 58.2259 20.4821C58.1285 20.5054 58.0298 20.5233 57.9313 20.5412C57.7836 20.5643 57.7987 20.5631 57.9767 20.5379C57.9092 20.5456 57.8415 20.552 57.7738 20.5572C57.5679 20.5748 57.3607 20.5747 57.1543 20.5689C57.0517 20.5659 56.9495 20.5572 56.8474 20.5485C56.5026 20.5191 57.1307 20.5962 56.7917 20.5412C56.5946 20.5093 56.4006 20.4609 56.2086 20.4072C56.1135 20.3806 56.02 20.3488 55.9267 20.3169C55.8649 20.2952 55.8036 20.2724 55.7427 20.2484C55.9021 20.3172 55.9157 20.3224 55.7835 20.2638C55.606 20.1845 55.4354 20.0907 55.2679 19.9926C55.1845 19.9437 55.1038 19.8904 55.0231 19.8372C54.9741 19.8048 54.7107 19.609 54.9746 19.8121C54.6439 19.5576 54.3516 19.2567 54.0898 18.9336C54.2983 19.1909 54.0989 18.9346 54.0646 18.8854C54.0095 18.8064 53.9588 18.7244 53.9081 18.6425C53.8061 18.4779 53.718 18.3052 53.6349 18.1306C53.4926 17.8317 53.7352 18.3896 53.6151 18.0801C53.5796 17.9888 53.5493 17.8957 53.5191 17.8025C53.4477 17.5827 53.3972 17.3567 53.3555 17.1296C53.2938 16.7939 53.3844 17.4159 53.3482 17.0742C53.3374 16.9729 53.3326 16.8712 53.3277 16.7695C53.3178 16.5645 53.3256 16.3591 53.3394 16.1545C53.3436 16.0927 53.3891 15.7526 53.3392 16.0968C53.3535 15.9981 53.3735 15.9002 53.3934 15.8025C53.4393 15.5771 53.5064 15.3566 53.5814 15.1393C53.6009 15.083 53.728 14.7767 53.5948 15.0856C53.6332 14.9965 53.6766 14.9096 53.7199 14.8228C53.806 14.6501 53.9064 14.4846 54.0111 14.3222C54.0632 14.2413 54.1197 14.1633 54.1762 14.0854C53.9829 14.3522 54.1729 14.0927 54.2122 14.0458C54.3564 13.8742 54.516 13.7159 54.6806 13.5638C54.7513 13.4985 54.8254 13.437 54.8995 13.3757C55.0111 13.2869 54.9997 13.2955 54.8652 13.4013C54.9172 13.3634 54.9699 13.3265 55.0232 13.2906C55.2095 13.1626 55.407 13.0516 55.6079 12.9482C55.6946 12.9036 55.7836 12.8638 55.8726 12.824C55.5527 12.9671 55.955 12.8011 56.0199 12.779C56.2712 12.6933 56.5306 12.6338 56.7917 12.5864C57.1297 12.5251 56.5033 12.6151 56.8474 12.5792C56.9837 12.565 57.1208 12.5598 57.2576 12.5559C57.4978 12.5491 57.7381 12.5648 57.9768 12.5898C57.6316 12.5538 57.9668 12.5929 58.0302 12.6044C58.1611 12.6281 58.2903 12.6604 58.4189 12.6938C58.5464 12.7269 58.6716 12.7683 58.7963 12.8107C58.858 12.8324 58.9193 12.8552 58.9802 12.8792C58.8208 12.8104 58.8072 12.8054 58.9394 12.8639C59.1464 12.9564 59.3443 13.0676 59.5376 13.1855C59.62 13.2358 59.6998 13.2905 59.7793 13.3453C59.8947 13.4294 59.8843 13.4195 59.7483 13.3156C59.7988 13.3552 59.8486 13.3957 59.8976 13.4371C60.0705 13.5804 60.2299 13.7387 60.3832 13.9022C60.4709 13.9958 60.5524 14.0946 60.6331 14.1942C60.4159 13.9262 60.6746 14.2667 60.7119 14.3223C60.8376 14.5098 60.9458 14.7081 61.0464 14.9096C61.0733 14.9638 61.1997 15.2668 61.0726 14.9567C61.1221 15.0775 61.1635 15.2012 61.2039 15.3252C61.2753 15.5451 61.3258 15.7711 61.3674 15.9982C61.3907 16.1449 61.3895 16.1298 61.3642 15.953C61.3719 16.0201 61.3783 16.0873 61.3836 16.1546C61.3953 16.2905 61.3979 16.4272 61.3992 16.5637C61.4059 17.2675 61.9856 17.8549 62.6996 17.8549C63.4033 17.8549 64.0067 17.2676 63.9999 16.5637C63.9819 14.683 63.1758 12.848 61.7366 11.6109C60.1812 10.2739 58.2146 9.7926 56.1998 10.0801C54.3468 10.3444 52.7059 11.5595 51.7132 13.0997C50.6838 14.6969 50.4588 16.7881 51.0417 18.5822C51.5275 20.0775 52.5459 21.3289 53.8729 22.1719C55.2631 23.0553 56.9169 23.2766 58.5232 23.0473C61.6781 22.5971 63.9704 19.6449 63.9999 16.5637C64.0067 15.8599 63.4033 15.2726 62.6996 15.2726C61.9856 15.2726 61.4059 15.86 61.3992 16.5637Z" fill="white"/>
<path d="M63.0036 22.8825C63.0933 22.94 63.182 22.999 63.2697 23.0594C63.3061 23.0844 63.5866 23.3005 63.3482 23.1125C63.5149 23.244 63.6718 23.3874 63.8249 23.5343C63.9779 23.6812 64.1202 23.8391 64.2583 24.0001C64.2872 24.0339 64.5015 24.3145 64.3195 24.0722C64.4046 24.1856 64.4833 24.3038 64.561 24.4224C64.678 24.6013 64.7815 24.7883 64.8803 24.9776C64.9299 25.0726 64.9748 25.1701 65.0196 25.2675C64.8914 24.9889 65.0368 25.3147 65.0532 25.3577C65.1308 25.5607 65.193 25.7693 65.2497 25.979C65.2784 26.0849 65.3016 26.1921 65.3249 26.2992C65.3372 26.3561 65.4099 26.824 65.3684 26.5026C65.4894 27.4388 65.4156 28.4243 65.4156 29.365V31.6595C65.4156 31.7275 65.4123 31.7952 65.4056 31.8628C65.4314 31.6853 65.4298 31.6688 65.401 31.8135C65.3867 31.8775 65.2685 32.1755 65.4014 31.8717C65.3629 31.9598 65.3121 32.042 65.2616 32.1236C65.0941 32.3946 65.4408 31.9268 65.2267 32.1614C65.1831 32.2091 64.9393 32.4065 65.2005 32.2096C65.1237 32.2674 65.0395 32.3142 64.9557 32.3606C64.6747 32.5164 65.2135 32.2761 64.9057 32.3769C64.8401 32.3984 64.521 32.4494 64.8604 32.4076C64.7987 32.4152 64.7163 32.4176 64.6544 32.4176H53.1615C52.4571 32.4176 51.8694 33.0049 51.8694 33.7088C51.8694 34.4127 52.4571 35 53.1615 35H63.9994C64.91 35 65.8122 34.9618 66.5811 34.382C67.4517 33.7256 68 32.762 68 31.6531V27.5082C68 25.8836 67.5927 24.297 66.6747 22.9419C66.0489 22.0185 65.2463 21.2547 64.3082 20.6529C63.7148 20.2723 62.8849 20.5283 62.5403 21.1161C62.1729 21.7424 62.4121 22.5031 63.0036 22.8825ZM14.8608 16.5639C14.8589 16.768 14.8473 16.9719 14.8259 17.1748C14.862 16.8321 14.8228 17.1649 14.8113 17.2278C14.7935 17.3254 14.7701 17.4219 14.7468 17.5184C14.7007 17.7092 14.6385 17.8959 14.5713 18.0802C14.4577 18.3919 14.6875 17.8293 14.5516 18.1307C14.4986 18.2483 14.4381 18.3624 14.3767 18.4756C14.2849 18.6449 14.1795 18.8063 14.0699 18.9645C13.8837 19.2333 14.2443 18.7541 14.0395 19.0085C13.9794 19.0832 13.9153 19.1545 13.8513 19.2257C13.7232 19.3684 13.5838 19.5003 13.4412 19.6281C13.3698 19.6921 13.2951 19.7523 13.2204 19.8123C13.4886 19.5967 13.1477 19.8536 13.0921 19.8906C12.9314 19.9974 12.7623 20.091 12.5911 20.1797C12.505 20.2242 12.4165 20.2642 12.3281 20.3039C12.6334 20.1665 12.3316 20.2963 12.2743 20.3171C12.0893 20.3845 11.8989 20.4362 11.7076 20.4823C11.6108 20.5057 11.5128 20.5236 11.4149 20.5414C11.2681 20.5645 11.2832 20.5634 11.4601 20.5382C11.393 20.5459 11.3257 20.5522 11.2584 20.5575C11.0537 20.575 10.8479 20.5749 10.6429 20.5691C10.541 20.5662 10.4394 20.5575 10.3379 20.5487C9.99524 20.5194 10.6194 20.5964 10.2825 20.5414C10.0867 20.5096 9.89394 20.4612 9.70314 20.4075C9.6087 20.3809 9.51582 20.349 9.42308 20.3171C9.36169 20.2955 9.30071 20.2726 9.24018 20.2487C9.39864 20.3174 9.41222 20.3226 9.28072 20.2641C9.10432 20.1847 8.93486 20.0909 8.76843 19.9929C8.68551 19.9439 8.60533 19.8906 8.52529 19.8374C8.47655 19.805 8.21473 19.6092 8.477 19.8124C8.14842 19.5578 7.85802 19.2569 7.59781 18.9338C7.805 19.1911 7.6069 18.9348 7.57286 18.8857C7.51807 18.8066 7.46764 18.7246 7.41728 18.6427C7.31598 18.4781 7.22841 18.3054 7.14585 18.1308C7.00446 17.8319 7.24554 18.3898 7.12614 18.0803C7.09092 17.989 7.06087 17.8958 7.03082 17.8027C6.95986 17.5829 6.90972 17.3569 6.86823 17.1297C6.80687 16.7941 6.89695 17.4161 6.86092 17.0744C6.85028 16.9731 6.84541 16.8714 6.84061 16.7697C6.83079 16.5646 6.83862 16.3592 6.85228 16.1546C6.85641 16.0929 6.9016 15.7527 6.85213 16.097C6.86631 15.9982 6.88609 15.9004 6.90596 15.8026C6.95151 15.5773 7.01819 15.3567 7.09277 15.1394C7.11211 15.0831 7.23845 14.7768 7.10598 15.0857C7.14416 14.9967 7.18728 14.9097 7.23025 14.823C7.31598 14.6502 7.41566 14.4847 7.51955 14.3223C7.57138 14.2414 7.62757 14.1634 7.68369 14.0855C7.49164 14.3523 7.68036 14.0928 7.7195 14.0459C7.86282 13.8743 8.02135 13.716 8.18497 13.5638C8.25519 13.4985 8.32881 13.4371 8.40242 13.3758C8.51333 13.287 8.50196 13.2956 8.36838 13.4014C8.42003 13.3635 8.47237 13.3266 8.52536 13.2907C8.71047 13.1627 8.90673 13.0517 9.10639 12.9483C9.19248 12.9037 9.28094 12.8639 9.36932 12.8241C9.05138 12.9672 9.45121 12.8012 9.51567 12.7791C9.76531 12.6934 10.0232 12.6339 10.2825 12.5865C10.6184 12.5252 9.99598 12.6152 10.3379 12.5793C10.4733 12.565 10.6096 12.5599 10.7456 12.556C10.9842 12.5492 11.2229 12.5649 11.4602 12.5898C11.1172 12.5538 11.4503 12.5929 11.5132 12.6044C11.6433 12.6281 11.7716 12.6604 11.8995 12.6939C12.0262 12.727 12.1506 12.7684 12.2745 12.8108C12.3359 12.8325 12.3968 12.8553 12.4574 12.8793C12.2989 12.8105 12.2853 12.8054 12.4168 12.8639C12.6225 12.9565 12.8192 13.0676 13.0111 13.1856C13.0931 13.2359 13.1723 13.2906 13.2513 13.3454C13.3659 13.4295 13.3557 13.4196 13.2205 13.3157C13.2707 13.3553 13.3202 13.3958 13.3689 13.4372C13.5406 13.5804 13.6992 13.7388 13.8514 13.9023C13.9385 13.9958 14.0196 14.0947 14.0998 14.1943C13.884 13.9263 14.1411 14.2668 14.1781 14.3224C14.303 14.5099 14.4105 14.7082 14.5104 14.9097C14.5373 14.9639 14.6627 15.2669 14.5365 14.9568C14.5856 15.0776 14.6269 15.2013 14.6669 15.3254C14.7378 15.5452 14.788 15.7712 14.8295 15.9983C14.8525 16.145 14.8513 16.13 14.8261 15.9532C14.8338 16.0203 14.8402 16.0874 14.8454 16.1548C14.8569 16.2907 14.8594 16.4274 14.8608 16.5639C14.8675 17.2676 15.4435 17.8551 16.1529 17.8551C16.8522 17.8551 17.4518 17.2678 17.4451 16.5639C17.4271 14.6831 16.6261 12.8481 15.1961 11.6109C13.6506 10.2739 11.6963 9.7926 9.69428 10.0801C7.85307 10.3444 6.22259 11.5595 5.2362 13.0998C4.21332 14.697 3.98974 16.7883 4.56893 18.5824C5.05168 20.0778 6.06362 21.3292 7.38213 22.1722C8.76363 23.0556 10.407 23.2769 12.0031 23.0477C15.138 22.5974 17.4158 19.6451 17.4452 16.5639C17.4519 15.86 16.8523 15.2727 16.153 15.2727C15.4434 15.2727 14.8675 15.8601 14.8608 16.5639ZM14.843 32.4173H3.39712C3.28925 32.4173 2.97285 32.3695 3.28976 32.4243C3.19282 32.4075 3.09904 32.3768 3.00586 32.3463C3.30579 32.4445 3.0334 32.352 2.96451 32.3138C2.90396 32.2803 2.66731 32.0869 2.91563 32.2929C2.85826 32.2453 2.59274 31.9323 2.79683 32.2024C2.73894 32.1257 2.6922 32.0416 2.64575 31.9579C2.48988 31.6771 2.7303 32.2155 2.62944 31.9079C2.60795 31.8424 2.55693 31.5234 2.59872 31.8626C2.59163 31.805 2.58875 31.7154 2.58875 31.6577V27.2912C2.58875 27.063 2.60241 26.8358 2.62405 26.6088C2.65956 26.236 2.57886 26.8749 2.63955 26.5081C2.65764 26.3986 2.68134 26.2901 2.70505 26.1816C2.75201 25.967 2.81528 25.7561 2.88373 25.5475C2.9177 25.444 2.95691 25.3423 2.99604 25.2407C2.88521 25.5284 3.06065 25.1056 3.08538 25.0544C3.17923 24.8607 3.28748 24.6742 3.4 24.4908C3.45612 24.3995 3.51667 24.3108 3.57721 24.2223C3.60129 24.187 3.81719 23.9031 3.63104 24.1404C3.91709 23.7758 4.24973 23.4497 4.60547 23.1537C4.87934 22.9257 4.39541 23.3052 4.68382 23.0954C4.7705 23.0324 4.86029 22.9736 4.94993 22.9149C5.53782 22.5299 5.78318 21.7789 5.41348 21.1482C5.07132 20.5646 4.23533 20.2988 3.64559 20.6851C1.93883 21.8026 0.684777 23.5006 0.212956 25.4952C-0.04806 26.5984 0.00429081 27.7336 0.00429081 28.8571V31.6448C0.00429081 33.4971 1.54336 34.9999 3.38664 34.9999H14.8428C15.5472 34.9999 16.135 34.4125 16.135 33.7086C16.135 33.0047 15.5474 32.4173 14.843 32.4173Z" fill="white"/>
</svg>
