<svg width="56" height="56" viewBox="0 0 56 56" fill="none" xmlns="http://www.w3.org/2000/svg">
<path d="M2.125 12.5202V7C2.125 4.23858 4.36358 2 7.125 2H12.5851" stroke="white" stroke-width="3" stroke-linecap="square"/>
<path d="M2.00391 43.4798V49C2.00391 51.7614 4.24248 54 7.00391 54H12.464" stroke="white" stroke-width="3" stroke-linecap="square"/>
<path d="M54.0625 7V7C54.0625 4.23858 51.8239 2 49.0625 2H43.6024" stroke="white" stroke-width="3" stroke-linecap="square"/>
<path d="M54.0625 49V49C54.0625 51.7614 51.8239 54 49.0625 54H43.6024" stroke="white" stroke-width="3" stroke-linecap="square"/>
<path d="M5.00086 27.9681C18.501 15.5 36.7992 16.3185 50.1744 27.9682" stroke="white" stroke-width="3" stroke-linecap="square"/>
<path d="M6.50072 29.5013C20.1016 42.3392 40.2305 40.5186 50.8608 28.5826" stroke="white" stroke-width="3" stroke-linecap="square"/>
<circle cx="28.5584" cy="28.5584" r="8.05838" stroke="white" stroke-width="3"/>
<circle cx="28.5002" cy="28.6193" r="4.32832" fill="#D0FF48"/>
</svg>
