<svg width="105" height="105" viewBox="0 0 105 105" fill="none" xmlns="http://www.w3.org/2000/svg">
<path d="M29.8019 65.7108L40.6205 28.9336C41.4028 26.2742 44.1994 24.7588 46.8545 25.5557L71.6552 32.9987C74.3001 33.7924 75.8007 36.58 75.007 39.2249L63.9878 75.9419C63.194 78.5867 60.4064 80.0874 57.7616 79.2936L33.1614 71.9108C30.5268 71.1201 29.0256 68.3497 29.8019 65.7108Z" stroke="white" stroke-width="2" stroke-linecap="square"/>
<path d="M63.7487 38.3946L52.3002 34.9588C51.5098 34.7216 50.6769 35.17 50.4397 35.9604V35.9604C50.2025 36.7507 50.6509 37.5837 51.4412 37.8209L62.8897 41.2567" stroke="#D0FF48" stroke-width="2" stroke-linecap="square"/>
<path d="M42.459 41.752L66.787 49.0531" stroke="white" stroke-width="2" stroke-linecap="round"/>
<path d="M37.3047 58.9277L61.6327 66.2289" stroke="white" stroke-width="2" stroke-linecap="round"/>
<path d="M40.7422 47.4785L65.0702 54.7796" stroke="white" stroke-width="2" stroke-linecap="round"/>
<path d="M35.5879 64.6504L59.9159 71.9515" stroke="white" stroke-width="2" stroke-linecap="round"/>
<path d="M39.0234 53.2031L63.3514 60.5042" stroke="white" stroke-width="2" stroke-linecap="round"/>
<path d="M69.7012 33.4766L69.1863 35.4721C68.7853 37.0261 69.6784 38.6204 71.213 39.0902L74.1255 39.9818" stroke="white" stroke-width="2" stroke-linecap="round"/>
<path d="M24.2723 67.0241L24.0628 28.6892C24.0477 25.9172 26.2906 23.6619 29.0627 23.6619L54.9563 23.6619C57.7177 23.6619 59.9563 25.9005 59.9563 28.6619L59.9563 66.9967C59.9563 69.7582 57.7177 71.9967 54.9563 71.9967L29.2722 71.9967C26.5215 71.9967 24.2873 69.7748 24.2723 67.0241Z" fill="#343434" stroke="white" stroke-width="2" stroke-linecap="square"/>
<path d="M49.7282 31.3203L34.1523 31.3203C33.6001 31.3203 33.1523 31.768 33.1523 32.3203V33.083C33.1523 33.6352 33.6001 34.083 34.1523 34.083L49.7282 34.083" stroke="#D0FF48" stroke-width="2" stroke-linecap="square"/>
<path d="M29.5098 40.4395H54.9097" stroke="white" stroke-width="2" stroke-linecap="round"/>
<path d="M29.5098 58.3672H54.9097" stroke="white" stroke-width="2" stroke-linecap="round"/>
<path d="M29.5098 46.416H54.9097" stroke="white" stroke-width="2" stroke-linecap="round"/>
<path d="M29.5098 64.3457H54.9097" stroke="white" stroke-width="2" stroke-linecap="round"/>
<path d="M29.5098 52.3926H54.9097" stroke="white" stroke-width="2" stroke-linecap="round"/>
<path d="M53.416 24.4141V26.6069C53.416 28.2638 54.7592 29.6069 56.416 29.6069H59.3982" stroke="white" stroke-width="2" stroke-linecap="round"/>
</svg>
