<svg width="78" height="38" viewBox="0 0 78 38" fill="none" xmlns="http://www.w3.org/2000/svg">
<path d="M3 16.5C1.61929 16.5 0.5 17.6193 0.5 19C0.5 20.3807 1.61929 21.5 3 21.5V16.5ZM76.7678 20.7678C77.7441 19.7915 77.7441 18.2085 76.7678 17.2322L60.8579 1.32233C59.8816 0.34602 58.2986 0.34602 57.3223 1.32233C56.346 2.29864 56.346 3.88155 57.3223 4.85786L71.4645 19L57.3223 33.1421C56.346 34.1184 56.346 35.7014 57.3223 36.6777C58.2986 37.654 59.8816 37.654 60.8579 36.6777L76.7678 20.7678ZM3 21.5H75V16.5H3V21.5Z" fill="#C6FF00"/>
</svg>
