<svg width="60" height="77" viewBox="0 0 60 77" fill="none" xmlns="http://www.w3.org/2000/svg">
<path d="M18.9005 56.7169C15.3257 54.261 12.645 50.7107 11.2617 46.6001C9.87834 42.4895 9.8672 38.0408 11.2299 33.9233C12.5926 29.8058 15.2555 26.2422 18.8179 23.7684C22.3804 21.2946 26.6498 20.0445 30.9839 20.2061C35.3181 20.3677 39.4825 21.9323 42.8509 24.6645C46.2192 27.3967 48.6093 31.1487 49.6616 35.3563C50.7139 39.5638 50.3715 43.9993 48.6859 47.9955C47.0004 51.9917 44.0627 55.3325 40.315 57.5153L39.8248 56.6738C43.3903 54.5971 46.185 51.4188 47.7886 47.617C49.3922 43.8152 49.7179 39.5954 48.7168 35.5926C47.7157 31.5897 45.4418 28.0201 42.2373 25.4208C39.0328 22.8215 35.0709 21.3331 30.9476 21.1793C26.8243 21.0256 22.7626 22.2149 19.3734 24.5683C15.9843 26.9218 13.4509 30.3121 12.1545 34.2293C10.8581 38.1465 10.8687 42.3788 12.1847 46.2894C13.5007 50.2001 16.051 53.5777 19.4519 55.9141L18.9005 56.7169Z" fill="black"/>
<path d="M32.897 31.5737L26.5286 40.2363C26.0431 40.8967 26.5146 41.8286 27.3343 41.8286L31.6482 41.8286C32.4826 41.8286 32.95 42.7902 32.4345 43.4464L26.7159 50.7256" stroke="#C6FF00" stroke-width="2" stroke-linecap="round"/>
<line x1="19.4698" y1="63.6707" x2="38.8715" y2="62.5294" stroke="black" stroke-linecap="round"/>
<line x1="19.4698" y1="66.6707" x2="38.8715" y2="65.5294" stroke="black" stroke-linecap="round"/>
<line x1="19.4698" y1="69.6707" x2="38.8715" y2="68.5294" stroke="black" stroke-linecap="round"/>
<line x1="50.0247" y1="20.4413" x2="59.6247" y2="9.64126" stroke="black"/>
<line y1="-0.5" x2="14.4499" y2="-0.5" transform="matrix(-0.664364 -0.747409 -0.747409 0.664364 9.60156 20.7734)" stroke="black"/>
<line x1="28.5" y1="15" x2="28.5" stroke="black"/>
<path d="M19.0469 56.2715C21.5469 57.2715 20.4991 61.0817 20.4991 69.4996C20.4991 77.9175 36.3033 78.8477 37.2511 69.2273C38.1989 59.6068 37.9989 58.303 40.9989 56.4991" stroke="black"/>
</svg>
