<svg width="95" height="66" viewBox="0 0 95 66" fill="none" xmlns="http://www.w3.org/2000/svg">
<path d="M94.2995 5.30434C94.5206 5.13894 94.5658 4.82559 94.4004 4.60447L91.705 1.00104C91.5396 0.779918 91.2262 0.734749 91.0051 0.900153C90.784 1.06556 90.7388 1.3789 90.9042 1.60003L93.3001 4.80307L90.0971 7.19901C89.876 7.36441 89.8308 7.67775 89.9962 7.89888C90.1616 8.12 90.4749 8.16517 90.6961 7.99977L94.2995 5.30434ZM94.0713 4.40908C77.8763 2.0745 67.3741 4.425 59.9111 9.31104C52.4643 14.1864 48.1225 21.5394 44.1553 29.0113C40.1695 36.5181 36.5708 44.1174 30.6171 49.7388C24.6999 55.3258 16.4211 58.9808 3.01983 58.4488L2.98017 59.448C16.6106 59.9891 25.1637 56.2632 31.3037 50.4659C37.4072 44.703 41.0912 36.9145 45.0385 29.4802C49.0044 22.011 53.2462 14.8697 60.4588 10.1477C67.655 5.43637 77.8879 3.08651 93.9287 5.39885L94.0713 4.40908Z" fill="black"/>
<path d="M91.2992 60.7013C91.5204 60.8665 91.5659 61.1798 91.4006 61.4011L88.7082 65.0067C88.543 65.228 88.2297 65.2734 88.0084 65.1082C87.7872 64.943 87.7417 64.6297 87.907 64.4084L90.3002 61.2034L87.0952 58.8101C86.8739 58.6449 86.8285 58.3316 86.9937 58.1103C87.1589 57.8891 87.4722 57.8436 87.6935 58.0089L91.2992 60.7013ZM91.0718 61.5967C75.1526 63.9051 66.6137 64.7876 62.2225 64.4188C60.0497 64.2363 58.7006 63.7362 58.0628 62.7489C57.7428 62.2537 57.6389 61.6892 57.651 61.1012C57.6631 60.5189 57.7897 59.8833 57.9596 59.2181C58.6485 56.522 60.1001 53.0356 59.1631 48.7239C58.233 44.4436 54.9069 39.2651 45.7314 33.4217L46.2686 32.5783C55.5667 38.4997 59.1321 43.8721 60.1403 48.5115C61.1417 53.1195 59.5785 56.9216 58.9285 59.4656C58.7638 60.1104 58.6604 60.6567 58.6508 61.1219C58.6413 61.5813 58.7241 61.9297 58.9028 62.2063C59.2622 62.7627 60.1579 63.2419 62.3062 63.4223C66.5574 63.7793 74.9658 62.9218 90.9282 60.6071L91.0718 61.5967Z" fill="black"/>
<path d="M41 29C23.6506 17.5475 27.506 7.73344 1 10.4595" stroke="black"/>
</svg>
