<svg width="60" height="51" viewBox="0 0 60 51" fill="none" xmlns="http://www.w3.org/2000/svg">
<path d="M1 39.9999V8.50042C1 -1.00054 17.5 -1.29045 17.5 8.50012V41.5003" stroke="white" stroke-width="1.5"/>
<line x1="23.4922" y1="20.4668" x2="54.0002" y2="20.4668" stroke="#C6FF00" stroke-linecap="round"/>
<line x1="23.4922" y1="26.0977" x2="54.0002" y2="26.0977" stroke="white" stroke-linecap="round"/>
<line x1="23.4922" y1="31.7305" x2="54.0002" y2="31.7305" stroke="white" stroke-linecap="round"/>
<line x1="23.4922" y1="37.3594" x2="54.0002" y2="37.3594" stroke="white" stroke-linecap="round"/>
<path d="M9 50H59V9H17" stroke="white" stroke-width="2"/>
<path d="M9 51C7.21997 51 5.47991 50.4428 3.99987 49.399C2.51982 48.3551 1.36627 46.8714 0.685083 45.1355C0.00389481 43.3996 -0.174334 41.4895 0.172932 39.6466C0.520199 37.8038 1.37737 36.1111 2.63604 34.7825C3.89471 33.4539 5.49836 32.5491 7.24419 32.1825C8.99002 31.816 10.7996 32.0041 12.4442 32.7231C14.0887 33.4422 15.4943 34.6598 16.4832 36.2221C17.4722 37.7844 18 39.6211 18 41.5H16.0995C16.0995 40.0179 15.6831 38.569 14.903 37.3366C14.1229 36.1043 13.0141 35.1438 11.7168 34.5766C10.4196 34.0094 8.99212 33.861 7.61497 34.1501C6.23781 34.4393 4.97281 35.153 3.97993 36.201C2.98705 37.2491 2.31089 38.5844 2.03696 40.038C1.76303 41.4917 1.90362 42.9985 2.44096 44.3678C2.9783 45.7371 3.88826 46.9075 5.05576 47.7309C6.22325 48.5544 7.59586 48.9939 9 48.9939V51Z" fill="white"/>
</svg>
