<svg width="62" height="60" viewBox="0 0 62 60" fill="none" xmlns="http://www.w3.org/2000/svg">
<mask id="path-1-inside-1_901_2971" fill="white">
<path d="M55 32.5C55 38.3843 53.1126 44.1134 49.6151 48.8455C46.1176 53.5775 41.1944 57.0629 35.5692 58.7895C29.9439 60.5161 23.9131 60.3928 18.3631 58.4378C12.8131 56.4827 8.03656 52.799 4.73538 47.928C1.4342 43.0569 -0.217512 37.2554 0.0229767 31.3761C0.263466 25.4967 2.38347 19.8495 6.07145 15.2644C9.75943 10.6792 14.8209 7.39791 20.512 5.90267C26.2032 4.40742 32.2238 4.77708 37.6893 6.95733L29.8874 26.5153C28.6068 26.0044 27.1961 25.9178 25.8627 26.2682C24.5292 26.6185 23.3433 27.3873 22.4792 28.4616C21.6151 29.5359 21.1184 30.8591 21.062 32.2367C21.0057 33.6142 21.3927 34.9735 22.1662 36.1148C22.9396 37.2561 24.0588 38.1192 25.3592 38.5773C26.6596 39.0354 28.0726 39.0643 29.3906 38.6597C30.7087 38.2552 31.8622 37.4385 32.6816 36.3298C33.5011 35.2211 33.9433 33.8787 33.9433 32.5H55Z"/>
</mask>
<path d="M55 32.5C55 38.3843 53.1126 44.1134 49.6151 48.8455C46.1176 53.5775 41.1944 57.0629 35.5692 58.7895C29.9439 60.5161 23.9131 60.3928 18.3631 58.4378C12.8131 56.4827 8.03656 52.799 4.73538 47.928C1.4342 43.0569 -0.217512 37.2554 0.0229767 31.3761C0.263466 25.4967 2.38347 19.8495 6.07145 15.2644C9.75943 10.6792 14.8209 7.39791 20.512 5.90267C26.2032 4.40742 32.2238 4.77708 37.6893 6.95733L29.8874 26.5153C28.6068 26.0044 27.1961 25.9178 25.8627 26.2682C24.5292 26.6185 23.3433 27.3873 22.4792 28.4616C21.6151 29.5359 21.1184 30.8591 21.062 32.2367C21.0057 33.6142 21.3927 34.9735 22.1662 36.1148C22.9396 37.2561 24.0588 38.1192 25.3592 38.5773C26.6596 39.0354 28.0726 39.0643 29.3906 38.6597C30.7087 38.2552 31.8622 37.4385 32.6816 36.3298C33.5011 35.2211 33.9433 33.8787 33.9433 32.5H55Z" stroke="white" stroke-width="4" mask="url(#path-1-inside-1_901_2971)"/>
<path d="M59.5825 24.721C58.8229 20.4158 57.0479 16.3537 54.4046 12.8716C51.7613 9.38954 48.3259 6.58782 44.3834 4.69882L34.7829 24.7359C35.5401 25.0987 36.1999 25.6368 36.7076 26.3056C37.2153 26.9744 37.5562 27.7545 37.7021 28.5814L59.5825 24.721Z" fill="#C6FF00"/>
</svg>
