<svg width="89" height="64" viewBox="0 0 89 64" fill="none" xmlns="http://www.w3.org/2000/svg">
<path d="M15.1016 34.7969L1.00064 20.9992" stroke="#434343" stroke-linecap="round"/>
<path d="M1 34.7969L15.1009 20.9992" stroke="#434343" stroke-linecap="round"/>
<path d="M37.1016 14.7969L23.0006 0.999203" stroke="#434343" stroke-linecap="round"/>
<path d="M23 14.7969L37.1009 0.999203" stroke="#434343" stroke-linecap="round"/>
<path d="M48.1016 62.7969L34.0006 48.9992" stroke="#434343" stroke-linecap="round"/>
<path d="M34 62.7969L48.1009 48.9992" stroke="#434343" stroke-linecap="round"/>
<path d="M18.5 55.5C18.5 57.1569 17.1569 58.5 15.5 58.5C13.8431 58.5 12.5 57.1569 12.5 55.5C12.5 53.8431 13.8431 52.5 15.5 52.5C17.1569 52.5 18.5 53.8431 18.5 55.5Z" stroke="#C6FF00"/>
<path d="M72.3535 24.7234C72.5488 24.5281 72.5488 24.2116 72.3536 24.0163L69.1716 20.8343C68.9763 20.639 68.6598 20.639 68.4645 20.8343C68.2692 21.0295 68.2692 21.3461 68.4645 21.5414L71.2929 24.3698L68.4644 27.1982C68.2692 27.3935 68.2692 27.7101 68.4644 27.9054C68.6597 28.1006 68.9763 28.1006 69.1715 27.9054L72.3535 24.7234ZM17.4044 53.294C23.6774 44.6653 27.2786 38.5545 29.8883 34.2569C32.5163 29.929 34.0848 27.5472 36.2952 26.1966C38.4947 24.8528 41.3981 24.4936 46.8402 24.5001C49.5493 24.5033 52.8546 24.5955 56.9827 24.6873C61.1074 24.7789 66.0433 24.8698 72 24.8699L72 23.8699C66.0537 23.8698 61.1261 23.7791 57.0049 23.6875C52.8871 23.596 49.5644 23.5034 46.8414 23.5001C41.4195 23.4936 38.2432 23.8346 35.7738 25.3433C33.3154 26.8454 31.6259 29.4687 29.0336 33.7378C26.4229 38.0371 22.8412 44.115 16.5956 52.706L17.4044 53.294Z" fill="#C6FF00"/>
<path d="M47.3197 16.4076C46.8101 16.2056 46.5585 15.6275 46.7838 15.1277C48.6838 10.913 51.8971 7.41428 55.9558 5.16403C60.3045 2.75301 65.3546 1.92442 70.2457 2.81945C75.1368 3.71448 79.5663 6.27775 82.7794 10.0725C85.9924 13.8673 87.7903 18.6587 87.8667 23.6305C87.9431 28.6022 86.2932 33.4466 83.1982 37.3383C80.1032 41.2299 75.7546 43.9281 70.8933 44.9729C66.032 46.0178 60.9588 45.3447 56.5381 43.0684C52.4122 40.9439 49.0929 37.5455 47.0644 33.3911C46.8239 32.8985 47.0575 32.3129 47.5607 32.0954V32.0954C48.064 31.8778 48.646 32.1108 48.8889 32.6023C50.7335 36.3355 53.7295 39.3891 57.447 41.3033C61.4593 43.3693 66.0638 43.9802 70.4761 43.0319C74.8883 42.0835 78.8352 39.6347 81.6443 36.1025C84.4534 32.5703 85.9509 28.1734 85.8816 23.661C85.8123 19.1485 84.1804 14.7997 81.2642 11.3554C78.3479 7.91123 74.3276 5.58475 69.8883 4.7724C65.4491 3.96005 60.8654 4.71209 56.9185 6.90039C53.2615 8.92788 50.3608 12.0721 48.6317 15.8601C48.404 16.3589 47.8294 16.6096 47.3197 16.4076V16.4076Z" fill="#494949"/>
</svg>
