<svg width="310" height="148" viewBox="0 0 310 148" fill="none" xmlns="http://www.w3.org/2000/svg">
<circle cx="12" cy="130" r="2" fill="#464646"/>
<circle cx="2" cy="2" r="2" transform="matrix(-4.37114e-08 -1 -1 4.37114e-08 286 148)" fill="#464646"/>
<circle cx="140" cy="130" r="2" fill="#464646"/>
<circle cx="2" cy="2" r="2" transform="matrix(-4.37114e-08 -1 -1 4.37114e-08 286 20)" fill="#464646"/>
<circle cx="76" cy="130" r="2" fill="#464646"/>
<circle cx="2" cy="2" r="2" transform="matrix(-4.37114e-08 -1 -1 4.37114e-08 286 84)" fill="#464646"/>
<circle cx="204" cy="130" r="2" fill="#464646"/>
<circle cx="44" cy="130" r="2" fill="#464646"/>
<circle cx="2" cy="2" r="2" transform="matrix(-4.37114e-08 -1 -1 4.37114e-08 286 116)" fill="#464646"/>
<circle cx="172" cy="130" r="2" fill="#464646"/>
<circle cx="108" cy="130" r="2" fill="#464646"/>
<circle cx="2" cy="2" r="2" transform="matrix(-4.37114e-08 -1 -1 4.37114e-08 286 52)" fill="#464646"/>
<circle cx="236" cy="130" r="2" fill="#464646"/>
<circle cx="28" cy="130" r="2" fill="#464646"/>
<circle cx="2" cy="2" r="2" transform="matrix(-4.37114e-08 -1 -1 4.37114e-08 286 132)" fill="#464646"/>
<circle cx="156" cy="130" r="2" fill="#464646"/>
<circle cx="92" cy="130" r="2" fill="#464646"/>
<circle cx="2" cy="2" r="2" transform="matrix(-4.37114e-08 -1 -1 4.37114e-08 286 68)" fill="#464646"/>
<circle cx="220" cy="130" r="2" fill="#464646"/>
<circle cx="60" cy="130" r="2" fill="#464646"/>
<circle cx="2" cy="2" r="2" transform="matrix(-4.37114e-08 -1 -1 4.37114e-08 286 100)" fill="#464646"/>
<circle cx="188" cy="130" r="2" fill="#464646"/>
<circle cx="124" cy="130" r="2" fill="#464646"/>
<circle cx="2" cy="2" r="2" transform="matrix(-4.37114e-08 -1 -1 4.37114e-08 286 36)" fill="#464646"/>
<circle cx="252" cy="130" r="2" fill="#464646"/>
<circle cx="20" cy="130" r="2" fill="#464646"/>
<circle cx="2" cy="2" r="2" transform="matrix(-4.37114e-08 -1 -1 4.37114e-08 286 140)" fill="#464646"/>
<circle cx="148" cy="130" r="2" fill="#464646"/>
<circle cx="2" cy="2" r="2" transform="matrix(-4.37114e-08 -1 -1 4.37114e-08 286 12)" fill="#464646"/>
<circle cx="84" cy="130" r="2" fill="#464646"/>
<circle cx="2" cy="2" r="2" transform="matrix(-4.37114e-08 -1 -1 4.37114e-08 286 76)" fill="#464646"/>
<circle cx="212" cy="130" r="2" fill="#464646"/>
<circle cx="52" cy="130" r="2" fill="#464646"/>
<circle cx="2" cy="2" r="2" transform="matrix(-4.37114e-08 -1 -1 4.37114e-08 286 108)" fill="#464646"/>
<circle cx="180" cy="130" r="2" fill="#464646"/>
<circle cx="116" cy="130" r="2" fill="#464646"/>
<circle cx="2" cy="2" r="2" transform="matrix(-4.37114e-08 -1 -1 4.37114e-08 286 44)" fill="#464646"/>
<circle cx="244" cy="130" r="2" fill="#464646"/>
<circle cx="36" cy="130" r="2" fill="#464646"/>
<circle cx="2" cy="2" r="2" transform="matrix(-4.37114e-08 -1 -1 4.37114e-08 286 124)" fill="#464646"/>
<circle cx="164" cy="130" r="2" fill="#464646"/>
<circle cx="100" cy="130" r="2" fill="#464646"/>
<circle cx="2" cy="2" r="2" transform="matrix(-4.37114e-08 -1 -1 4.37114e-08 286 60)" fill="#464646"/>
<circle cx="228" cy="130" r="2" fill="#464646"/>
<circle cx="68" cy="130" r="2" fill="#464646"/>
<circle cx="2" cy="2" r="2" transform="matrix(-4.37114e-08 -1 -1 4.37114e-08 286 92)" fill="#464646"/>
<circle cx="196" cy="130" r="2" fill="#464646"/>
<circle cx="132" cy="130" r="2" fill="#464646"/>
<circle cx="2" cy="2" r="2" transform="matrix(-4.37114e-08 -1 -1 4.37114e-08 286 28)" fill="#464646"/>
<circle cx="260" cy="130" r="2" fill="#464646"/>
<circle cx="12" cy="106" r="2" fill="#464646"/>
<circle cx="2" cy="2" r="2" transform="matrix(-4.37114e-08 -1 -1 4.37114e-08 310 148)" fill="#464646"/>
<circle cx="140" cy="106" r="2" fill="#464646"/>
<circle cx="2" cy="2" r="2" transform="matrix(-4.37114e-08 -1 -1 4.37114e-08 310 20)" fill="#464646"/>
<circle cx="76" cy="106" r="2" fill="#464646"/>
<circle cx="2" cy="2" r="2" transform="matrix(-4.37114e-08 -1 -1 4.37114e-08 310 84)" fill="#464646"/>
<circle cx="204" cy="106" r="2" fill="#464646"/>
<circle cx="44" cy="106" r="2" fill="#464646"/>
<circle cx="2" cy="2" r="2" transform="matrix(-4.37114e-08 -1 -1 4.37114e-08 310 116)" fill="#464646"/>
<circle cx="172" cy="106" r="2" fill="#464646"/>
<circle cx="108" cy="106" r="2" fill="#464646"/>
<circle cx="2" cy="2" r="2" transform="matrix(-4.37114e-08 -1 -1 4.37114e-08 310 52)" fill="#464646"/>
<circle cx="236" cy="106" r="2" fill="#464646"/>
<circle cx="28" cy="106" r="2" fill="#464646"/>
<circle cx="2" cy="2" r="2" transform="matrix(-4.37114e-08 -1 -1 4.37114e-08 310 132)" fill="#464646"/>
<circle cx="156" cy="106" r="2" fill="#464646"/>
<circle cx="92" cy="106" r="2" fill="#464646"/>
<circle cx="2" cy="2" r="2" transform="matrix(-4.37114e-08 -1 -1 4.37114e-08 310 68)" fill="#464646"/>
<circle cx="220" cy="106" r="2" fill="#464646"/>
<circle cx="60" cy="106" r="2" fill="#464646"/>
<circle cx="2" cy="2" r="2" transform="matrix(-4.37114e-08 -1 -1 4.37114e-08 310 100)" fill="#464646"/>
<circle cx="188" cy="106" r="2" fill="#464646"/>
<circle cx="124" cy="106" r="2" fill="#464646"/>
<circle cx="2" cy="2" r="2" transform="matrix(-4.37114e-08 -1 -1 4.37114e-08 310 36)" fill="#464646"/>
<circle cx="252" cy="106" r="2" fill="#464646"/>
<circle cx="20" cy="106" r="2" fill="#464646"/>
<circle cx="2" cy="2" r="2" transform="matrix(-4.37114e-08 -1 -1 4.37114e-08 310 140)" fill="#464646"/>
<circle cx="148" cy="106" r="2" fill="#464646"/>
<circle cx="2" cy="2" r="2" transform="matrix(-4.37114e-08 -1 -1 4.37114e-08 310 12)" fill="#464646"/>
<circle cx="84" cy="106" r="2" fill="#464646"/>
<circle cx="2" cy="2" r="2" transform="matrix(-4.37114e-08 -1 -1 4.37114e-08 310 76)" fill="#464646"/>
<circle cx="212" cy="106" r="2" fill="#464646"/>
<circle cx="52" cy="106" r="2" fill="#464646"/>
<circle cx="2" cy="2" r="2" transform="matrix(-4.37114e-08 -1 -1 4.37114e-08 310 108)" fill="#464646"/>
<circle cx="180" cy="106" r="2" fill="#464646"/>
<circle cx="116" cy="106" r="2" fill="#464646"/>
<circle cx="2" cy="2" r="2" transform="matrix(-4.37114e-08 -1 -1 4.37114e-08 310 44)" fill="#464646"/>
<circle cx="244" cy="106" r="2" fill="#464646"/>
<circle cx="36" cy="106" r="2" fill="#464646"/>
<circle cx="2" cy="2" r="2" transform="matrix(-4.37114e-08 -1 -1 4.37114e-08 310 124)" fill="#464646"/>
<circle cx="164" cy="106" r="2" fill="#464646"/>
<circle cx="100" cy="106" r="2" fill="#464646"/>
<circle cx="2" cy="2" r="2" transform="matrix(-4.37114e-08 -1 -1 4.37114e-08 310 60)" fill="#464646"/>
<circle cx="228" cy="106" r="2" fill="#464646"/>
<circle cx="68" cy="106" r="2" fill="#464646"/>
<circle cx="2" cy="2" r="2" transform="matrix(-4.37114e-08 -1 -1 4.37114e-08 310 92)" fill="#464646"/>
<circle cx="196" cy="106" r="2" fill="#464646"/>
<circle cx="132" cy="106" r="2" fill="#464646"/>
<circle cx="2" cy="2" r="2" transform="matrix(-4.37114e-08 -1 -1 4.37114e-08 310 28)" fill="#464646"/>
<circle cx="260" cy="106" r="2" fill="#464646"/>
<circle cx="12" cy="138" r="2" fill="#464646"/>
<circle cx="2" cy="2" r="2" transform="matrix(-4.37114e-08 -1 -1 4.37114e-08 278 148)" fill="#464646"/>
<circle cx="140" cy="138" r="2" fill="#464646"/>
<circle cx="2" cy="2" r="2" transform="matrix(-4.37114e-08 -1 -1 4.37114e-08 278 20)" fill="#464646"/>
<circle cx="76" cy="138" r="2" fill="#464646"/>
<circle cx="2" cy="2" r="2" transform="matrix(-4.37114e-08 -1 -1 4.37114e-08 278 84)" fill="#464646"/>
<circle cx="204" cy="138" r="2" fill="#464646"/>
<circle cx="44" cy="138" r="2" fill="#464646"/>
<circle cx="2" cy="2" r="2" transform="matrix(-4.37114e-08 -1 -1 4.37114e-08 278 116)" fill="#464646"/>
<circle cx="172" cy="138" r="2" fill="#464646"/>
<circle cx="108" cy="138" r="2" fill="#464646"/>
<circle cx="2" cy="2" r="2" transform="matrix(-4.37114e-08 -1 -1 4.37114e-08 278 52)" fill="#464646"/>
<circle cx="236" cy="138" r="2" fill="#464646"/>
<circle cx="28" cy="138" r="2" fill="#464646"/>
<circle cx="2" cy="2" r="2" transform="matrix(-4.37114e-08 -1 -1 4.37114e-08 278 132)" fill="#464646"/>
<circle cx="156" cy="138" r="2" fill="#464646"/>
<circle cx="92" cy="138" r="2" fill="#464646"/>
<circle cx="2" cy="2" r="2" transform="matrix(-4.37114e-08 -1 -1 4.37114e-08 278 68)" fill="#464646"/>
<circle cx="220" cy="138" r="2" fill="#464646"/>
<circle cx="60" cy="138" r="2" fill="#464646"/>
<circle cx="2" cy="2" r="2" transform="matrix(-4.37114e-08 -1 -1 4.37114e-08 278 100)" fill="#464646"/>
<circle cx="188" cy="138" r="2" fill="#464646"/>
<circle cx="124" cy="138" r="2" fill="#464646"/>
<circle cx="2" cy="2" r="2" transform="matrix(-4.37114e-08 -1 -1 4.37114e-08 278 36)" fill="#464646"/>
<circle cx="252" cy="138" r="2" fill="#464646"/>
<circle cx="20" cy="138" r="2" fill="#464646"/>
<circle cx="2" cy="2" r="2" transform="matrix(-4.37114e-08 -1 -1 4.37114e-08 278 140)" fill="#464646"/>
<circle cx="148" cy="138" r="2" fill="#464646"/>
<circle cx="2" cy="2" r="2" transform="matrix(-4.37114e-08 -1 -1 4.37114e-08 278 12)" fill="#464646"/>
<circle cx="84" cy="138" r="2" fill="#464646"/>
<circle cx="2" cy="2" r="2" transform="matrix(-4.37114e-08 -1 -1 4.37114e-08 278 76)" fill="#464646"/>
<circle cx="212" cy="138" r="2" fill="#464646"/>
<circle cx="52" cy="138" r="2" fill="#464646"/>
<circle cx="2" cy="2" r="2" transform="matrix(-4.37114e-08 -1 -1 4.37114e-08 278 108)" fill="#464646"/>
<circle cx="180" cy="138" r="2" fill="#464646"/>
<circle cx="116" cy="138" r="2" fill="#464646"/>
<circle cx="2" cy="2" r="2" transform="matrix(-4.37114e-08 -1 -1 4.37114e-08 278 44)" fill="#464646"/>
<circle cx="244" cy="138" r="2" fill="#464646"/>
<circle cx="36" cy="138" r="2" fill="#464646"/>
<circle cx="2" cy="2" r="2" transform="matrix(-4.37114e-08 -1 -1 4.37114e-08 278 124)" fill="#464646"/>
<circle cx="164" cy="138" r="2" fill="#464646"/>
<circle cx="100" cy="138" r="2" fill="#464646"/>
<circle cx="2" cy="2" r="2" transform="matrix(-4.37114e-08 -1 -1 4.37114e-08 278 60)" fill="#464646"/>
<circle cx="228" cy="138" r="2" fill="#464646"/>
<circle cx="68" cy="138" r="2" fill="#464646"/>
<circle cx="2" cy="2" r="2" transform="matrix(-4.37114e-08 -1 -1 4.37114e-08 278 92)" fill="#464646"/>
<circle cx="196" cy="138" r="2" fill="#464646"/>
<circle cx="132" cy="138" r="2" fill="#464646"/>
<circle cx="2" cy="2" r="2" transform="matrix(-4.37114e-08 -1 -1 4.37114e-08 278 28)" fill="#464646"/>
<circle cx="260" cy="138" r="2" fill="#464646"/>
<circle cx="12" cy="114" r="2" fill="#464646"/>
<circle cx="2" cy="2" r="2" transform="matrix(-4.37114e-08 -1 -1 4.37114e-08 302 148)" fill="#464646"/>
<circle cx="140" cy="114" r="2" fill="#464646"/>
<circle cx="2" cy="2" r="2" transform="matrix(-4.37114e-08 -1 -1 4.37114e-08 302 20)" fill="#464646"/>
<circle cx="76" cy="114" r="2" fill="#464646"/>
<circle cx="2" cy="2" r="2" transform="matrix(-4.37114e-08 -1 -1 4.37114e-08 302 84)" fill="#464646"/>
<circle cx="204" cy="114" r="2" fill="#464646"/>
<circle cx="44" cy="114" r="2" fill="#464646"/>
<circle cx="2" cy="2" r="2" transform="matrix(-4.37114e-08 -1 -1 4.37114e-08 302 116)" fill="#464646"/>
<circle cx="172" cy="114" r="2" fill="#464646"/>
<circle cx="108" cy="114" r="2" fill="#464646"/>
<circle cx="2" cy="2" r="2" transform="matrix(-4.37114e-08 -1 -1 4.37114e-08 302 52)" fill="#464646"/>
<circle cx="236" cy="114" r="2" fill="#464646"/>
<circle cx="28" cy="114" r="2" fill="#464646"/>
<circle cx="2" cy="2" r="2" transform="matrix(-4.37114e-08 -1 -1 4.37114e-08 302 132)" fill="#464646"/>
<circle cx="156" cy="114" r="2" fill="#464646"/>
<circle cx="92" cy="114" r="2" fill="#464646"/>
<circle cx="2" cy="2" r="2" transform="matrix(-4.37114e-08 -1 -1 4.37114e-08 302 68)" fill="#464646"/>
<circle cx="220" cy="114" r="2" fill="#464646"/>
<circle cx="60" cy="114" r="2" fill="#464646"/>
<circle cx="2" cy="2" r="2" transform="matrix(-4.37114e-08 -1 -1 4.37114e-08 302 100)" fill="#464646"/>
<circle cx="188" cy="114" r="2" fill="#464646"/>
<circle cx="124" cy="114" r="2" fill="#464646"/>
<circle cx="2" cy="2" r="2" transform="matrix(-4.37114e-08 -1 -1 4.37114e-08 302 36)" fill="#464646"/>
<circle cx="252" cy="114" r="2" fill="#464646"/>
<circle cx="20" cy="114" r="2" fill="#464646"/>
<circle cx="2" cy="2" r="2" transform="matrix(-4.37114e-08 -1 -1 4.37114e-08 302 140)" fill="#464646"/>
<circle cx="148" cy="114" r="2" fill="#464646"/>
<circle cx="2" cy="2" r="2" transform="matrix(-4.37114e-08 -1 -1 4.37114e-08 302 12)" fill="#464646"/>
<circle cx="84" cy="114" r="2" fill="#464646"/>
<circle cx="2" cy="2" r="2" transform="matrix(-4.37114e-08 -1 -1 4.37114e-08 302 76)" fill="#464646"/>
<circle cx="212" cy="114" r="2" fill="#464646"/>
<circle cx="52" cy="114" r="2" fill="#464646"/>
<circle cx="2" cy="2" r="2" transform="matrix(-4.37114e-08 -1 -1 4.37114e-08 302 108)" fill="#464646"/>
<circle cx="180" cy="114" r="2" fill="#464646"/>
<circle cx="116" cy="114" r="2" fill="#464646"/>
<circle cx="2" cy="2" r="2" transform="matrix(-4.37114e-08 -1 -1 4.37114e-08 302 44)" fill="#464646"/>
<circle cx="244" cy="114" r="2" fill="#464646"/>
<circle cx="36" cy="114" r="2" fill="#464646"/>
<circle cx="2" cy="2" r="2" transform="matrix(-4.37114e-08 -1 -1 4.37114e-08 302 124)" fill="#464646"/>
<circle cx="164" cy="114" r="2" fill="#464646"/>
<circle cx="100" cy="114" r="2" fill="#464646"/>
<circle cx="2" cy="2" r="2" transform="matrix(-4.37114e-08 -1 -1 4.37114e-08 302 60)" fill="#464646"/>
<circle cx="228" cy="114" r="2" fill="#464646"/>
<circle cx="68" cy="114" r="2" fill="#464646"/>
<circle cx="2" cy="2" r="2" transform="matrix(-4.37114e-08 -1 -1 4.37114e-08 302 92)" fill="#464646"/>
<circle cx="196" cy="114" r="2" fill="#464646"/>
<circle cx="132" cy="114" r="2" fill="#464646"/>
<circle cx="2" cy="2" r="2" transform="matrix(-4.37114e-08 -1 -1 4.37114e-08 302 28)" fill="#464646"/>
<circle cx="260" cy="114" r="2" fill="#464646"/>
<circle cx="12" cy="146" r="2" fill="#464646"/>
<circle cx="2" cy="2" r="2" transform="matrix(-4.37114e-08 -1 -1 4.37114e-08 270 148)" fill="#464646"/>
<circle cx="140" cy="146" r="2" fill="#464646"/>
<circle cx="2" cy="2" r="2" transform="matrix(-4.37114e-08 -1 -1 4.37114e-08 270 20)" fill="#464646"/>
<circle cx="76" cy="146" r="2" fill="#464646"/>
<circle cx="2" cy="2" r="2" transform="matrix(-4.37114e-08 -1 -1 4.37114e-08 270 84)" fill="#464646"/>
<circle cx="204" cy="146" r="2" fill="#464646"/>
<circle cx="44" cy="146" r="2" fill="#464646"/>
<circle cx="2" cy="2" r="2" transform="matrix(-4.37114e-08 -1 -1 4.37114e-08 270 116)" fill="#464646"/>
<circle cx="172" cy="146" r="2" fill="#464646"/>
<circle cx="108" cy="146" r="2" fill="#464646"/>
<circle cx="2" cy="2" r="2" transform="matrix(-4.37114e-08 -1 -1 4.37114e-08 270 52)" fill="#464646"/>
<circle cx="236" cy="146" r="2" fill="#464646"/>
<circle cx="28" cy="146" r="2" fill="#464646"/>
<circle cx="2" cy="2" r="2" transform="matrix(-4.37114e-08 -1 -1 4.37114e-08 270 132)" fill="#464646"/>
<circle cx="156" cy="146" r="2" fill="#464646"/>
<circle cx="92" cy="146" r="2" fill="#464646"/>
<circle cx="2" cy="2" r="2" transform="matrix(-4.37114e-08 -1 -1 4.37114e-08 270 68)" fill="#464646"/>
<circle cx="220" cy="146" r="2" fill="#464646"/>
<circle cx="60" cy="146" r="2" fill="#464646"/>
<circle cx="2" cy="2" r="2" transform="matrix(-4.37114e-08 -1 -1 4.37114e-08 270 100)" fill="#464646"/>
<circle cx="188" cy="146" r="2" fill="#464646"/>
<circle cx="124" cy="146" r="2" fill="#464646"/>
<circle cx="2" cy="2" r="2" transform="matrix(-4.37114e-08 -1 -1 4.37114e-08 270 36)" fill="#464646"/>
<circle cx="252" cy="146" r="2" fill="#464646"/>
<circle cx="20" cy="146" r="2" fill="#464646"/>
<circle cx="2" cy="2" r="2" transform="matrix(-4.37114e-08 -1 -1 4.37114e-08 270 140)" fill="#464646"/>
<circle cx="148" cy="146" r="2" fill="#464646"/>
<circle cx="2" cy="2" r="2" transform="matrix(-4.37114e-08 -1 -1 4.37114e-08 270 12)" fill="#464646"/>
<circle cx="84" cy="146" r="2" fill="#464646"/>
<circle cx="2" cy="2" r="2" transform="matrix(-4.37114e-08 -1 -1 4.37114e-08 270 76)" fill="#464646"/>
<circle cx="212" cy="146" r="2" fill="#464646"/>
<circle cx="52" cy="146" r="2" fill="#464646"/>
<circle cx="2" cy="2" r="2" transform="matrix(-4.37114e-08 -1 -1 4.37114e-08 270 108)" fill="#464646"/>
<circle cx="180" cy="146" r="2" fill="#464646"/>
<circle cx="116" cy="146" r="2" fill="#464646"/>
<circle cx="2" cy="2" r="2" transform="matrix(-4.37114e-08 -1 -1 4.37114e-08 270 44)" fill="#464646"/>
<circle cx="244" cy="146" r="2" fill="#464646"/>
<circle cx="36" cy="146" r="2" fill="#464646"/>
<circle cx="2" cy="2" r="2" transform="matrix(-4.37114e-08 -1 -1 4.37114e-08 270 124)" fill="#464646"/>
<circle cx="164" cy="146" r="2" fill="#464646"/>
<circle cx="100" cy="146" r="2" fill="#464646"/>
<circle cx="2" cy="2" r="2" transform="matrix(-4.37114e-08 -1 -1 4.37114e-08 270 60)" fill="#464646"/>
<circle cx="228" cy="146" r="2" fill="#464646"/>
<circle cx="68" cy="146" r="2" fill="#464646"/>
<circle cx="2" cy="2" r="2" transform="matrix(-4.37114e-08 -1 -1 4.37114e-08 270 92)" fill="#464646"/>
<circle cx="196" cy="146" r="2" fill="#464646"/>
<circle cx="132" cy="146" r="2" fill="#464646"/>
<circle cx="2" cy="2" r="2" transform="matrix(-4.37114e-08 -1 -1 4.37114e-08 270 28)" fill="#464646"/>
<circle cx="260" cy="146" r="2" fill="#464646"/>
<circle cx="12" cy="122" r="2" fill="#464646"/>
<circle cx="2" cy="2" r="2" transform="matrix(-4.37114e-08 -1 -1 4.37114e-08 294 148)" fill="#464646"/>
<circle cx="140" cy="122" r="2" fill="#464646"/>
<circle cx="2" cy="2" r="2" transform="matrix(-4.37114e-08 -1 -1 4.37114e-08 294 20)" fill="#464646"/>
<circle cx="76" cy="122" r="2" fill="#464646"/>
<circle cx="2" cy="2" r="2" transform="matrix(-4.37114e-08 -1 -1 4.37114e-08 294 84)" fill="#464646"/>
<circle cx="204" cy="122" r="2" fill="#464646"/>
<circle cx="44" cy="122" r="2" fill="#464646"/>
<circle cx="2" cy="2" r="2" transform="matrix(-4.37114e-08 -1 -1 4.37114e-08 294 116)" fill="#464646"/>
<circle cx="172" cy="122" r="2" fill="#464646"/>
<circle cx="108" cy="122" r="2" fill="#464646"/>
<circle cx="2" cy="2" r="2" transform="matrix(-4.37114e-08 -1 -1 4.37114e-08 294 52)" fill="#464646"/>
<circle cx="236" cy="122" r="2" fill="#464646"/>
<circle cx="28" cy="122" r="2" fill="#464646"/>
<circle cx="2" cy="2" r="2" transform="matrix(-4.37114e-08 -1 -1 4.37114e-08 294 132)" fill="#464646"/>
<circle cx="156" cy="122" r="2" fill="#464646"/>
<circle cx="92" cy="122" r="2" fill="#464646"/>
<circle cx="2" cy="2" r="2" transform="matrix(-4.37114e-08 -1 -1 4.37114e-08 294 68)" fill="#464646"/>
<circle cx="220" cy="122" r="2" fill="#464646"/>
<circle cx="60" cy="122" r="2" fill="#464646"/>
<circle cx="2" cy="2" r="2" transform="matrix(-4.37114e-08 -1 -1 4.37114e-08 294 100)" fill="#464646"/>
<circle cx="188" cy="122" r="2" fill="#464646"/>
<circle cx="124" cy="122" r="2" fill="#464646"/>
<circle cx="2" cy="2" r="2" transform="matrix(-4.37114e-08 -1 -1 4.37114e-08 294 36)" fill="#464646"/>
<circle cx="252" cy="122" r="2" fill="#464646"/>
<circle cx="20" cy="122" r="2" fill="#464646"/>
<circle cx="2" cy="2" r="2" transform="matrix(-4.37114e-08 -1 -1 4.37114e-08 294 140)" fill="#464646"/>
<circle cx="148" cy="122" r="2" fill="#464646"/>
<circle cx="2" cy="2" r="2" transform="matrix(-4.37114e-08 -1 -1 4.37114e-08 294 12)" fill="#464646"/>
<circle cx="84" cy="122" r="2" fill="#464646"/>
<circle cx="2" cy="2" r="2" transform="matrix(-4.37114e-08 -1 -1 4.37114e-08 294 76)" fill="#464646"/>
<circle cx="212" cy="122" r="2" fill="#464646"/>
<circle cx="52" cy="122" r="2" fill="#464646"/>
<circle cx="2" cy="2" r="2" transform="matrix(-4.37114e-08 -1 -1 4.37114e-08 294 108)" fill="#464646"/>
<circle cx="180" cy="122" r="2" fill="#464646"/>
<circle cx="116" cy="122" r="2" fill="#464646"/>
<circle cx="2" cy="2" r="2" transform="matrix(-4.37114e-08 -1 -1 4.37114e-08 294 44)" fill="#464646"/>
<circle cx="244" cy="122" r="2" fill="#464646"/>
<circle cx="36" cy="122" r="2" fill="#464646"/>
<circle cx="2" cy="2" r="2" transform="matrix(-4.37114e-08 -1 -1 4.37114e-08 294 124)" fill="#464646"/>
<circle cx="164" cy="122" r="2" fill="#464646"/>
<circle cx="100" cy="122" r="2" fill="#464646"/>
<circle cx="2" cy="2" r="2" transform="matrix(-4.37114e-08 -1 -1 4.37114e-08 294 60)" fill="#464646"/>
<circle cx="228" cy="122" r="2" fill="#464646"/>
<circle cx="68" cy="122" r="2" fill="#464646"/>
<circle cx="2" cy="2" r="2" transform="matrix(-4.37114e-08 -1 -1 4.37114e-08 294 92)" fill="#464646"/>
<circle cx="196" cy="122" r="2" fill="#464646"/>
<circle cx="132" cy="122" r="2" fill="#464646"/>
<circle cx="2" cy="2" r="2" transform="matrix(-4.37114e-08 -1 -1 4.37114e-08 294 28)" fill="#464646"/>
<circle cx="260" cy="122" r="2" fill="#464646"/>
</svg>
